<svg width="13" height="23" viewBox="0 0 13 23" fill="none" xmlns="http://www.w3.org/2000/svg">
<path d="M4.21706 11.318L12.0251 3.518C12.1665 3.3819 12.2794 3.21893 12.3571 3.03864C12.4348 2.85835 12.4757 2.66436 12.4774 2.46806C12.4792 2.27175 12.4417 2.07708 12.3672 1.89544C12.2927 1.7138 12.1827 1.54886 12.0437 1.41028C11.9047 1.2717 11.7393 1.16227 11.5575 1.0884C11.3756 1.01454 11.1808 0.977725 10.9845 0.980121C10.7882 0.982516 10.5943 1.02407 10.4143 1.10235C10.2343 1.18064 10.0717 1.29407 9.93606 1.436L1.09006 10.276C0.822739 10.5443 0.669105 10.9052 0.661096 11.2839C0.653088 11.6625 0.791322 12.0297 1.04706 12.309L9.93006 21.209C10.2081 21.4765 10.5799 21.6244 10.9657 21.621C11.3515 21.6175 11.7206 21.4631 11.9939 21.1907C12.2671 20.9184 12.4228 20.5498 12.4275 20.164C12.4322 19.7782 12.2856 19.4059 12.0191 19.127L4.21706 11.318Z" fill="#F5F5F5" stroke="#0F1523"/>
</svg>
