<svg width="19" height="17" viewBox="0 0 19 17" fill="none" xmlns="http://www.w3.org/2000/svg">
<path d="M2.56 1.67801H16.204C16.6561 1.67933 17.0892 1.85949 17.4089 2.17914C17.7285 2.49879 17.9087 2.93196 17.91 3.38401V13.617C17.9087 14.0691 17.7285 14.5022 17.4089 14.8219C17.0892 15.1415 16.6561 15.3217 16.204 15.323H2.56C2.10795 15.3217 1.67479 15.1415 1.35514 14.8219C1.03549 14.5022 0.855323 14.0691 0.854004 13.617V3.38401C0.855323 2.93196 1.03549 2.49879 1.35514 2.17914C1.67479 1.85949 2.10795 1.67933 2.56 1.67801V1.67801Z" stroke="#D2B895" stroke-width="1.5" stroke-linecap="round" stroke-linejoin="round"/>
<path d="M17.909 3.38401L9.381 9.35301L0.854004 3.38401" stroke="#D2B895" stroke-width="1.5" stroke-linecap="round" stroke-linejoin="round"/>
</svg>
