<svg xmlns="http://www.w3.org/2000/svg" width="13.457" height="24.891" viewBox="0 0 13.457 24.891">
    <path fill="#3581b8" d="M35.028.005L31.8 0c-3.626 0-5.97 2.4-5.97 6.126V8.95h-3.245a.508.508 0 0 0-.508.508v4.092a.508.508 0 0 0 .508.508h3.245v10.325a.507.507 0 0 0 .508.508h4.234a.508.508 0 0 0 .508-.508V14.058h3.795a.507.507 0 0 0 .508-.508V9.458a.508.508 0 0 0-.508-.508h-3.8V6.556c0-1.151.274-1.735 1.773-1.735h2.174a.507.507 0 0 0 .507-.508v-3.8a.508.508 0 0 0-.501-.508z" transform="translate(-22.077)"/>
</svg>
