<?xml version="1.0" encoding="utf-8"?>
<!-- Generator: Adobe Illustrator 25.2.3, SVG Export Plug-In . SVG Version: 6.00 Build 0)  -->
<svg version="1.1" id="Layer_1" xmlns="http://www.w3.org/2000/svg" xmlns:xlink="http://www.w3.org/1999/xlink" x="0px" y="0px"
	 viewBox="0 0 371 367" style="enable-background:new 0 0 371 367;" xml:space="preserve">
<g>
	<path fill="#E82D36" d="M184.8,17c-93.9,0-170,76.1-170,170c0,53.5,24.7,101.1,63.3,132.3c0-0.1-0.1-0.2-0.1-0.3
		c-0.7-6.9-3-29.2-3.5-37.8c-0.6-10.6,7.2-25.7,26.1-31.1c7.6-2.2,13.2-3.6,17.3-4.3l16.2-9.2l1.7-1l1.6-0.9
		c0.4-0.2,0.8-0.4,1.2-0.5c0.7-0.1,1.4,0.1,2,0.5c5.7-3.4,10.5-6.3,12.2-7.4c3-1.9,6.2-3.5,8.4-7.3c0.7-1.3,1.3-2.8,1.8-4.7
		c-2.7,0.6-5.4,0.8-7.4,0.2c-5.4-1.7-5.6-12.8-11.4-14.5c-5.8-1.7-8.7,1.4-12.1-1.2c-3.3-2.6-3.7-10.1-7.2-12.1
		c-3.6-2-8.9,0.7-10.8-6c-1.3-4.4,2.2-23.6,4.8-36.2c-0.4-1-0.7-2-0.8-3.3c0-0.3-0.1-0.6-0.1-1s0-0.8,0-1.3c0-0.9,0.1-2,0.2-3.2l0,0
		c1.7-16.8,12.8-59.3,33-68.7c23.1-10.7,38.5,0.1,38.5,0.1s11.2-7.5,30.5,3.9s26.8,38.9,26.2,69.7c-0.6,30.7,7.1,59.4,3.7,60.4
		c-2.8,0.8-4.1-1-7.3-1.5c-2.3,2.5-5.7,5.3-10.6,7c-10.8,3.8-10.9-0.2-18.7-2.4c-3.1-0.9-6.6,0.3-10.1,2c0,0.5,0,1,0,1.5
		c0,0.3,0,0.6,0,0.9c0.3,4.8,1.2,8,2.6,10.4c2.2,3.8,5.4,5.3,8.4,7.3c1.8,1.2,6.9,4.3,13,7.8c0.7-0.7,1.6-1.1,2.6-0.9
		c0.4,0.1,0.8,0.2,1.2,0.5l3.8,2.2l15.4,8.7c4.2,0.7,10.2,2.1,18.6,4.5c18.9,5.4,26.7,20.6,26.1,31.1c-0.5,8.6-2.8,30.9-3.5,37.8
		c0,0.1,0,0.2-0.1,0.3c38.6-31.2,63.3-78.8,63.3-132.3C354.8,93.1,278.7,17,184.8,17z"/>
	<path fill="#CC962B" d="M174.2,265.3c0,0.8,0.7,1.5,1.5,1.5s1.5-0.7,1.5-1.5c0-0.3-0.1-2.7-3.3-4.4c-1.1-0.6-7.1-1.4-14.1-2.2
		c0.8,0.9,1.6,1.8,2.4,2.7c0.2,0.2,0.4,0.5,0.6,0.7c5.1,0.6,8.9,1.2,9.7,1.5C174,264.4,174.2,265.3,174.2,265.3z"/>
	<path fill="#CC962B" d="M189.5,265.3c0,0.8,0.7,1.5,1.5,1.5s1.5-0.6,1.5-1.5c0,0,0.1-1,1.7-1.7c0.9-0.4,5.7-1.1,11.9-1.8
		c1-1.1,2.1-2.3,3.1-3.4c-8,0.9-15.1,1.9-16.3,2.5C189.6,262.6,189.5,265.1,189.5,265.3z"/>
	<path fill="#CC962B" d="M203.4,199.5c1.3-0.7,2.5-1.4,3.7-2.2c-1.1-0.6-2.1-1.2-2.8-1.6c-1.9,1.1-3.8,2.1-5.8,2.9
		c-4.6,1.8-9.6,2.7-14.9,2.7c-5.3,0-10.3-0.9-14.9-2.7c-12.1-4.6-21.3-15.1-26.2-30.4c-1.3-3.9-2.2-8.1-2.9-12.6
		c-4.8-2.7-12.1-3.6-12.1-3.6s0,0-0.1,0c0.1,0.5,0.1,1,0.2,1.5c2.8,14.1,9.5,15.2,11.9,15.2c0,0.1,0.1,0.2,0.1,0.3
		c4.6,14.3,13.1,24.8,24.1,30.4v7.6c0,0.6,0,1.2,0,1.7c0,0.3,0,0.6,0,0.9c6,2.6,12.7,4.1,19.8,4.1c3.5,0,6.9-0.4,10.1-1
		c3.4-0.7,6.6-1.7,9.7-3.1c0-0.3,0-0.6,0-0.9c0-0.5,0-1,0-1.5c0-0.1,0-0.2,0-0.2v-7.5H203.4z"/>
	<path fill="#D08329" d="M120.3,139.1c1.8,1.9,4.6,4.4,7.1,5.2c0.3,0.1,0.7,0.2,1,0.3c4.4,0.4,6.7-4.6,8.4-3.1c0.7,0.6,1.3,1.8,1.9,3
		c0.9,1.9,1.6,3.9,1.6,3.9s0.5-3.5,1.1-8.4c0.9-7,1.8-16.7,1.6-22.8c-0.2-5.8,0.9-14.3,4.7-22.1c3.2-6.4,8.1-12.4,15.8-16
		c3.8-1.8,7.6-2.8,11.3-3.3c2.7-0.4,5.4-0.5,7.9-0.4c9.1,0.4,15.8,3.2,15.8,3.6c0,0.1,0,0.4,0.1,0.8c0.3,2.5,1.6,10.2,4.1,19.1
		c2.9,10.5,13.8,13.2,19.9,28.7c3.8,9.7,1,24.9-1.7,34.9c-1.6,6-3.1,10.2-3.1,10.2l0,0c0.1,2.4-0.1,4.4-0.6,6.1
		c-2.2,6.2-14.1,16-14.1,16s0.5,0.4,1.3,0.9c0.7,0.5,1.7,1,2.8,1.6c2.9,1.5,7,3,10.8,2.3c6.8-1.3,7,4.4,13.7,3.9
		c6.7-0.6,3.4-2.4,8.7-2.9c1-0.1,1.8,0,2.6,0.1c3.2,0.5,4.5,2.2,7.3,1.5c3.4-1-4.3-29.6-3.7-60.4c0.6-30.7-7-58.2-26.2-69.7
		c-19.3-11.4-30.5-3.9-30.5-3.9s-15.4-10.8-38.5-0.1c-20.2,9.4-31.3,51.9-33,68.7c0,0,0.1,0.1,0.1,0.2
		C118.7,137.4,119.3,138.2,120.3,139.1z"/>
	<path class="st10" d="M217.1,140.3c-0.1,1.9-0.2,3.6-0.3,5.3C216.9,143.9,217,142.1,217.1,140.3z"/>
	<path class="st10" d="M217.1,163.5c0-0.7-0.1-1.4-0.1-2.1c0-0.2,0-0.3,0-0.5c0,0.2,0,0.4,0,0.5C217,162.1,217.1,162.8,217.1,163.5z
		"/>
	<path fill="#A2762B" d="M240.3,200.7c-5.3,0.4-1.9,2.3-8.7,2.9c-6.7,0.6-6.9-5.2-13.7-3.9c-3.7,0.7-7.8-0.8-10.8-2.3
		c-1.2,0.8-2.5,1.5-3.7,2.2v7.6c0,0.1,0,0.2,0,0.2c3.5-1.8,7-2.9,10.1-2c7.8,2.2,7.9,6.2,18.7,2.4c4.9-1.7,8.3-4.5,10.6-7
		C242.1,200.6,241.2,200.6,240.3,200.7z"/>
	<path fill="#A2762B" d="M163.9,208.9c0-0.6,0-1.1,0-1.7v-7.6c-11-5.6-19.5-16.1-24.1-30.4c0-0.1-0.1-0.2-0.1-0.3
		c-2.4,0.1-9-1-11.9-15.2c-0.1-0.5-0.2-1-0.2-1.5h0.1c0,0,7.3,0.9,12.1,3.6c1.3,0.7,2.4,1.5,3.1,2.5c2.9-4,4.4-10.2,5-16.4
		c1.1-10.6-0.1-21.4-0.1-21.4s6.9-21,15.6-27c8.7-6.1,14.7-12.4,30.3-7.9c0.1,4.1,1,7.8,2.5,11.2c1.5,3.4,3.4,6.6,5.6,9.7
		c1.4,2.1,3,4.1,4.5,6.1c1.3,1.8,2.6,3.5,3.9,5.4c0.6,0.9,1.2,1.8,1.8,2.8c0.2,0.4,0.5,0.8,0.7,1.2c0.3,0.5,0.6,1.1,0.9,1.6
		c0.9,1.8,1.8,3.7,2.4,5.7c0,0.1,0.1,0.2,0.1,0.3c0.1,0.2,0.1,0.3,0.1,0.5c0.2,0.7,0.4,1.4,0.5,2.2c0.1,0.3,0.1,0.6,0.2,0.9
		c0.2,1,0.3,2,0.4,3.1c0.1,1.3,0.1,2.7,0,4.2l0,0c-0.1,1.9-0.2,3.6-0.3,5.3c0,0.5,0,0.9-0.1,1.4c0,1.4-0.1,2.7-0.1,3.9
		c0,0.3,0,0.6,0,0.8c0,1.4,0,2.8,0,4c0,0.5,0,0.9,0,1.4c0,0.8,0.1,1.7,0.1,2.4c0,0.5,0,0.9,0.1,1.4c0,0.2,0,0.4,0,0.5
		c0,0.7,0.1,1.4,0.1,2.1c0.3,3.7,0.6,6.7,0.7,9.2l0,0c0,0,1.5-4.2,3.1-10.2c2.7-10,5.5-25.3,1.7-34.9c-6.1-15.5-17-18.2-19.9-28.7
		c-2.5-8.9-3.8-16.6-4.1-19.1c-0.1-0.4-0.1-0.7-0.1-0.8c0-0.4-6.7-3.2-15.8-3.6c-2.5-0.1-5.1,0-7.9,0.4c-3.7,0.5-7.5,1.5-11.3,3.3
		c-7.6,3.6-12.6,9.5-15.8,16c-3.9,7.8-5,16.4-4.7,22.1c0.2,6.2-0.7,15.9-1.6,22.8c-0.6,4.9-1.1,8.4-1.1,8.4s-0.7-2-1.6-3.9
		c-0.6-1.2-1.3-2.4-1.9-3c-1.7-1.5-4,3.6-8.4,3.1c-0.3,0-0.6-0.2-1-0.3c-2.5-0.7-5.3-3.2-7.1-5.2c-0.9-1-1.6-1.8-1.9-2.1
		c-0.1-0.1-0.1-0.2-0.1-0.2l0,0c-0.1,1.2-0.2,2.3-0.2,3.2c0,0.5,0,0.9,0,1.3c0,0.4,0,0.7,0.1,1c0.2,1.3,0.4,2.3,0.8,3.3
		c-2.6,12.6-6.1,31.8-4.8,36.2c1.9,6.7,7.3,4.1,10.8,6c3.6,2,3.9,9.5,7.2,12.1s6.2-0.5,12.1,1.2c5.8,1.7,6.1,12.8,11.4,14.5
		c2,0.6,4.7,0.4,7.4-0.2c0.4-1.6,0.7-3.4,0.8-5.6C163.9,209.5,163.9,209.2,163.9,208.9z"/>
	<path fill="#FFFFFF" d="M184.3,288.5c11,0,50.7-51.6,50.7-51.6l-3.8-2.2c-0.4-0.2-0.8-0.4-1.2-0.5c-1-0.1-1.9,0.2-2.6,0.9
		c-0.2,0.2-0.4,0.5-0.5,0.8c-0.3,0.7-0.9,1.6-1.6,2.8c-2.4,3.5-6.7,8.9-11.7,14.7c-1.1,1.3-2.3,2.6-3.4,3.9c-0.3,0.3-0.6,0.6-0.9,1
		c-1,1.1-2,2.3-3.1,3.4c-0.5,0.5-0.9,1-1.4,1.5c-1.8,1.9-3.6,3.8-5.3,5.6c-1.2,1.2-2.3,2.3-3.4,3.4c-1.1,1.1-2.1,2.1-3.1,3
		c-2,1.9-3.8,3.4-5.3,4.4c-0.7,0.5-1.4,0.9-1.9,1.2c-0.6,0.3-1,0.4-1.4,0.4c-0.7,0-1.8-0.6-3.3-1.7c-1.8-1.3-4.2-3.4-6.8-5.9
		c-1-1-2.1-2.1-3.3-3.2c-1.7-1.7-3.4-3.5-5.2-5.4c-1-1-2-2.1-2.9-3.2c-0.2-0.2-0.4-0.5-0.6-0.7c-0.8-0.9-1.6-1.8-2.4-2.7
		c-0.4-0.4-0.7-0.8-1.1-1.2c-1.2-1.3-2.3-2.6-3.4-3.9c-6.7-7.8-12.2-14.8-13.4-17.5c-0.2-0.6-0.7-1-1.1-1.3c-0.6-0.4-1.3-0.6-2-0.5
		c-0.4,0.1-0.8,0.2-1.2,0.5l-1.6,0.9l-1.7,1C134.1,236.7,173.4,288.5,184.3,288.5z"/>
	<path fill="#717477" d="M295,281.3c0.6-10.6-7.2-25.7-26.1-31.1c-8.4-2.4-14.4-3.8-18.6-4.5l-15.4-8.7c0,0-39.7,51.6-50.7,51.6
		S134,236.7,134,236.7l-16.2,9.2c-4.1,0.8-9.7,2.1-17.3,4.3c-18.9,5.4-26.7,20.6-26.1,31.1c0.5,8.6,2.8,30.9,3.5,37.8
		c0,0.1,0,0.2,0.1,0.3c1.1,0.9,2.2,1.8,3.4,2.7l29.9,8.1c0,3.8,0.1,7.3,0.1,10.4c22.2,10.6,47.1,16.6,73.3,16.6
		c25.9,0,50.4-5.8,72.4-16.2c0-0.1,0-0.2,0-0.3c0-3,0-6.6,0.1-10.3l30.8-8.3c1.1-0.9,2.3-1.8,3.4-2.7c0-0.1,0.1-0.2,0.1-0.3
		C292.3,312.2,294.5,289.8,295,281.3z M118.6,298.4c-2.5,11-3.9,18.2-4.8,22.7c-0.1,0.5-0.2,0.9-0.2,1.4c-0.6,3.4-0.7,4.8-0.7,4.8
		c-0.1,0.8-0.7,1.4-1.5,1.4c0,0,0,0-0.1,0h-0.1c-0.8-0.1-1.4-0.8-1.4-1.6c0-0.2,0.2-2.4,1.3-8.2c0.1-0.3,0.1-0.7,0.2-1.1
		c0.4-2.3,1-5.2,1.7-8.6c0.7-3.2,1.5-6.9,2.5-11.2c-0.8-5.7-2.8-13.7-4.3-19.2c-1-3.6-1.7-6.2-1.7-6.2c-0.2-0.8,0.2-1.6,1-1.9
		c0.1,0,0.2,0,0.2,0c0.7-0.1,1.4,0.3,1.6,1s4.8,16.5,6.1,26.1v0.3L118.6,298.4z M258.6,272.6c0,0.1-0.5,1.8-1.2,4.3
		c-1.5,5.4-3.9,14.7-4.8,21.1c1.1,5,2,9.1,2.8,12.6c0.6,3.1,1.1,5.6,1.5,7.7c0.2,0.9,0.3,1.7,0.5,2.5c0.8,4.3,0.9,6,1,6.2
		c0.1,0.7-0.4,1.3-1.1,1.6c-0.1,0-0.2,0.1-0.3,0.1h-0.1c-0.8,0-1.4-0.6-1.5-1.4c0,0-0.1-1.2-0.6-4.1c0-0.1,0-0.2-0.1-0.3
		c-0.7-4.2-2.2-11.8-5-24.4l-0.1-0.3v-0.3c1.3-9.6,5.9-25.4,6.1-26.1c0.2-0.8,1.1-1.3,1.9-1c0.1,0,0.1,0.1,0.2,0.1
		C258.4,271.1,258.8,271.8,258.6,272.6z"/>
	<path fill="#FDB515" d="M141.8,236c1.2,2.7,6.7,9.7,13.4,17.5c1.1,1.3,2.3,2.6,3.4,3.9c0.4,0.4,0.7,0.8,1.1,1.2
		c7.1,0.8,13,1.7,14.1,2.2c3.3,1.6,3.3,4.1,3.3,4.4c0,0.8-0.7,1.5-1.5,1.5s-1.5-0.7-1.5-1.5c0,0-0.1-0.9-1.7-1.7
		c-0.8-0.3-4.6-0.9-9.7-1.5c1,1.1,2,2.1,2.9,3.2c1.8,1.9,3.5,3.7,5.2,5.4c1.1,1.1,2.2,2.2,3.3,3.2c2.6,2.5,5,4.6,6.8,5.9
		c1.5,1.1,2.6,1.7,3.3,1.7c0.3,0,0.8-0.1,1.4-0.4c0.6-0.3,1.2-0.7,1.9-1.2c1.5-1.1,3.3-2.6,5.3-4.4c1-0.9,2.1-1.9,3.1-3
		c1.1-1.1,2.2-2.2,3.4-3.4c1.7-1.8,3.5-3.7,5.3-5.6c0.5-0.5,0.9-1,1.4-1.5c-6.2,0.8-11,1.4-11.9,1.8c-1.5,0.8-1.7,1.7-1.7,1.7
		c0,0.8-0.7,1.5-1.5,1.5s-1.5-0.7-1.5-1.5c0-0.3,0.1-2.7,3.3-4.4c1.2-0.6,8.3-1.6,16.3-2.5c0.3-0.3,0.6-0.6,0.9-1
		c1.2-1.3,2.3-2.6,3.4-3.9c5-5.8,9.4-11.3,11.7-14.7c0.8-1.2,1.4-2.1,1.6-2.8c0.1-0.3,0.3-0.6,0.5-0.8c-6-3.6-11.2-6.7-13-7.8
		c-3-1.9-6.2-3.5-8.4-7.3c-1.4-2.4-2.3-5.6-2.6-10.4c-3.1,1.4-6.3,2.4-9.7,3.1c-3.2,0.7-6.6,1-10.1,1c-7.1,0-13.8-1.5-19.8-4.1
		c-0.1,2.2-0.4,4-0.8,5.6c-0.5,1.9-1.1,3.4-1.8,4.7c-2.2,3.8-5.4,5.3-8.4,7.3c-1.7,1.1-6.5,4-12.2,7.4
		C141.2,235.1,141.6,235.5,141.8,236z"/>
	<path fill="#FDB515" d="M168.8,198.6c4.6,1.8,9.6,2.7,14.9,2.7c5.3,0,10.3-0.9,14.9-2.7c2-0.8,3.9-1.8,5.8-2.9
		c-0.8-0.5-1.3-0.9-1.3-0.9s11.9-9.8,14.1-16c0.6-1.7,0.7-3.7,0.6-6.1c-0.1-2.5-0.4-5.5-0.7-9.2c0-0.7-0.1-1.4-0.1-2.1
		c0-0.2,0-0.3,0-0.5c0-0.4,0-0.9-0.1-1.4c0-0.8-0.1-1.6-0.1-2.4c0-0.5,0-0.9,0-1.4c0-1.3-0.1-2.6,0-4c0-0.3,0-0.6,0-0.8
		c0-1.2,0-2.6,0.1-3.9c0-0.5,0-0.9,0.1-1.4c0.1-1.7,0.2-3.4,0.3-5.3l0,0c0.1-1.4,0.1-2.8,0-4.2c-0.1-1.1-0.2-2.1-0.4-3.1
		c-0.1-0.3-0.1-0.6-0.2-0.9c-0.2-0.7-0.3-1.5-0.5-2.2c0-0.2-0.1-0.4-0.1-0.5s-0.1-0.2-0.1-0.3c-0.6-2-1.4-3.9-2.4-5.7
		c-0.3-0.5-0.6-1.1-0.9-1.6c-0.2-0.4-0.5-0.8-0.7-1.2c-0.6-0.9-1.2-1.8-1.8-2.8c-1.2-1.8-2.5-3.6-3.9-5.4c-1.5-2-3-4-4.5-6.1
		c-2.2-3.1-4.1-6.2-5.6-9.7c-1.5-3.4-2.4-7.1-2.5-11.2c-15.6-4.4-21.6,1.9-30.3,7.9c-8.7,6.1-15.6,27-15.6,27s1.2,10.7,0.1,21.4
		c-0.6,6.2-2.1,12.4-5,16.4c-0.7-1-1.8-1.8-3.1-2.5c0.7,4.4,1.6,8.7,2.9,12.6C147.5,183.5,156.7,194,168.8,198.6z"/>
	<path fill="#FDB515" d="M81.4,322c9.3,7.1,19.3,13.3,30,18.4c0-3.1,0-6.6-0.1-10.4L81.4,322z"/>
	<path fill="#FDB515" d="M257.2,340.6c0,0.1,0,0.2,0,0.3c11-5.2,21.3-11.5,30.9-18.9l-30.8,8.3C257.2,334,257.2,337.5,257.2,340.6z"/>
	<path fill="#FFFFFF" d="M112.6,271.7c-0.2-0.7-0.9-1.1-1.6-1c-0.1,0-0.2,0-0.2,0c-0.8,0.2-1.3,1.1-1,1.9c0,0.1,0.8,2.6,1.7,6.2
		c1.5,5.5,3.5,13.5,4.3,19.2c-1,4.3-1.8,8-2.5,11.2c-0.7,3.5-1.3,6.3-1.7,8.6c-0.1,0.4-0.1,0.7-0.2,1.1c-1.6,6.3-2.5,20.2-2.5,20.3
		l0,0l3,1.5l0,0v-0.2c0,0,1-14.3,1.8-18c0.1-0.4,0.2-0.9,0.2-1.4c0.8-4.5,2.2-11.7,4.8-22.7l0.1-0.3v-0.3
		C117.4,288.2,112.7,272.4,112.6,271.7z"/>
	<path fill="#FFFFFF" d="M257.7,270.8c-0.1,0-0.1-0.1-0.2-0.1c-0.8-0.2-1.6,0.2-1.9,1c-0.2,0.7-4.8,16.5-6.1,26.1v0.3l0.1,0.3
		c2.9,12.6,4.3,20.2,5,24.4c0,0.1,0,0.2,0.1,0.3c0.5,2.9,0.6,4.1,0.6,4.1c0.1,0.8,1.1,13.6,1.9,13.6l0,0c0,0,2-0.9,2.9-1.4
		c0.6-0.3-1.7-11.7-1.8-12.4c0-0.1-0.2-1.8-1-6.2c-0.1-0.7-0.3-1.6-0.5-2.5c-0.4-2.1-0.9-4.7-1.5-7.7c-0.7-3.5-1.6-7.7-2.8-12.6
		c0.9-6.4,3.3-15.7,4.8-21.1c0.7-2.6,1.2-4.3,1.2-4.3C258.8,271.8,258.4,271.1,257.7,270.8z"/>
</g>
</svg>
