<svg width="164" height="164" xmlns="http://www.w3.org/2000/svg" xmlns:xlink="http://www.w3.org/1999/xlink" version="1.0" xml:space="preserve">
 <g>
  <title>Layer 1</title>
  <g transform="matrix(1, 0, 0, 1, -124, -340)" id="svg_1" xmlns="http://www.w3.org/2000/svg">
   <g id="svg_2">
    <defs>
     <rect id="SVGID_1114_" width="800" height="800"/>
    </defs>
    <clipPath id="SVGID_26_">
     <use xlink:href="#SVGID_1114_" id="svg_3" xmlns:xlink="http://www.w3.org/1999/xlink"/>
    </clipPath>
    <g class="st11" clip-path="url(#SVGID_26_)" id="svg_4">
     <defs>
      <rect id="SVGID_1116_" width="800" height="800"/>
     </defs>
     <clipPath id="SVGID_28_">
      <use xlink:href="#SVGID_1116_" id="svg_5" xmlns:xlink="http://www.w3.org/1999/xlink"/>
     </clipPath>
     <g clip-path="url(#SVGID_28_)" id="svg_6">
      <g id="svg_7">
       <defs>
        <rect id="SVGID_1118_" width="800" height="800"/>
       </defs>
       <clipPath id="SVGID_30_">
        <use xlink:href="#SVGID_1118_" id="svg_8" xmlns:xlink="http://www.w3.org/1999/xlink"/>
       </clipPath>
       <g class="st13" clip-path="url(#SVGID_30_)" id="svg_9">
        <defs>
         <circle id="SVGID_1178_" cx="206.2" cy="421.9" r="80.8"/>
        </defs>
        <clipPath id="SVGID_90_">
         <use xlink:href="#SVGID_1178_" id="svg_10" xmlns:xlink="http://www.w3.org/1999/xlink"/>
        </clipPath>
        <g class="st44" clip-path="url(#SVGID_90_)" id="svg_11">
         <defs>
          <rect id="SVGID_1180_" width="800" height="800"/>
         </defs>
         <clipPath id="SVGID_92_">
          <use xlink:href="#SVGID_1180_" id="svg_12" xmlns:xlink="http://www.w3.org/1999/xlink"/>
         </clipPath>
         <rect x="124.3" y="340" width="163.7" height="163.7" fill="#FCC40F" clip-path="url(#SVGID_92_)" id="svg_13"/>
        </g>
       </g>
       <g class="st13" clip-path="url(#SVGID_30_)" id="svg_14">
        <defs>
         <rect id="SVGID_1182_" width="800" height="800"/>
        </defs>
        <clipPath id="SVGID_94_">
         <use xlink:href="#SVGID_1182_" id="svg_15" xmlns:xlink="http://www.w3.org/1999/xlink"/>
        </clipPath>
        <path d="m202.2,484.8l0,-18.9l10.1,0l0,18.9c0,2.8 -2.3,5 -5,5c-2.9,0 -5.1,-2.2 -5.1,-5z" stroke-miterlimit="10" stroke-linejoin="round" stroke-width="3" stroke="#1B1C20" fill="none" clip-path="url(#SVGID_94_)" id="svg_16"/>
        <path d="m194.6,464.6l-9,0c-3,0 -5.4,-2.4 -5.4,-5.4c0,-3 2.4,-5.4 5.4,-5.4l43.2,0c3,0 5.4,2.4 5.4,5.4c0,1.4 -0.6,2.8 -1.6,3.8s-2.4,1.6 -3.8,1.6l-34.2,0" stroke-miterlimit="10" stroke-linejoin="round" stroke-linecap="round" stroke-width="3" stroke="#1B1C20" fill="none" clip-path="url(#SVGID_94_)" id="svg_17"/>
        <polyline points="        212.3,434.4 212.3,452.9 202.2,452.9 202.2,434.4 212.3,434.4       " stroke-miterlimit="10" stroke-linejoin="round" stroke-width="3" stroke="#1B1C20" fill="none" clip-path="url(#SVGID_94_)" id="svg_18"/>
        <path d="m246,399.1c-2.6,21.1 -21.2,36.5 -42.4,35.2s-37.8,-18.9 -37.8,-40.2c0,-21.3 16.5,-38.8 37.8,-40.2s39.8,14.1 42.4,35.2c0.5,3.4 0.5,6.7 0,10z" stroke-miterlimit="10" stroke-linejoin="round" stroke-linecap="round" stroke-width="3" stroke="#1B1C20" fill="none" clip-path="url(#SVGID_94_)" id="svg_19"/>
        <circle cx="206.1" cy="394.2" r="14.5" stroke-miterlimit="10" stroke-linejoin="round" stroke-linecap="round" stroke-width="3" stroke="#1B1C20" fill="none" clip-path="url(#SVGID_94_)" id="svg_20"/>
        <circle cx="206.1" cy="395" r="4.2" stroke-miterlimit="10" stroke-linejoin="round" stroke-linecap="round" stroke-width="3" stroke="#1B1C20" fill="none" clip-path="url(#SVGID_94_)" id="svg_21"/>
       </g>
       <g class="st13" clip-path="url(#SVGID_30_)" id="svg_22">
        <defs>
         <polygon id="SVGID_1184_" points="200.9,364.1 200.9,364.1 199,365.1 198.7,364 201.1,362.7 202.4,362.7 202.4,373.5          200.9,373.5        "/>
        </defs>
        <clipPath id="SVGID_96_">
         <use xlink:href="#SVGID_1184_" id="svg_23" xmlns:xlink="http://www.w3.org/1999/xlink"/>
        </clipPath>
        <g clip-path="url(#SVGID_96_)" id="svg_24">
         <defs>
          <rect id="SVGID_1186_" width="800" height="800"/>
         </defs>
         <clipPath id="SVGID_98_">
          <use xlink:href="#SVGID_1186_" id="svg_25" xmlns:xlink="http://www.w3.org/1999/xlink"/>
         </clipPath>
         <rect x="197.7" y="361.7" width="5.6" height="12.8" fill="#1B1C20" clip-path="url(#SVGID_98_)" id="svg_26"/>
        </g>
       </g>
       <g class="st13" clip-path="url(#SVGID_30_)" id="svg_27">
        <defs>
         <path id="SVGID_1188_" d="m207.6,368.2c0,2.8 0.9,4.4 2.2,4.4c1.5,0 2.2,-1.7 2.2,-4.5c0,-2.7 -0.7,-4.4 -2.2,-4.4c-1.3,0 -2.2,1.5 -2.2,4.5zm5.9,-0.2c0,3.7 -1.4,5.7 -3.8,5.7c-2.1,0 -3.5,-2 -3.6,-5.6c0,-3.6 1.6,-5.6 3.8,-5.6c2.3,0 3.6,2.1 3.6,5.5z"/>
        </defs>
        <clipPath id="SVGID_100_">
         <use xlink:href="#SVGID_1188_" id="svg_28" xmlns:xlink="http://www.w3.org/1999/xlink"/>
        </clipPath>
        <g clip-path="url(#SVGID_100_)" id="svg_29">
         <defs>
          <rect id="SVGID_1190_" width="800" height="800"/>
         </defs>
         <clipPath id="SVGID_102_">
          <use xlink:href="#SVGID_1190_" id="svg_30" xmlns:xlink="http://www.w3.org/1999/xlink"/>
         </clipPath>
         <rect x="205.1" y="361.5" width="9.3" height="13.2" fill="#1B1C20" clip-path="url(#SVGID_102_)" id="svg_31"/>
        </g>
       </g>
       <g class="st13" clip-path="url(#SVGID_30_)" id="svg_32">
        <defs>
         <polygon id="SVGID_1192_" points="200.9,417.3 200.9,417.3 199,418.3 198.7,417.2 201.1,415.9 202.4,415.9 202.4,426.7          200.9,426.7        "/>
        </defs>
        <clipPath id="SVGID_104_">
         <use xlink:href="#SVGID_1192_" id="svg_33" xmlns:xlink="http://www.w3.org/1999/xlink"/>
        </clipPath>
        <g clip-path="url(#SVGID_104_)" id="svg_34">
         <defs>
          <rect id="SVGID_1194_" width="800" height="800"/>
         </defs>
         <clipPath id="SVGID_106_">
          <use xlink:href="#SVGID_1194_" id="svg_35" xmlns:xlink="http://www.w3.org/1999/xlink"/>
         </clipPath>
         <rect x="197.7" y="414.9" width="5.6" height="12.8" fill="#1B1C20" clip-path="url(#SVGID_106_)" id="svg_36"/>
        </g>
       </g>
       <g class="st13" clip-path="url(#SVGID_30_)" id="svg_37">
        <defs>
         <path id="SVGID_1196_" d="m207.6,421.4c0,2.8 0.9,4.4 2.2,4.4c1.5,0 2.2,-1.7 2.2,-4.5c0,-2.7 -0.7,-4.4 -2.2,-4.4c-1.3,0 -2.2,1.5 -2.2,4.5zm5.9,-0.2c0,3.7 -1.4,5.7 -3.8,5.7c-2.1,0 -3.5,-2 -3.6,-5.6c0,-3.6 1.6,-5.6 3.8,-5.6c2.3,0 3.6,2.1 3.6,5.5z"/>
        </defs>
        <clipPath id="SVGID_108_">
         <use xlink:href="#SVGID_1196_" id="svg_38" xmlns:xlink="http://www.w3.org/1999/xlink"/>
        </clipPath>
        <g class="st54" clip-path="url(#SVGID_108_)" id="svg_39">
         <defs>
          <rect id="SVGID_1198_" width="800" height="800"/>
         </defs>
         <clipPath id="SVGID_110_">
          <use xlink:href="#SVGID_1198_" id="svg_40" xmlns:xlink="http://www.w3.org/1999/xlink"/>
         </clipPath>
         <rect x="205.1" y="414.7" width="9.3" height="13.2" fill="#1B1C20" clip-path="url(#SVGID_110_)" id="svg_41"/>
        </g>
       </g>
      </g>
     </g>
    </g>
   </g>
  </g>
 </g>
</svg>