<svg width="25" height="25" viewBox="0 0 25 25" fill="none" xmlns="http://www.w3.org/2000/svg">
<path d="M24.173 12.677C24.173 19.686 19.373 24.677 12.285 24.677C9.02694 24.677 5.90233 23.3828 3.59854 21.079C1.29474 18.7752 0.000488281 15.6506 0.000488281 12.3925C0.000488281 9.13447 1.29474 6.00986 3.59854 3.70607C5.90233 1.40228 9.02694 0.108023 12.285 0.108023C15.3436 0.0727923 18.2968 1.22528 20.523 3.32302L17.178 6.53502C12.8 2.31502 4.67099 5.48502 4.67099 12.39C4.65684 14.4264 5.44993 16.3854 6.8767 17.8384C8.30347 19.2914 10.2477 20.1201 12.284 20.143C17.148 20.143 18.971 16.656 19.258 14.843H12.284V10.627H23.984C24.1123 11.3028 24.1756 11.9892 24.173 12.677Z" fill="#DC4A39"/>
</svg>
