<svg xmlns="http://www.w3.org/2000/svg" xmlns:xlink="http://www.w3.org/1999/xlink" width="30" height="38" viewBox="-1 -1 30 38">
<defs>
    <radialGradient id="radial-gradient" cx="0.5" cy="0.5" r="0.688" gradientTransform="translate(0.2) scale(0.6 1)" gradientUnits="objectBoundingBox">
      <stop offset="0" stop-color="#ecab00"/>
      <stop offset="1" stop-color="#d89615"/>
    </radialGradient>
    <clipPath id="clip-path">
      <path id="Stroke_1" data-name="Stroke 1" d="M0,15.521A15.52,15.52,0,1,1,15.521,31.042,15.521,15.521,0,0,1,0,15.521Z" fill="none" stroke="black"  stroke-width="2%"/>
    </clipPath>
    <clipPath id="clip-Base_Menu">
      <rect width="459" height="127"/>
    </clipPath>
  </defs>
<g id="Group_2879" data-name="Group 2879" transform="translate(0 -3)" >
        <g id="Group_2865" data-name="Group 2865" transform="translate(0 6.163)">
          <path stroke-width="20" id="Path_502" data-name="Path 502" d="M2787.665,1058.784h-1.015v-5.454h5.771v1.015h-4.757Z" transform="translate(-2786.65 -1053.33)" fill="#1b1c20"/>
          <path stroke-width="20" id="Path_502_-_Outline" data-name="Path 502 - Outline" d="M2787.665,1059.034h-1.015a.25.25,0,0,1-.25-.25v-5.454a.25.25,0,0,1,.25-.25h5.771a.25.25,0,0,1,.25.25v1.015a.25.25,0,0,1-.25.25h-4.507v4.189A.25.25,0,0,1,2787.665,1059.034Zm-.765-.5h.515v-4.189a.25.25,0,0,1,.25-.25h4.507v-.515H2786.9Z" transform="translate(-2786.65 -1053.33)" fill="#1b1c20"/>
        </g>
        <g id="Group_2866" data-name="Group 2866" transform="translate(0 6.163)">
          <path stroke-width="20" id="Path_503" data-name="Path 503" d="M2816.1,1079.2H2786.65v-16.951h1.015v15.937h27.42v-23.84h-4.757v-1.015h5.772Z" transform="translate(-2786.65 -1053.33)" fill="#1b1c20"/>
          <path stroke-width="20" id="Path_503_-_Outline" data-name="Path 503 - Outline" d="M2816.1,1079.449H2786.65a.25.25,0,0,1-.25-.25v-16.951a.25.25,0,0,1,.25-.25h1.015a.25.25,0,0,1,.25.25v15.687h26.92v-23.34h-4.507a.25.25,0,0,1-.25-.25v-1.015a.25.25,0,0,1,.25-.25h5.772a.25.25,0,0,1,.25.25V1079.2A.25.25,0,0,1,2816.1,1079.449Zm-29.2-.5h28.949V1053.58h-5.272v.515h4.507a.25.25,0,0,1,.25.25v23.84a.25.25,0,0,1-.25.25h-27.42a.25.25,0,0,1-.25-.25V1062.5h-.515Z" transform="translate(-2786.65 -1053.33)" fill="#1b1c20"/>
        </g>
        <g id="Group_2867" data-name="Group 2867" transform="translate(6.495 15.571)">
          <path id="Path_504" data-name="Path 504" d="M2841.528,1125.444h-16.46v-16.46h16.46Zm-15.445-1.014h14.431V1110h-14.431Z" transform="translate(-2825.068 -1108.984)" fill="#1b1c20"/>
          <path id="Path_504_-_Outline" data-name="Path 504 - Outline" d="M2841.528,1125.694h-16.46a.25.25,0,0,1-.25-.25v-16.46a.25.25,0,0,1,.25-.25h16.46a.25.25,0,0,1,.25.25v16.46A.25.25,0,0,1,2841.528,1125.694Zm-16.21-.5h15.96v-15.96h-15.96Zm15.2-.514h-14.431a.25.25,0,0,1-.25-.25V1110a.25.25,0,0,1,.25-.25h14.431a.25.25,0,0,1,.25.25v14.431A.25.25,0,0,1,2840.514,1124.68Zm-14.181-.5h13.931v-13.931h-13.931Z" transform="translate(-2825.068 -1108.984)" fill="#1b1c20"/>
        </g>
        <g id="Group_2868" data-name="Group 2868" transform="translate(14.217 16.079)">
          <rect id="Rectangle_648" data-name="Rectangle 648" width="1.014" height="16.063" transform="translate(0 0)" fill="#1b1c20"/>
          <path id="Rectangle_648_-_Outline" data-name="Rectangle 648 - Outline" d="M0-.25H1.014a.25.25,0,0,1,.25.25V16.063a.25.25,0,0,1-.25.25H0a.25.25,0,0,1-.25-.25V0A.25.25,0,0,1,0-.25Zm.764.5H.25V15.813H.764Z" transform="translate(0 0)" fill="#1b1c20"/>
        </g>
        <g id="Group_2869" data-name="Group 2869" transform="translate(0.045 13.052)">
          <circle id="Ellipse_386" data-name="Ellipse 386" cx="0.462" cy="0.462" r="0.462" transform="translate(0 0)" fill="#1b1c20"/>
          <path id="Ellipse_386_-_Outline" data-name="Ellipse 386 - Outline" d="M.462-.25A.712.712,0,1,1-.25.462.713.713,0,0,1,.462-.25Zm0,.923A.212.212,0,1,0,.25.462.212.212,0,0,0,.462.673Z" transform="translate(0 0)" fill="#1b1c20"/>
        </g>
        <g id="Group_2870" data-name="Group 2870" transform="translate(5.264 3.126)">
          <path stroke-width="20" id="Path_505" data-name="Path 505" d="M2834.9,1026.787h-15.3a1.641,1.641,0,0,1-1.811-1.377v-7.159a1.641,1.641,0,0,1,1.811-1.377h15.3a1.641,1.641,0,0,1,1.811,1.377v7.159A1.641,1.641,0,0,1,2834.9,1026.787Zm-15.3-9.141a.722.722,0,0,0-.8.606v7.159a.722.722,0,0,0,.8.606h15.3a.722.722,0,0,0,.8-.606v-7.159a.721.721,0,0,0-.8-.606Z" transform="translate(-2817.79 -1016.875)" fill="#1b1c20"/>
          <path id="Path_505_-_Outline" data-name="Path 505 - Outline" d="M2834.9,1027.037h-15.3a1.885,1.885,0,0,1-2.061-1.627v-7.159a1.885,1.885,0,0,1,2.061-1.627h15.3a1.885,1.885,0,0,1,2.061,1.627v7.159A1.885,1.885,0,0,1,2834.9,1027.037Zm-15.3-9.912c-.861,0-1.561.505-1.561,1.127v7.159c0,.621.7,1.127,1.561,1.127h15.3c.861,0,1.561-.505,1.561-1.127v-7.159c0-.621-.7-1.127-1.561-1.127Zm15.3,9.141h-15.3a.967.967,0,0,1-1.047-.856v-7.159a.967.967,0,0,1,1.047-.856h15.3a.967.967,0,0,1,1.046.856v7.159A.967.967,0,0,1,2834.9,1026.266Zm-15.3-8.37c-.291,0-.547.166-.547.356v7.159c0,.189.255.356.547.356h15.3c.291,0,.546-.166.546-.356v-7.159c0-.189-.255-.356-.546-.356Z" transform="translate(-2817.79 -1016.875)" fill="#1b1c20"/>
        </g>
        <g id="Group_2874" data-name="Group 2874" transform="translate(8.588 5.775)">
          <g id="Group_2871" data-name="Group 2871" transform="translate(0 0)">
            <path id="Path_506" data-name="Path 506" d="M2845.773,1049.207h-.989a.228.228,0,1,0,0,.456h.435a.228.228,0,0,1,.229.227v.921a.224.224,0,0,1-.167.219,2.516,2.516,0,0,1-.588.059,1.609,1.609,0,0,1-1.694-1.771,1.641,1.641,0,0,1,1.765-1.765,2.429,2.429,0,0,1,.748.1.229.229,0,0,0,.291-.152l.008-.025a.229.229,0,0,0-.152-.283,3.087,3.087,0,0,0-.883-.122,2.2,2.2,0,0,0-2.377,2.268,2.062,2.062,0,0,0,2.254,2.214,4.034,4.034,0,0,0,1.187-.187.228.228,0,0,0,.161-.218v-1.718A.228.228,0,0,0,2845.773,1049.207Z" transform="translate(-2842.399 -1047.076)" fill="#1b1c20"/>
          </g>
          <g id="Group_2872" data-name="Group 2872" transform="translate(4.214 0.046)">
            <path id="Path_507" data-name="Path 507" d="M2866.531,1047.307h-.11a.225.225,0,0,0-.2.123l-.569,1.09c-.169.332-.318.618-.443.9h-.012c-.137-.306-.268-.572-.437-.9l-.555-1.088a.226.226,0,0,0-.2-.125h-.12a.227.227,0,0,0-.2.338l1.174,2.138a.228.228,0,0,1,.027.11v1.577a.229.229,0,0,0,.229.228h.117a.228.228,0,0,0,.228-.228v-1.579a.236.236,0,0,1,.03-.114l1.242-2.124A.229.229,0,0,0,2866.531,1047.307Z" transform="translate(-2863.653 -1047.307)" fill="#1b1c20"/>
          </g>
          <g id="Group_2873" data-name="Group 2873" transform="translate(7.824 0.046)">
            <path id="Path_508" data-name="Path 508" d="M2886.067,1047.521a.228.228,0,0,0-.227-.214h-.349a.231.231,0,0,0-.215.149l-.726,1.975c-.2.552-.352,1.035-.462,1.477h-.02c-.111-.455-.26-.937-.443-1.477l-.7-1.972a.23.23,0,0,0-.215-.152h-.35a.228.228,0,0,0-.227.213l-.274,3.934a.227.227,0,0,0,.227.244h.083a.229.229,0,0,0,.228-.213l.1-1.669c.04-.657.072-1.394.084-1.94h.014c.123.52.3,1.088.508,1.706l.657,1.936a.227.227,0,0,0,.217.155h.106a.228.228,0,0,0,.215-.151l.72-1.98c.223-.606.4-1.152.554-1.666h.02c-.008.546.032,1.283.064,1.894l.1,1.714a.229.229,0,0,0,.228.214h.1a.228.228,0,0,0,.227-.242Z" transform="translate(-2881.863 -1047.307)" fill="#1b1c20"/>
          </g>
        </g>
        <g id="Group_2877" data-name="Group 2877" transform="translate(3.102 6.67)">
          <rect id="Rectangle_651" data-name="Rectangle 651" width="1.014" height="14.398" transform="translate(0 0)" fill="#1b1c20"/>
          <path id="Rectangle_651_-_Outline" data-name="Rectangle 651 - Outline" d="M0-.25H1.014a.25.25,0,0,1,.25.25V14.4a.25.25,0,0,1-.25.25H0a.25.25,0,0,1-.25-.25V0A.25.25,0,0,1,0-.25Zm.764.5H.25v13.9H.764Z" transform="translate(0 0)" fill="#1b1c20"/>
        </g>
      </g>
</svg>
