<svg id="Layer_1" data-name="Layer 1" xmlns="http://www.w3.org/2000/svg" xmlns:xlink="http://www.w3.org/1999/xlink" viewBox="0 0 114.94 104.63"><defs>
<clipPath id="clip-path-11"><path class="cls-1" style="fill:none;" d="M83.58,36.45A13.53,13.53,0,1,1,70.05,50,13.53,13.53,0,0,1,83.58,36.45ZM25.07,25l.51,0L50.1,28.16c2.25.28,3.83,1.26,5,3.9,1.4,3.19,6,12.86,10.62,22.31l1.14,2.36c3,6.25,5.91,12.15,7.67,15.75-.53-.11-1.06-.23-1.61-.38A77.89,77.89,0,0,1,61,67.49a88.1,88.1,0,0,0-14.67-5.57,33.34,33.34,0,0,0-8.16-1,34.83,34.83,0,0,0-6.36.58q9.07-4.5,18.15-9h0l-.13-.3c-.92-2.22-4.27-10.53-5-12.29L24,37.26A6.18,6.18,0,1,1,25.58,25Zm13.1,38.83a29.83,29.83,0,0,1,7.46.91,86.68,86.68,0,0,1,14.2,5.41,79.24,79.24,0,0,0,12.35,4.77,26.87,26.87,0,0,0,12.29.4,18.44,18.44,0,0,0,10.31-5.85,14.74,14.74,0,0,0,1-1.31,3.84,3.84,0,0,1,6.4,4.23,21.77,21.77,0,0,1-2.23,2.84,26.41,26.41,0,0,1-13.8,7.58,31.27,31.27,0,0,1-6.86.76,40.72,40.72,0,0,1-14.69-3.07c-2-.75-3.9-1.62-5.84-2.52L55.24,76.3c-5.44-2.53-11-4.84-17.06-4.84a25.25,25.25,0,0,0-7.89,1.28,21.74,21.74,0,0,0-10.8,7.68A3.87,3.87,0,0,1,16.87,82a2.74,2.74,0,0,1-.5,0,3.77,3.77,0,0,1-2.23-.72A3.86,3.86,0,0,1,13,76.44a3.5,3.5,0,0,1,.29-.49,27.52,27.52,0,0,1,6.53-6.43,31.07,31.07,0,0,1,8.08-4A32.61,32.61,0,0,1,38.17,63.79Z"/></clipPath></defs>
<g class="cls-3" style="clip-path:url(#clip-path);">
<g class="cls-4" style="clip-path:url(#clip-path-2);"><g class="cls-5" style="clip-path:url(#clip-path-3);"></g></g></g><g class="cls-6" style="clip-path:url(#clip-path-4);">
<g class="cls-4" style="clip-path:url(#clip-path-2);">
<g class="cls-7" style="clip-path:url(#clip-path-6);"></g></g></g>
<g class="cls-12" style="clip-path:url(#clip-path-11);">
<g class="cls-13" style="clip-path:url(#clip-path-12);"><g class="cls-14" style="isolation:isolate;"><g class="cls-15" style="clip-path:url(#clip-path-13);"><g class="cls-15" style="clip-path:url(#clip-path-13);"><rect class="cls-16" style="fill:#0f2054;" x="5.85" y="18.04" width="103.71" height="70.25"/></g><g class="cls-17" style="clip-path:url(#clip-path-15);"><rect class="cls-16" style="fill:#0f2054;" x="9.19" y="18.04" width="97.02" height="70.25"/></g></g></g></g></g></svg>