<svg id="Layer_1" data-name="Layer 1" xmlns="http://www.w3.org/2000/svg" xmlns:xlink="http://www.w3.org/1999/xlink" viewBox="0 0 131.51 130.95">
<defs>
<clipPath id="clip-path-13"><path class="cls-1" style="fill:none;" d="M50.54,83.12l-7-7A2,2,0,0,0,40.66,79l7,7a10.13,10.13,0,1,1,2.86-2.86Zm13,4.54H55.08L53.45,86a14.17,14.17,0,1,0-2.87,2.87l2.23,2.23a2,2,0,0,0,1.43.59h9.32a2,2,0,1,0,0-4Zm28.36,4A6.08,6.08,0,1,1,98,85.63,6.09,6.09,0,0,1,91.92,91.71Zm0-16.2a10.13,10.13,0,1,0,10.13,10.12A10.13,10.13,0,0,0,91.92,75.51Zm21.47,32.4H21.84a2,2,0,1,1,0-4h91.55a2,2,0,0,1,0,4ZM19.81,77.53a22.28,22.28,0,0,1,29.74-21h0l57.77,19.67a12.18,12.18,0,0,1,8.06,11.45c0,6.36-6.36,12-13.36,12l-62.84,0A22.3,22.3,0,0,1,19.81,77.53Zm21.6-26.32a26.76,26.76,0,0,0-4.1.43l-3.6-13.81h4.22ZM25.22,33.78A5.41,5.41,0,0,1,25.2,23c.83,0-.18-.08,24.13,3.94a3.46,3.46,0,0,1-.57,6.87Zm64.24,0h4.13L87.48,65.16l-3.86-1.31Zm-1.59-8.1H100a2,2,0,0,0,2-2V14.33a2,2,0,0,1,4,0v9.32A6.09,6.09,0,0,1,100,29.73H87.76a2,2,0,0,1,.11-4Zm25.52,74.13h-.09a15.88,15.88,0,0,0,6.17-12.15,16.23,16.23,0,0,0-10.78-15.27h0l-17.31-5.9,6.37-32.7H100a10.14,10.14,0,0,0,10.13-10.13V14.33a6.08,6.08,0,0,0-12.15,0v7.3H87.87a6.07,6.07,0,0,0-2.44,11.63L79.74,62.53,50.9,52.71a26.18,26.18,0,0,0-5.24-1.27L42.12,37.83h6.64A7.51,7.51,0,0,0,50,22.92c-24.7-4.07-23.4-4-24.8-4a9.46,9.46,0,0,0,0,18.92h4.3l3.87,14.84a26.34,26.34,0,0,0-5.34,47.14H21.84a6.08,6.08,0,1,0,0,12.15h91.55a6.08,6.08,0,1,0,0-12.15ZM71.66,87.66a2,2,0,1,0,2,2A2,2,0,0,0,71.66,87.66Z"/></clipPath>
<clipPath id="clip-path-14"><rect class="cls-1" style="fill:none;" x="-573.03" y="-2310.09" width="1431.82" height="3101.16"/></clipPath>
<clipPath id="clip-path-15"><rect class="cls-1" style="fill:none;" x="15.76" y="8.26" width="103.71" height="103.71"/></clipPath></defs>
<g class="cls-14" style="clip-path:url(#clip-path-13);"><g class="cls-15" style="clip-path:url(#clip-path-14)">
<g class="cls-16" style="isolation:isolate;"><g class="cls-17" style="clip-path:url(#clip-path-15);"><g class="cls-17" style="clip-path:url(#clip-path-15);"><rect class="cls-18" style="{fill:#0f2054;}" x="12.41" y="4.91" width="110.4" height="110.4"/><rect class="cls-18" style="{fill:#0f2054;}" x="12.41" y="4.91" width="110.4" height="110.4"/></g></g></g></g></g></svg>