<svg id="Layer_1" data-name="Layer 1" xmlns="http://www.w3.org/2000/svg" xmlns:xlink="http://www.w3.org/1999/xlink" viewBox="0 0 140.35 151.01"><defs>
<clipPath id="clip-path"><rect class="cls-1" style="fill:none;" x="-898.48" y="-675.66" width="186" height="276" rx="8"/></clipPath>
<clipPath id="clip-path-2"><rect class="cls-1" style="fill:none;" x="-700.48" y="-675.66" width="186" height="276" rx="8"/></clipPath>
<clipPath id="clip-path-3"><path class="cls-2" style="clip-rule:evenodd;fill:none;" d="M211.05-228.82l-8.86-28.35-28.36-7,63.8-28.52Zm30.34-67.59a5.33,5.33,0,0,0-5.89-1l-63.79,28.52a5.31,5.31,0,0,0-3.12,5.33,5.32,5.32,0,0,0,4,4.68l25.4,6.25,8,25.44a5.31,5.31,0,0,0,4.84,3.72h.25a5.32,5.32,0,0,0,4.91-3.26l26.58-63.78A5.33,5.33,0,0,0,241.39-296.41Z"/></clipPath>
<clipPath id="clip-path-4"><path class="cls-1" style="fill:none;" d="M-440.7-293.1a10.8,10.8,0,0,1-10.78-10.78,10.79,10.79,0,0,1,10.78-10.78,10.79,10.79,0,0,1,10.79,10.78A10.8,10.8,0,0,1-440.7-293.1Zm0-25.88a15.11,15.11,0,0,0-15.09,15.1,15.11,15.11,0,0,0,15.09,15.09,15.11,15.11,0,0,0,15.1-15.09A15.11,15.11,0,0,0-440.7-319Zm49.63,75.07a4.3,4.3,0,0,1-5.21.68c-.48-.29-7.52-4.77-12-7.24a30.78,30.78,0,0,1-7.75-6.1l-5.28-5.75v-17a4.15,4.15,0,0,1,1.17,1.26s8.7,14.38,10.77,17.82a2.15,2.15,0,0,0,.88.81c3.34,1.67,14.94,8.07,17.11,9.17A4.31,4.31,0,0,1-391.07-243.91Zm-13.3,19.14a6.25,6.25,0,0,1,3.2,3.79,6.25,6.25,0,0,1-.58,4.91,6.28,6.28,0,0,1-5.57,3.18h-35.53v-8.63h10.78a2.16,2.16,0,0,0,2.16-2.15,2.16,2.16,0,0,0-2.16-2.16h-23.72a8.64,8.64,0,0,0-8.62,8.63,8.53,8.53,0,0,0,1.16,4.31h-10.82a6.27,6.27,0,0,1-5.63-3.27,6.21,6.21,0,0,1-.5-4.88,6.24,6.24,0,0,1,3.18-3.74l19.58-9.67h33.49Zm-42.79,11.88h-8.63a4.32,4.32,0,0,1-4.31-4.31,4.32,4.32,0,0,1,4.31-4.32h8.63Zm-18.16-43.75v0a31.15,31.15,0,0,1-7.8,6.15c-4.41,2.44-11.54,7-12,7.23a4.3,4.3,0,0,1-5.22-.67,4.32,4.32,0,0,1,.28-6.36c2.2-1.11,13.75-7.49,17.11-9.17a2.09,2.09,0,0,0,.88-.81l10.77-17.82a4.47,4.47,0,0,1,1.18-1.27v17Zm9.53-23.55h4.31v6.48a10.78,10.78,0,0,0,10.78,10.78,10.79,10.79,0,0,0,10.79-10.78v-6.47h4.31v41.4h-30.19Zm8.63,0h12.93v6.47a6.47,6.47,0,0,1-6.47,6.47,6.46,6.46,0,0,1-6.46-6.47Zm58.29,26.38S-403.11-261.54-406-263l-10.45-17.29a8.66,8.66,0,0,0-6.63-4.13,2.18,2.18,0,0,0-.55,0l-34.33,0h-.24A8.68,8.68,0,0,0-465-280.3s-7.92,13.12-10.45,17.29c-4,2.06-15.43,8.35-16.72,9a2.45,2.45,0,0,0-.38.24,8.63,8.63,0,0,0-.85,12.94,8.61,8.61,0,0,0,10.46,1.34c.36-.21,7.49-4.75,11.87-7.18a35.2,35.2,0,0,0,8.9-7l2-2.22v18l-18.83,9.31a10.56,10.56,0,0,0-5.39,6.32,10.54,10.54,0,0,0,.86,8.26,10.62,10.62,0,0,0,9.39,5.48h66.75a10.63,10.63,0,0,0,9.3-5.32,10.56,10.56,0,0,0,1-8.33,10.59,10.59,0,0,0-5.42-6.41l-18.83-9.31v-18l2.1,2.29a35.18,35.18,0,0,0,8.83,7c4.4,2.44,11.51,7,11.88,7.18A8.62,8.62,0,0,0-388-240.86,8.63,8.63,0,0,0-388.87-253.8Zm-33.05,28.6a2.16,2.16,0,0,0-3.05,0,2.16,2.16,0,0,0,0,3,2.14,2.14,0,0,0,3.05,0A2.16,2.16,0,0,0-421.92-225.2Z"/></clipPath>
<clipPath id="clip-path-5"><path class="cls-2" style="clip-rule:evenodd;fill:none;" d="M-404.46,36.92-410,22.25h-78.2l-5.5,14.67a7.91,7.91,0,0,0-5.16,7.67V56.78c0,4.49,3.18,8.13,7.11,8.13h4.2L-481,136h64l6.47-71.08h4.2c3.92,0,7.1-3.64,7.1-8.13V44.59A7.9,7.9,0,0,0-404.46,36.92Zm-80.14-7.56h71.09l2.37,7.11H-487Zm60.42,99.53h-49.76l-1.58-14.22h52.93Zm2.37-21.33h-54.5l-2.37-21.33h59.24Zm3.16-28.44h-60.82L-481,64.91h64Zm-73.06-21.33h85.31V43.58h-85.31Z"/></clipPath>
<clipPath id="clip-path-6"><path class="cls-1" style="fill:none;" d="M-440.8-504.28A10.77,10.77,0,0,1-430-493.51a10.77,10.77,0,0,1-10.77,10.77,10.77,10.77,0,0,1-10.77-10.77A10.77,10.77,0,0,1-440.8-504.28Zm21.21,23.58h-5.77l5.15,5.88C-420-477.26-420.07-476.13-419.59-480.7Zm-36.63,0H-462c.26,2.42.37,3.44.63,5.88Zm-23.87-17.48a1.72,1.72,0,0,1,1.73,1.73v9.21h6a4.81,4.81,0,0,1,4.27-5.22,4.81,4.81,0,0,1,5.27,4.26l.1,1h8.28a15,15,0,0,0,13.6,8.71,15,15,0,0,0,13.59-8.71h8.31l.1-1a4.81,4.81,0,0,1,5.28-4.26,4.79,4.79,0,0,1,4.26,5.22h6v-9.21a1.72,1.72,0,0,1,1.73-1.73h4.71a1.73,1.73,0,0,1,1.73,1.73v9.21h2.75A3.28,3.28,0,0,1-389-484a3.28,3.28,0,0,1-3.27,3.27h-2.75v9.21a1.73,1.73,0,0,1-1.73,1.73h-4.71a1.72,1.72,0,0,1-1.73-1.73v-9.21h-6.71c-.21,1.95-1.67,15.77-1.89,17.82a4.8,4.8,0,0,1-8.38,2.65l-6.89-7.88v18.46l17.59,7.14a6.25,6.25,0,0,1,3.81,4.84l3.48,22.81a6.24,6.24,0,0,1-5.22,7.11,6.24,6.24,0,0,1-7.11-5.23l-2.94-19.31-16.14-6.55h-14.32l-16.14,6.55L-467-413a6.24,6.24,0,0,1-7.11,5.23,6.23,6.23,0,0,1-5.22-7.11l3.47-22.81a6.28,6.28,0,0,1,3.82-4.84l17.45-7.08v-18.36l-6.75,7.72a4.8,4.8,0,0,1-8.38-2.65c-.21-2.05-1.68-15.87-1.88-17.82h-6.73v9.21a1.72,1.72,0,0,1-1.73,1.73h-4.71a1.72,1.72,0,0,1-1.73-1.73v-9.21h-2.75a3.27,3.27,0,0,1-3.27-3.27,3.27,3.27,0,0,1,3.27-3.27h2.75v-9.21a1.72,1.72,0,0,1,1.73-1.73Z"/></clipPath>
<clipPath id="clip-path-7"><path class="cls-1" style="fill:none;" d="M-304.56-412.06a16.8,16.8,0,0,1-16.59-16.59,16.8,16.8,0,0,1,16.59-16.59A16.8,16.8,0,0,1-288-428.65,16.79,16.79,0,0,1-304.56-412.06Zm0-40.29a23.47,23.47,0,0,0-23.7,23.7,23.47,23.47,0,0,0,23.7,23.7,23.47,23.47,0,0,0,23.7-23.7A23.47,23.47,0,0,0-304.56-452.35Zm46.45-9.47h19.9v-8.53h-15.16l-9-15.64a7.8,7.8,0,0,0-7.11-3.8,7.88,7.88,0,0,0-5.69,2.37l-17.53,17.54a7.86,7.86,0,0,0-2.37,5.69,8.37,8.37,0,0,0,3.79,7.11l16.11,9.47v23.7h8.54v-30.8l-10.43-8.06,10.9-10.9Zm19.9,49.76a16.8,16.8,0,0,1-16.59-16.59,16.8,16.8,0,0,1,16.59-16.59,16.8,16.8,0,0,1,16.59,16.59A16.79,16.79,0,0,1-238.21-412.06Zm0-40.29a23.47,23.47,0,0,0-23.7,23.7,23.47,23.47,0,0,0,23.7,23.7,23.47,23.47,0,0,0,23.7-23.7A23.47,23.47,0,0,0-238.21-452.35Zm-14.22-34.12A8.49,8.49,0,0,0-243.9-495a8.49,8.49,0,0,0-8.53-8.53A8.49,8.49,0,0,0-261-495,8.49,8.49,0,0,0-252.43-486.47Z"/></clipPath>
<clipPath id="clip-path-8"><path class="cls-1" style="fill:none;" d="M-83.63-467.83A13.53,13.53,0,0,1-70.1-454.3a13.53,13.53,0,0,1-13.53,13.53A13.52,13.52,0,0,1-97.15-454.3,13.52,13.52,0,0,1-83.63-467.83Zm-58.5-11.49.5,0,24.53,3.15a5.75,5.75,0,0,1,5,3.91c1.39,3.19,6,12.85,10.62,22.31l1.14,2.35c3,6.25,5.91,12.16,7.66,15.75-.52-.1-1-.23-1.6-.37a77.89,77.89,0,0,1-11.89-4.61,88.1,88.1,0,0,0-14.67-5.57,32.92,32.92,0,0,0-8.16-1,35.65,35.65,0,0,0-6.36.57l18.15-9h0l-.13-.3c-.92-2.22-4.27-10.53-5-12.29L-143.2-467a6.19,6.19,0,0,1-5.35-6.91,6.19,6.19,0,0,1,6.92-5.34Zm13.1,38.83a29.75,29.75,0,0,1,7.45.91,86.87,86.87,0,0,1,14.2,5.4A79.09,79.09,0,0,0-95-429.4a27.06,27.06,0,0,0,12.3.4,18.39,18.39,0,0,0,10.3-5.86,12,12,0,0,0,1-1.3,3.85,3.85,0,0,1,3.21-1.72,3.72,3.72,0,0,1,2.1.64A3.83,3.83,0,0,1-65-431.93a22.35,22.35,0,0,1-2.24,2.84,26.41,26.41,0,0,1-13.79,7.58,31.27,31.27,0,0,1-6.86.76,40.93,40.93,0,0,1-14.69-3.07c-2-.75-3.9-1.62-5.84-2.52L-112-428c-5.44-2.53-11-4.84-17.06-4.84a25.25,25.25,0,0,0-7.89,1.28,21.81,21.81,0,0,0-10.81,7.68,3.82,3.82,0,0,1-2.61,1.56,2.81,2.81,0,0,1-.5,0,3.8,3.8,0,0,1-2.24-.72,3.87,3.87,0,0,1-1.19-4.86c.09-.17.19-.33.3-.5a27.67,27.67,0,0,1,6.53-6.42,31.09,31.09,0,0,1,8.08-4.06A32.88,32.88,0,0,1-129-440.49Z"/></clipPath>
<clipPath id="clip-path-9"><path class="cls-1" style="fill:none;" d="M30.66-434.8l-7-7a2,2,0,0,0-2.86,0,2,2,0,0,0,0,2.86l7,7a10.06,10.06,0,0,1-5.58,1.68,10.14,10.14,0,0,1-10.13-10.13,10.14,10.14,0,0,1,10.13-10.13,10.15,10.15,0,0,1,10.13,10.13A10.09,10.09,0,0,1,30.66-434.8Zm13,4.54H35.2l-1.64-1.64a14,14,0,0,0,2.83-8.49,14.19,14.19,0,0,0-14.18-14.18A14.19,14.19,0,0,0,8-440.39a14.19,14.19,0,0,0,14.18,14.18A14.08,14.08,0,0,0,30.7-429l2.23,2.23a2,2,0,0,0,1.43.59h9.32a2,2,0,0,0,2-2A2,2,0,0,0,43.68-430.26ZM72-426.21A6.09,6.09,0,0,1,66-432.29,6.08,6.08,0,0,1,72-438.36a6.07,6.07,0,0,1,6.07,6.07A6.08,6.08,0,0,1,72-426.21Zm0-16.21a10.14,10.14,0,0,0-10.13,10.13A10.14,10.14,0,0,0,72-422.16a10.13,10.13,0,0,0,10.12-10.13A10.14,10.14,0,0,0,72-442.42ZM93.51-410H2a2,2,0,0,1-2-2,2,2,0,0,1,2-2H93.51a2,2,0,0,1,2,2A2,2,0,0,1,93.51-410ZM-.07-440.39a22.29,22.29,0,0,1,16.55-21.54,22.4,22.4,0,0,1,13.19.54h0l57.76,19.67a12.17,12.17,0,0,1,8.07,11.45c0,6.36-6.37,11.95-13.36,11.95l-62.85,0A22.3,22.3,0,0,1-.07-440.39Zm21.6-26.32a25.57,25.57,0,0,0-4.1.43l-3.61-13.81h4.23ZM5.33-484.14a5.41,5.41,0,0,1-5.4-5.41A5.41,5.41,0,0,1,5.32-495c.83,0-.19-.07,24.13,3.95a3.46,3.46,0,0,1,2.89,3.41,3.44,3.44,0,0,1-1,2.45,3.43,3.43,0,0,1-2.44,1Zm64.25,0h4.13L67.6-452.76l-3.87-1.31ZM68-492.24H80.14a2,2,0,0,0,2-2v-9.32a2,2,0,0,1,2-2,2,2,0,0,1,2,2v9.32a6.09,6.09,0,0,1-6.08,6.08H67.88a2,2,0,0,1-1.92-2A2,2,0,0,1,68-492.24Zm25.52,74.13h-.09a15.87,15.87,0,0,0,6.16-12.15,16.26,16.26,0,0,0-10.77-15.28h0l-17.31-5.9,6.37-32.7h2.3a10.14,10.14,0,0,0,10.13-10.13v-9.32a6.08,6.08,0,0,0-6.08-6.07,6.08,6.08,0,0,0-6.08,6.07v7.3H68a6.08,6.08,0,0,0-6.08,6.07,6.09,6.09,0,0,0,3.64,5.56l-5.69,29.27L31-465.21a26.35,26.35,0,0,0-5.24-1.27l-3.55-13.61h6.65a7.47,7.47,0,0,0,5.31-2.2,7.45,7.45,0,0,0,2.2-5.31,7.48,7.48,0,0,0-6.28-7.4c-24.69-4.07-23.39-4-24.79-4a9.46,9.46,0,0,0-9.44,9.46,9.46,9.46,0,0,0,9.45,9.46H9.64l3.87,14.84A26.35,26.35,0,0,0-4.12-440.39,26.37,26.37,0,0,0,8.17-418.11H2A6.08,6.08,0,0,0-4.12-412,6.07,6.07,0,0,0,2-406H93.51A6.07,6.07,0,0,0,99.58-412,6.08,6.08,0,0,0,93.51-418.11ZM51.78-430.26a2,2,0,0,0-2,2,2,2,0,0,0,2,2,2,2,0,0,0,2-2A2,2,0,0,0,51.78-430.26Z"/></clipPath>
<clipPath id="clip-path-10"><path class="cls-1" style="fill:none;" d="M-296.29,21.14c1.47,7.64,4.46,23.91,4.46,31.22,0,17.84-13.38,22.3-13.38,22.3v58c0,1.46-3,4.46-4.46,4.46-5.92,0-8.92-3-8.92-4.46v-58S-332,70.2-332,52.36c0-7.31,3-23.58,4.46-31.22,3.37,0,4.46,1.09,4.46,4.46V47.9c0,3.17,1.29,4.46,4.46,4.46-.11,0,1.12-1.1,0-4.46q5.4-26.76,4.46-26.76,4.56.93,4.46,0h0l4.46,26.76c-1.05,3.16,0,4.32,0,4.45,3.16,0,4.45-1.28,4.45-4.45V25.6C-300.75,22.23-299.65,21.14-296.29,21.14Zm49.07,0-.37,6.17.37-1.71V132.65c0,1.46-3,4.46-4.46,4.46-5.92,0-8.92-3-8.92-4.46V88.81l.13-.64-4.59-4.59c-3.4-3.71-4.46-6.62-4.46-8.92V65.74c0-23.55,14.24-40.14,13.54-40.14C-256.44,25.6-253.53,24.11-247.22,21.14Z"/></clipPath>
<clipPath id="clip-path-11"><polygon class="cls-2" style="clip-rule:evenodd;fill:none;" points="-157.87 99.19 -158.01 98.14 -133.43 95.41 -98.31 79.12 -97.79 80.07 -133.09 96.44 -133.19 96.45 -157.87 99.19"/></clipPath>
<clipPath id="clip-path-12"><polygon class="cls-2" style="clip-rule:evenodd;fill:none;" points="-147.75 119.27 -147.97 118.03 -120.67 111.97 -91.75 89.16 -91.1 90.19 -120.22 113.15 -147.75 119.27"/></clipPath>
<clipPath id="clip-path-13"><polygon class="cls-2" style="clip-rule:evenodd;fill:none;" points="-141.25 82.47 -141.34 82.47 -161.36 82.03 -161.33 80.95 -141.41 81.39 -98.13 69.09 -97.79 70.12 -141.25 82.47"/></clipPath>
<clipPath id="clip-path-14"><polygon class="cls-2" style="clip-rule:evenodd;fill:none;" points="-159.32 49.02 -161.36 47.45 -160.04 45.67 -158.01 47.23 -159.32 49.02"/></clipPath>
<clipPath id="clip-path-15"><path class="cls-2" style="clip-rule:evenodd;fill:none;" d="M-157.48,55.71l-.53-.51.7-1.19.21.2,1.94-.06,0,1.48Zm4.95-.16,0-1.48,2.61-.08,0,1.48Zm5.22-.16,0-1.48,2.6-.09,0,1.49Zm5.21-.16,0-1.49,2.61-.08,0,1.48Zm5.21-.17,0-1.48,2.61-.08,0,1.48Zm5.21-.16,0-1.48,2.6-.08,0,1.48Zm5.22-.16,0-1.49,2.6-.08,0,1.49Zm5.21-.16,0-1.49,2.61-.08,0,1.48Zm5.21-.17,0-1.48,2.61-.08,0,1.48Zm5.21-.16,0-1.48,2.6-.08,0,1.48Zm5.22-.16,0-1.49,2.6-.08,0,1.49Zm5.21-.17,0-1.48,2.61-.08,0,1.48Z"/></clipPath>
<clipPath id="clip-path-16"><polygon class="cls-2" style="clip-rule:evenodd;fill:none;" points="-93.05 55.71 -93.09 54.38 -94.4 54.41 -94.45 52.44 -91.21 52.36 -91.1 55.64 -93.05 55.71"/></clipPath>
<clipPath id="clip-path-17"><path class="cls-2" style="clip-rule:evenodd;fill:none;" d="M-82,95.85l-1.48-2.1.95-.64,1.47,2.1Zm-3-4.2-1.47-2.1,1-.64L-84,91Zm-3-4.19-1.47-2.1.94-.65,1.48,2.1Zm-3-4.2-1.47-2.1.94-.64,1.48,2.1Zm-2.84-4.57-.08-2.55,1.15,0,.08,2.55Zm-.16-5.1L-93.95,71l1.15,0,.08,2.55Zm-.17-5.1-.08-2.55,1.15,0,.08,2.55Zm-.16-5.1-.08-2.55,1.15,0,.08,2.54Zm-.17-5.1-.08-2.55,1.15,0,.08,2.55Z"/></clipPath>
<clipPath id="clip-path-18"><polygon class="cls-2" style="clip-rule:evenodd;fill:none;" points="-76.74 99.19 -77.72 98.01 -76.78 97.46 -77.43 96.67 -76.01 95.85 -74.38 97.83 -76.74 99.19"/></clipPath>
<clipPath id="clip-path-19"><path class="cls-2" style="clip-rule:evenodd;fill:none;" d="M-131,129.3l-.22-1.18,2.61-.52.21,1.19Zm5.21-1-.22-1.18,2.61-.52.21,1.19Zm5.21-1-.22-1.18,2.61-.52.21,1.19Zm5.21-1-.22-1.18,2.52-.5.06.35.45.68-.18.13Zm5-2.24-.66-1,2.18-1.58.66,1Zm4.36-3.17-.66-1,2.18-1.59.65,1Zm4.35-3.17-.65-1,2.18-1.59.65,1Zm4.36-3.17-.65-1,2.18-1.59.65,1Zm4.36-3.17-.65-1,2.18-1.59.65,1Zm4.36-3.18-.65-1,2.18-1.58.65,1Zm4.36-3.17-.65-1,2.18-1.58.65,1Zm4.36-3.17-.65-1,2.18-1.58.65,1Z"/></clipPath>
<clipPath id="clip-path-20"><polygon class="cls-2" style="clip-rule:evenodd;fill:none;" points="-137.47 129.47 -137.94 129.2 -135.06 129.14 -134.59 129.41 -137.47 129.47"/></clipPath>
<clipPath id="clip-path-21"><path class="cls-2" style="clip-rule:evenodd;fill:none;" d="M-142.95,127.61h0a1.88,1.88,0,0,1,1.61-2.1l21.62-2.48a1.92,1.92,0,0,0,.83-.32l28.8-20.36a2,2,0,0,0,.56-2.53l-9.36-16.77a1.86,1.86,0,0,1-.24-.8l-1.38-17.46a1.85,1.85,0,0,0-1.92-1.74l-53.48,2.86a1.76,1.76,0,0,1-1.15-.35L-160.59,63A2,2,0,0,1-161,60.3h0a1.78,1.78,0,0,1,2.55-.45l2.49,1.84a1.76,1.76,0,0,0,1.15.35l55.75-3a1.86,1.86,0,0,1,1.92,1.75l1.6,20.28a2,2,0,0,0,.25.8L-84.66,101a2,2,0,0,1-.55,2.53l-32.38,22.89a1.92,1.92,0,0,1-.83.32l-22.52,2.58a1.84,1.84,0,0,1-2-1.68"/></clipPath>
<clipPath id="clip-path-22"><polygon class="cls-2" style="clip-rule:evenodd;fill:none;" points="-72.31 99.19 -74.04 98.4 -57.98 65.24 -39.71 55.16 -43.52 35.84 -59.88 31.01 -86.58 51.28 -87.76 49.81 -60.27 28.94 -41.86 34.38 -37.58 56.12 -56.51 66.57 -72.31 99.19"/></clipPath>
<clipPath id="clip-path-23"><path class="cls-2" style="clip-rule:evenodd;fill:none;" d="M-109.08,42.32l-1.9-.17,1.16-11-7.39-7-18.25,2.57L-160.3,42.32l-1.06-1.5,24.12-15.13a6,6,0,0,1,2.37-.86l18.33-2.58,8.71,8.23Z"/></clipPath>
<clipPath id="clip-path-24"><path class="cls-2" style="clip-rule:evenodd;fill:none;" d="M-40.88,57.36-43.7,39a2,2,0,0,0-1.15-1.6L-56.47,33a2.21,2.21,0,0,1-1.11-2.59A1.65,1.65,0,0,1-55.5,29L-42,34.15a2,2,0,0,1,1.15,1.6l3.2,20.83A2.08,2.08,0,0,1-38.93,59c-.9.22-1.77-.52-2-1.65"/></clipPath>
<clipPath id="clip-path-25"><path class="cls-2" style="clip-rule:evenodd;fill:none;" d="M-110.61,42.32l-1.18-.12a1.08,1.08,0,0,1-1-1.16l1.29-10.73a1,1,0,0,0-.33-.86l-5.65-5.08a1,1,0,0,1,0-1.5,2.56,2.56,0,0,1,3.34,0l6,5.41a1,1,0,0,1,.33.86l-1.48,12.24a1.15,1.15,0,0,1-1.29.94"/></clipPath>
<clipPath id="clip-path-26"><polygon class="cls-2" style="clip-rule:evenodd;fill:none;" points="79.47 51.66 89.55 62.4 73.85 45.67 66.13 53.89 74.51 56.94 79.47 51.66"/></clipPath>
<clipPath id="clip-path-27"><rect class="cls-1" style="fill:none;" x="-592.91" y="-2828.01" width="1431.82" height="3101.16"/></clipPath>
<clipPath id="clip-path-28"><path class="cls-2" style="clip-rule:evenodd;fill:none;" d="M40.73,100.61l-5.1-5.14L38.05,93a35.06,35.06,0,0,1-1-8.1V82L26.63,92.45a4.29,4.29,0,0,0,0,6l24,24.15a4.22,4.22,0,0,0,6,0l3.72-3.75-5.88-3.3a34.2,34.2,0,0,1-13.74-15"/></clipPath>
<clipPath id="clip-path-30"><polygon class="cls-2" style="clip-rule:evenodd;fill:none;" points="95.99 63.64 99.63 67.3 95.99 70.95 95.99 83.03 105.63 73.33 95.99 63.64"/></clipPath>
<clipPath id="clip-path-32"><rect class="cls-1" style="fill:none;" x="12.6" y="117.61" width="19.03" height="25.08"/></clipPath>
<clipPath id="clip-path-33"><rect class="cls-1" style="fill:none;" x="12.6" y="115.92" width="20.07" height="30.11"/></clipPath>
<clipPath id="clip-path-34"><polygon class="cls-2" style="clip-rule:evenodd;fill:none;" points="12.6 130.72 12.71 142.69 31.63 123.65 25.63 117.61 12.6 130.72"/></clipPath>
<clipPath id="clip-path-35"><rect class="cls-1" style="fill:none;" x="12.6" y="115.92" width="20.07" height="26.76"/></clipPath>
<clipPath id="clip-path-36"><polygon class="cls-2" style="clip-rule:evenodd;fill:none;" points="80.28 74.69 80.12 74.85 80.28 74.99 80.28 74.69"/></clipPath>
<clipPath id="clip-path-38"><polygon class="cls-2" style="clip-rule:evenodd;fill:none;" points="21.63 113.58 25.63 117.61 27.63 115.6 33.63 121.64 31.63 123.65 35.63 127.67 46.18 117.06 32.18 102.97 21.63 113.58"/></clipPath>
<clipPath id="clip-path-40"><polygon class="cls-2" style="clip-rule:evenodd;fill:none;" points="27.63 115.6 25.63 117.61 31.63 123.65 33.63 121.64 27.63 115.6"/></clipPath>
<clipPath id="clip-path-42"><polygon class="cls-2" style="clip-rule:evenodd;fill:none;" points="113.62 29.06 93.63 49.18 99.63 55.22 119.63 35.1 113.62 29.06"/></clipPath><clipPath id="clip-path-44"><rect class="cls-1" style="fill:none;" x="106.21" y="15.56" width="26.83" height="27"/></clipPath>
<clipPath id="clip-path-45"><rect class="cls-1" style="fill:none;" x="102.93" y="12.22" width="30.11" height="33.45"/></clipPath>
<clipPath id="clip-path-46"><path class="cls-2" style="clip-rule:evenodd;fill:none;" d="M120.62,34.09h0a1.43,1.43,0,0,0,0,2l6,6a1.4,1.4,0,0,0,2,0l4-4a1.41,1.41,0,0,0,0-2L112.62,16a1.4,1.4,0,0,0-2,0l-4,4a1.41,1.41,0,0,0,0,2l6,6a1.4,1.4,0,0,0,2,0h0a1.42,1.42,0,0,1,2,0l4,4a1.41,1.41,0,0,1,0,2"/></clipPath>
<clipPath id="clip-path-48"><polygon class="cls-2" style="clip-rule:evenodd;fill:none;" points="121.62 33.08 115.63 27.05 113.62 29.06 119.62 35.1 121.62 33.08"/></clipPath>
<clipPath id="clip-path-50"><path class="cls-2" style="clip-rule:evenodd;fill:none;" d="M84.63,40.13l-9-9.06-6,6,6,6,3-3a4.22,4.22,0,0,1,6,0"/></clipPath>
<clipPath id="clip-path-52"><path class="cls-2" style="clip-rule:evenodd;fill:none;" d="M108.62,70.32l-3,3,6,6,6-6-9-9a4.29,4.29,0,0,1,0,6"/></clipPath>
<clipPath id="clip-path-54"><path class="cls-2" style="clip-rule:evenodd;fill:none;" d="M108.62,64.28l-9-9.06-2,2-6-6,2-2-9-9a4.22,4.22,0,0,0-6,0l-3,3L96,63.64l.06,0,.47.48,9.11,9.16,3-3a4.29,4.29,0,0,0,0-6"/></clipPath>
<clipPath id="clip-path-56"><polygon class="cls-2" style="clip-rule:evenodd;fill:none;" points="91.63 51.2 97.63 57.23 99.63 55.22 93.63 49.18 91.63 51.2"/></clipPath>
<clipPath id="clip-path-58"><polygon class="cls-2" style="clip-rule:evenodd;fill:none;" points="65.51 94.33 55.72 83.3 60.12 79.35 65.51 85.43 73.95 75.92 78.34 79.87 65.51 94.33"/></clipPath>
<clipPath id="clip-path-60"><path class="cls-2" style="clip-rule:evenodd;fill:none;" d="M66.53,116.7l-9.67-5.42C48,106.29,42,95.71,42,84.94V64.79l24.55-8.43,24.55,8.43V84.94c0,10.77-6,21.35-14.88,26.34ZM47.87,69V84.94c0,8.55,4.87,17.24,11.85,21.15l6.81,3.82,6.81-3.82c7-3.91,11.85-12.6,11.85-21.15V69l-18.66-6.4Z"/></clipPath></defs>
<g class="cls-28" style="clip-path:url(#clip-path-26);">
<g class="cls-29" style="clip-path:url(#clip-path-27);">
<rect class="cls-30" style="fill:#0f2054;" x="62.78" y="42.32" width="30.11" height="23.42"/></g></g>
<g class="cls-31" style="clip-path:url(#clip-path-28);">
<g class="cls-29" style="clip-path:url(#clip-path-27);">
<rect class="cls-30" style="fill:#0f2054;" x="21.63" y="78.6" width="42.07" height="49.05"/></g></g>
<g class="cls-32" style="clip-path:url(#clip-path-30);">
<g class="cls-29" style="clip-path:url(#clip-path-27);">
<rect class="cls-30" style="fill:#0f2054;" x="92.65" y="60.3" width="16.32" height="26.08"/></g></g>
<g class="cls-33" style="clip-path:url(#clip-path-32);">
<g class="cls-34" style="isolation:isolate;">
<g class="cls-35" style="clip-path:url(#clip-path-33);">
<g class="cls-36" style="clip-path:url(#clip-path-34);">
<g class="cls-37" style="clip-path:url(#clip-path-35);">
<rect class="cls-30" style="fill:#0f2054;" x="9.26" y="114.26" width="25.72" height="31.77"/></g></g></g></g></g>
<g class="cls-38" style="clip-path:url(#clip-path-36);">
<g class="cls-29" style="clip-path:url(#clip-path-27);">
<rect class="cls-30" style="fill:#0f2054;" x="76.78" y="71.34" width="6.85" height="6.99"/></g></g>
<g class="cls-39" style="clip-path:url(#clip-path-38);">
<g class="cls-29" style="clip-path:url(#clip-path-27);">
<rect class="cls-30" style="fill:#0f2054;" x="18.29" y="99.62" width="31.24" height="31.39"/></g></g>
<g class="cls-40" style="clip-path:url(#clip-path-40);">
<g class="cls-29" style="clip-path:url(#clip-path-27);">
<rect class="cls-30" style="fill:#0f2054;" x="22.28" y="112.25" width="14.69" height="14.74"/></g></g>
<g class="cls-41" style="clip-path:url(#clip-path-42);">
<g class="cls-29" style="clip-path:url(#clip-path-27);">
<rect class="cls-30" style="fill:#0f2054;" x="90.28" y="25.71" width="32.69" height="32.85"/></g></g>
<g class="cls-42" style="clip-path:url(#clip-path-44);">
<g class="cls-34" style="isolation:isolate;">
<g class="cls-43" style="clip-path:url(#clip-path-45);">
<g class="cls-44" style="clip-path:url(#clip-path-46);">
<g class="cls-43" style="clip-path:url(#clip-path-45);">
<rect class="cls-30" style="fill:#0f2054;" x="102.73" y="12.08" width="33.65" height="33.97"/></g></g></g></g></g>
<g class="cls-45" style="clip-path:url(#clip-path-48);">
<g class="cls-29" style="clip-path:url(#clip-path-27);">
<rect class="cls-30" style="fill:#0f2054;" x="110.28" y="23.7" width="14.69" height="14.74"/></g></g>
<g class="cls-46" style="clip-path:url(#clip-path-50);">
<g class="cls-29" style="clip-path:url(#clip-path-27);">
<rect class="cls-30" style="fill:#0f2054;" x="66.28" y="27.73" width="21.69" height="18.77"/></g></g>
<g class="cls-47" style="clip-path:url(#clip-path-52);">
<g class="cls-29" style="clip-path:url(#clip-path-27);">
<rect class="cls-30" style="fill:#0f2054;" x="102.28" y="60.93" width="18.69" height="21.79"/></g></g>
<g class="cls-48" style="clip-path:url(#clip-path-54);">
<g class="cls-29" style="clip-path:url(#clip-path-27);">
<rect class="cls-30" style="fill:#0f2054;" x="72.28" y="35.11" width="41.35" height="41.57"/></g></g>
<g class="cls-49" style="clip-path:url(#clip-path-56);">
<g class="cls-29" style="clip-path:url(#clip-path-27);">
<rect class="cls-30" style="fill:#0f2054;" x="88.28" y="45.84" width="14.69" height="14.74"/></g></g>
<g class="cls-50" style="clip-path:url(#clip-path-58);">
<g class="cls-29" style="clip-path:url(#clip-path-27);">
<rect class="cls-30" style="fill:#0f2054;" x="52.38" y="72.58" width="29.31" height="25.1"/></g></g>
<g class="cls-51" style="clip-path:url(#clip-path-60);">
<g class="cls-29" style="clip-path:url(#clip-path-27);">
<rect class="cls-30" style="fill:#0f2054;" x="38.63" y="53.02" width="55.79" height="67.02"/></g></g></svg>