<svg id="Layer_1" data-name="Layer 1" xmlns="http://www.w3.org/2000/svg" xmlns:xlink="http://www.w3.org/1999/xlink" viewBox="0 0 168.71 140.24"><defs>
<clipPath id="clip-path-12"><path class="cls-2" style="fill:none;clip-rule:evenodd;" d="M48.13,129.63,41.27,114.3a1,1,0,0,0-1.28-.48l-.47.21a1,1,0,0,1-1.31-.59l-4.59-15a1,1,0,0,0-1.28-.62l-.74.29a1,1,0,0,1-1.27-.6L24.42,78.77a.89.89,0,0,1,0-.56l.58-2A1,1,0,0,0,24.13,75l-2.67-.12a1,1,0,0,1-.91-1.07l4.37-39.76a1,1,0,0,1,1.32-.79l8.23,3.39a1,1,0,0,0,.38.08L105,35.78a1,1,0,0,1,1,.95l.64,34.55a1,1,0,0,0,.21.57l17.22,22a1,1,0,0,1-.24,1.41L74.89,126.8a1.12,1.12,0,0,1-.4.14L49.13,130.2a1,1,0,0,1-1-.57M43.2,109.18l7.27,16.26a1,1,0,0,0,1,.56l21.67-2.78a1,1,0,0,0,.4-.15l44.62-28.75a1,1,0,0,0,.24-1.41L103,73.22a1,1,0,0,1-.21-.58l-.59-32a1,1,0,0,0-1-.94l-67.11.9a1,1,0,0,1-.38-.07l-4.22-1.74a1,1,0,0,0-1.32.78L24.83,70.14a1,1,0,0,0,.91,1.07l3.49.16a1,1,0,0,1,.88,1.24l-1.66,5.56a.92.92,0,0,0,0,.57l4.31,13.63A1,1,0,0,0,34,93l.78-.31a1,1,0,0,1,1.27.62L40.6,108.1a1,1,0,0,0,1.32.59,1,1,0,0,1,1.28.49"/></clipPath><clipPath id="clip-path-14"><polygon class="cls-2" style="fill:none;clip-rule:evenodd;" points="30.72 93.41 30.58 92.35 55.16 89.62 90.27 73.33 90.8 74.28 55.51 90.65 55.4 90.66 30.72 93.41"/></clipPath>
<clipPath id="clip-path-15"><rect class="cls-1" style="fill:none;" x="-404.32" y="-2833.8" width="1431.82" height="3101.16"/></clipPath>
<clipPath id="clip-path-16"><polygon class="cls-2" style="fill:none;clip-rule:evenodd;" points="40.84 113.48 40.62 112.24 67.92 106.18 96.83 83.37 97.49 84.4 68.38 107.36 40.84 113.48"/></clipPath>
<clipPath id="clip-path-18"><polygon class="cls-2" style="fill:none;clip-rule:evenodd;" points="47.34 76.68 47.25 76.68 27.23 76.24 27.26 75.17 47.19 75.6 90.46 63.3 90.8 64.33 47.34 76.68"/></clipPath>
<clipPath id="clip-path-20"><polygon class="cls-2" style="fill:none;clip-rule:evenodd;" points="29.27 43.22 27.23 41.66 28.55 39.88 30.58 41.44 29.27 43.22"/></clipPath>
<clipPath id="clip-path-22"><path class="cls-2" style="fill:none;clip-rule:evenodd;" d="M31.11,49.91l-.53-.51.7-1.18.21.2,1.94-.06,0,1.48Zm5-.15,0-1.48,2.61-.08,0,1.48Zm5.22-.16,0-1.48,2.6-.09,0,1.49Zm5.21-.16,0-1.49,2.61-.08,0,1.48Zm5.21-.17,0-1.48,2.61-.08,0,1.48Zm5.21-.16,0-1.48,2.6-.08,0,1.48ZM62.13,49l0-1.49,2.6-.08,0,1.49Zm5.21-.17,0-1.48,2.61-.08,0,1.48Zm5.21-.16,0-1.48,2.61-.08,0,1.48Zm5.21-.16,0-1.48,2.6-.09,0,1.49ZM83,48.3l0-1.49,2.6-.08,0,1.48Zm5.21-.17,0-1.48,2.61-.08,0,1.48Z"/></clipPath>
<clipPath id="clip-path-24"><polygon class="cls-2" style="fill:none;clip-rule:evenodd;" points="95.54 49.91 95.5 48.59 94.19 48.62 94.14 46.65 97.38 46.57 97.49 49.85 95.54 49.91"/></clipPath>
<clipPath id="clip-path-26"><path class="cls-2" style="fill:none;clip-rule:evenodd;" d="M106.58,90.06,105.1,88l1-.64,1.47,2.1Zm-3-4.2-1.47-2.1.95-.64,1.47,2.1Zm-3-4.19-1.47-2.1.94-.65,1.48,2.1Zm-3-4.2-1.48-2.1,1-.64,1.48,2.09ZM94.88,72.9l-.08-2.55,1.15,0L96,72.86Zm-.16-5.1-.08-2.55,1.15,0,.08,2.55Zm-.17-5.1-.08-2.55,1.15,0,.08,2.55Zm-.16-5.1-.08-2.55,1.15,0,.08,2.55Zm-.17-5.1L94.14,50l1.15,0,.08,2.55Z"/></clipPath>
<clipPath id="clip-path-28"><polygon class="cls-2" style="fill:none;clip-rule:evenodd;" points="111.85 93.41 110.87 92.22 111.81 91.67 111.16 90.88 112.58 90.06 114.21 92.04 111.85 93.41"/></clipPath>
<clipPath id="clip-path-30"><path class="cls-2" style="fill:none;clip-rule:evenodd;" d="M57.56,123.51l-.22-1.18,2.61-.52.21,1.19Zm5.21-1-.22-1.18,2.61-.52.21,1.19Zm5.21-1-.22-1.18,2.61-.52.21,1.18Zm5.21-1L73,119.24l2.52-.5.06.35.45.68-.18.13Zm5-2.24-.66-1,2.18-1.58.66,1ZM82.54,115l-.66-1,2.18-1.59.65,1Zm4.35-3.17-.65-1,2.18-1.59.65,1Zm4.36-3.17-.65-1,2.18-1.59.65,1Zm4.36-3.17-.65-1,2.18-1.59.65,1Zm4.36-3.18-.65-1,2.18-1.58.65,1Zm4.36-3.17-.65-1,2.18-1.58.65,1ZM108.69,96,108,95l2.18-1.59.65,1Z"/></clipPath>
<clipPath id="clip-path-32"><polygon class="cls-2" style="fill:none;clip-rule:evenodd;" points="51.12 123.68 50.65 123.41 53.53 123.35 54 123.62 51.12 123.68"/></clipPath>
<clipPath id="clip-path-34"><path class="cls-2" style="fill:none;clip-rule:evenodd;" d="M45.64,121.82h0a1.88,1.88,0,0,1,1.61-2.1l21.62-2.49a1.79,1.79,0,0,0,.83-.31L98.5,96.56A2,2,0,0,0,99.06,94L89.7,77.26a1.86,1.86,0,0,1-.24-.8L88.08,59a1.86,1.86,0,0,0-1.92-1.75L32.68,60.12a1.76,1.76,0,0,1-1.15-.35L28,57.16a2,2,0,0,1-.43-2.65h0a1.78,1.78,0,0,1,2.55-.45l2.49,1.84a1.76,1.76,0,0,0,1.15.35l55.75-3A1.86,1.86,0,0,1,91.43,55L93,75.29a2.19,2.19,0,0,0,.24.8l10.66,19.09a2,2,0,0,1-.55,2.53L71,120.6a1.92,1.92,0,0,1-.83.32L47.65,123.5a1.84,1.84,0,0,1-2-1.68"/></clipPath>
<clipPath id="clip-path-36"><polygon class="cls-2" style="fill:none;clip-rule:evenodd;" points="116.28 93.41 114.55 92.61 130.61 59.45 148.88 49.37 145.07 30.05 128.72 25.22 102.01 45.49 100.83 44.02 128.32 23.15 146.73 28.59 151.01 50.33 132.08 60.78 116.28 93.41"/></clipPath>
<clipPath id="clip-path-38"><path class="cls-2" style="fill:none;clip-rule:evenodd;" d="M79.51,36.53l-1.9-.17,1.16-11-7.39-7L53.13,20.94,28.29,36.53,27.23,35,51.35,19.9A6,6,0,0,1,53.72,19l18.33-2.58,8.71,8.23Z"/></clipPath>
<clipPath id="clip-path-40"><path class="cls-2" style="fill:none;clip-rule:evenodd;" d="M147.71,51.57,144.89,33.2a2,2,0,0,0-1.15-1.59l-11.62-4.39A2.21,2.21,0,0,1,131,24.63a1.65,1.65,0,0,1,2.08-1.39l13.54,5.12A2,2,0,0,1,147.78,30L151,50.79a2.08,2.08,0,0,1-1.32,2.43c-.9.22-1.77-.52-1.95-1.65"/></clipPath>
<clipPath id="clip-path-42"><path class="cls-2" style="fill:none;clip-rule:evenodd;" d="M78,36.53l-1.18-.12a1.08,1.08,0,0,1-1-1.16l1.29-10.73a1,1,0,0,0-.33-.86l-5.65-5.09a1,1,0,0,1,0-1.49,2.55,2.55,0,0,1,3.34,0l6,5.41a1,1,0,0,1,.33.86L79.27,35.59a1.15,1.15,0,0,1-1.29.94"/></clipPath>
<clipPath id="clip-path-44"><polygon class="cls-2" style="fill:none;clip-rule:evenodd;" points="268.06 45.87 278.14 56.61 262.44 39.88 254.72 48.1 263.1 51.15 268.06 45.87"/></clipPath></defs>
<g class="cls-12" style="clip-path:url(#clip-path-10);">
<g class="cls-13" style="isolation:isolate;">
<g class="cls-12" style="clip-path:url(#clip-path-10);">
<g class="cls-14" style="clip-path:url(#clip-path-12);">
<g class="cls-12" style="clip-path:url(#clip-path-10);">
<rect class="cls-15" style="fill:#0f2054;" x="17.2" y="29.84" width="110.4" height="103.71"/></g></g></g></g></g>
<g class="cls-16" style="clip-path:url(#clip-path-14);">
<g class="cls-17" style="clip-path:url(#clip-path-15);">
<rect class="cls-15" style="fill:#0f2054;" x="27.23" y="69.99" width="66.91" height="26.76"/></g></g>
<g class="cls-18" style="clip-path:url(#clip-path-16);">
<g class="cls-17" style="clip-path:url(#clip-path-15);">
<rect class="cls-15" style="fill:#0f2054;" x="37.27" y="80.02" width="63.56" height="36.8"/></g></g>
<g class="cls-19" style="clip-path:url(#clip-path-18);">
<g class="cls-17" style="clip-path:url(#clip-path-15);">
<rect class="cls-15" style="fill:#0f2054;" x="23.89" y="59.95" width="70.25" height="20.07"/></g></g>
<g class="cls-20" style="clip-path:url(#clip-path-20);">
<g class="cls-17" style="clip-path:url(#clip-path-15);">
<rect class="cls-15" style="fill:#0f2054;" x="23.89" y="36.53" width="10.04" height="10.04"/></g></g><g class="cls-21" style="clip-path:url(#clip-path-22);">
<g class="cls-17" style="clip-path:url(#clip-path-15);">
<rect class="cls-15" style="fill:#0f2054;" x="27.23" y="43.22" width="66.91" height="10.04"/></g></g>
<g class="cls-22" style="clip-path:url(#clip-path-24);">
<g class="cls-17" style="clip-path:url(#clip-path-15);">
<rect class="cls-15" style="fill:#0f2054;" x="90.8" y="43.22" width="10.04" height="10.04"/></g></g>
<g class="cls-23" style="clip-path:url(#clip-path-26);">
<g class="cls-17" style="clip-path:url(#clip-path-15);">
<rect class="cls-15" style="fill:#0f2054;" x="90.8" y="46.57" width="20.07" height="46.84"/></g></g>
<g class="cls-24" style="clip-path:url(#clip-path-28);">
<g class="cls-17" style="clip-path:url(#clip-path-15);">
<rect class="cls-15" style="fill:#0f2054;" x="107.52" y="86.71" width="10.04" height="10.04"/></g></g>
<g class="cls-25" style="clip-path:url(#clip-path-30);">
<g class="cls-17" style="clip-path:url(#clip-path-15);">
<rect class="cls-15" style="fill:#0f2054;" x="54" y="90.06" width="60.22" height="36.8"/></g></g>
<g class="cls-26" style="clip-path:url(#clip-path-32);">
<g class="cls-17" style="clip-path:url(#clip-path-15);">
<rect class="cls-15" style="fill:#0f2054;" x="47.31" y="120" width="10.04" height="7.03"/></g></g>
<g class="cls-27" style="clip-path:url(#clip-path-34);">
<g class="cls-17" style="clip-path:url(#clip-path-15);">
<rect class="cls-15" style="fill:#0f2054;" x="23.64" y="49.86" width="84.12" height="77.1"/></g></g>
<g class="cls-28" style="clip-path:url(#clip-path-36);">
<g class="cls-17" style="clip-path:url(#clip-path-15);">
<rect class="cls-15" style="fill:#0f2054;" x="97.49" y="19.81" width="56.87" height="76.94"/></g></g>
<g class="cls-29" style="clip-path:url(#clip-path-38);">
<g class="cls-17" style="clip-path:url(#clip-path-15);">
<rect class="cls-15" style="fill:#0f2054;" x="23.89" y="13.12" width="60.22" height="26.76"/></g></g>
<g class="cls-30" style="clip-path:url(#clip-path-40);">
<g class="cls-17" style="clip-path:url(#clip-path-15);">
<rect class="cls-15" style="fill:#0f2054;" x="127.4" y="19.56" width="27.1" height="37.22"/></g></g>
<g class="cls-31" style="clip-path:url(#clip-path-42);">
<g class="cls-17" style="clip-path:url(#clip-path-15);">
<rect class="cls-15" style="fill:#0f2054;" x="67.26" y="12.91" width="16.87" height="27.03"/></g></g></svg>