<svg id="Layer_1" data-name="Layer 1" xmlns="http://www.w3.org/2000/svg" xmlns:xlink="http://www.w3.org/1999/xlink" viewBox="0 0 134.76 151.01"><defs>
<clipPath id="clip-path"><rect class="cls-1" style="fill:none;" x="-384" y="-675.66" width="186" height="276" rx="8"/></clipPath>
<clipPath id="clip-path-2"><rect class="cls-1" style="fill:none;" x="-186" y="-675.66" width="186" height="276" rx="8"/></clipPath>
<clipPath id="clip-path-4"><path class="cls-2" style="fill:none;clip-rule:evenodd;" d="M110,36.92l-5.5-14.67H26.32l-5.5,14.67a7.9,7.9,0,0,0-5.16,7.67V56.78c0,4.49,3.18,8.13,7.11,8.13H27L33.43,136h64l6.46-71.08h4.21c3.92,0,7.1-3.64,7.1-8.13V44.59A7.9,7.9,0,0,0,110,36.92ZM29.88,29.36H101l2.36,7.11H27.51ZM90.3,128.89H40.54L39,114.67H91.88Zm2.37-21.33H38.17L35.8,86.23H95Zm3.16-28.44H35L33.43,64.91h64ZM22.77,57.79h85.31V43.58H22.77Z"/></clipPath>
<clipPath id="clip-path-5"><rect class="cls-1" style="fill:none;" x="-78.43" y="-2828.01" width="1431.82" height="3101.16"/></clipPath>
<clipPath id="clip-path-6"><rect class="cls-1" style="fill:none;" x="15.24" y="22.25" width="100.36" height="113.74"/></clipPath></defs>
<g class="cls-6" style="clip-path:url(#clip-path-4);"><g class="cls-7" style="clip-path:url(#clip-path-5);"><g class="cls-8" style="isolation:isolate;"><g class="cls-9" style="clip-path:url(#clip-path-6);"><g class="cls-9" style="clip-path:url(#clip-path-6);"><rect class="cls-10" style="fill:#0f2054;}" x="11.89" y="18.91" width="107.05" height="120.43"/><rect class="cls-10" style="fill:#0f2054;}" x="11.89" y="18.91" width="107.05" height="120.43"/></g></g></g></g></g></svg>