<svg id="Layer_1" data-name="Layer 1" xmlns="http://www.w3.org/2000/svg" xmlns:xlink="http://www.w3.org/1999/xlink" viewBox="0 0 114.31 151.01"><defs>
<clipPath id="clip-path-10"><path class="cls-1" style="fill:none;" d="M47.91,21.14c1.46,7.64,4.46,23.91,4.46,31.22C52.37,70.2,39,74.66,39,74.66v58c0,1.46-3,4.46-4.46,4.46-5.93,0-8.93-3-8.93-4.46v-58S12.22,70.2,12.22,52.36c0-7.31,3-23.58,4.46-31.22,3.37,0,4.46,1.09,4.46,4.46V47.9c0,3.17,1.29,4.46,4.46,4.46-.11,0,1.12-1.1,0-4.46Q31,21.14,30.07,21.14c3,.62,4.52.62,4.46,0h0L39,47.9c-1.05,3.16,0,4.32,0,4.45,3.17,0,4.46-1.28,4.46-4.45V25.6C43.45,22.23,44.54,21.14,47.91,21.14Zm49.06,0-.36,6.17L97,25.6V132.65c0,1.46-3,4.46-4.46,4.46-5.92,0-8.92-3-8.92-4.46V88.81l.13-.64-4.59-4.59c-3.39-3.71-4.46-6.62-4.46-8.92V65.74c0-23.55,14.25-40.14,13.55-40.14Q87.52,25.6,97,21.14Z"/></clipPath></defs>
<g class="cls-11" style="clip-path:url(#clip-path-9)">
<rect class="cls-12" style="fill:#0f2054;opacity:0;" x="-17.89" y="8.87" width="140.51" height="140.51"/></g>
<g class="cls-13" style="clip-path:url(#clip-path-10);">
<g class="cls-14" style="clip-path:url(#clip-path-11);">
<g class="cls-15" style="isolation:isolate;">
<g class="cls-16" style="clip-path:url(#clip-path-12);"><g class="cls-16" style="clip-path:url(#clip-path-12);"><rect class="cls-17" style="fill:#0f2054;" x="8.88" y="15.56" width="93.67" height="127.12"/></g></g></g></g></g></svg>