<svg id="Layer_1" data-name="Layer 1" xmlns="http://www.w3.org/2000/svg" xmlns:xlink="http://www.w3.org/1999/xlink" viewBox="0 0 120.59 110.01"><defs>
<clipPath id="clip-path-2"><rect class="cls-1" style="fill:none;" x="-186" y="-675.66" width="186" height="276" rx="8"/></clipPath>
<clipPath id="clip-path-3"><path class="cls-2" style="clip-rule:evenodd;fill:none;" d="M211.05-228.82l-8.86-28.35-28.36-7,63.8-28.52Zm30.34-67.59a5.33,5.33,0,0,0-5.89-1l-63.79,28.52a5.31,5.31,0,0,0-3.12,5.33,5.32,5.32,0,0,0,4,4.68l25.4,6.25,8,25.44a5.31,5.31,0,0,0,4.84,3.72h.25a5.32,5.32,0,0,0,4.91-3.26l26.58-63.78A5.33,5.33,0,0,0,241.39-296.41Z"/></clipPath>
<clipPath id="clip-path-9"><path class="cls-1" style="fill:none;" d="M59.5,5.38A10.77,10.77,0,1,1,48.73,16.15,10.78,10.78,0,0,1,59.5,5.38ZM80.72,29H75l5.14,5.89C80.35,32.4,80.23,33.53,80.72,29ZM44.09,29H38.32c.26,2.42.37,3.44.62,5.89ZM20.22,11.48a1.72,1.72,0,0,1,1.72,1.73v9.22h6a4.79,4.79,0,0,1,9.54-1l.1,1h8.28a15,15,0,0,0,27.19,0h8.31l.1-1a4.79,4.79,0,0,1,9.54,1h6V13.21a1.72,1.72,0,0,1,1.72-1.73h4.72a1.72,1.72,0,0,1,1.72,1.73v9.22H108A3.27,3.27,0,0,1,108,29h-2.76v9.22a1.72,1.72,0,0,1-1.72,1.72H98.8a1.72,1.72,0,0,1-1.72-1.72V29H90.36c-.2,1.95-1.67,15.78-1.88,17.82a4.8,4.8,0,0,1-8.38,2.65l-6.89-7.88V60l17.58,7.14A6.24,6.24,0,0,1,94.61,72l3.48,22.82a6.24,6.24,0,0,1-12.33,1.88l-3-19.31L66.68,70.82H52.35L36.22,77.38,33.27,96.69a6.24,6.24,0,0,1-12.33-1.88L24.42,72a6.24,6.24,0,0,1,3.82-4.84l17.44-7.08V41.72l-6.74,7.71a4.8,4.8,0,0,1-8.38-2.65c-.22-2.05-1.68-15.87-1.88-17.82H22v9.22a1.73,1.73,0,0,1-1.73,1.72H15.5a1.72,1.72,0,0,1-1.72-1.72V29H11a3.27,3.27,0,1,1,0-6.53h2.75V13.21a1.72,1.72,0,0,1,1.72-1.73Z"/></clipPath>
</defs><g class="cls-3" style="clip-path:url(#clip-path);">
<g class="cls-4" style="clip-path:url(#clip-path-2);">
<g class="cls-5" style="clip-path:url(#clip-path-3);">
</g></g></g>
<g class="cls-6" style="clip-path:url(#clip-path-4);">
<g class="cls-4" style="clip-path:url(#clip-path-2);">
<g class="cls-7" style="clip-path:url(#clip-path-6);">
</g></g></g>
<g class="cls-10" style="clip-path:url(#clip-path-9);">
<g class="cls-11" style="clip-path:url(#clip-path-10);">
<g class="cls-12" style="isolation:isolate;">
<g class="cls-13" style="clip-path:url(#clip-path-11);"><g class="cls-13" style="clip-path:url(#clip-path-11);">
<rect class="cls-14" style="fill:#0f2054;" x="4.41" width="110.4" height="107.05"/><rect class="cls-14" style="fill:#0f2054;" x="4.41" width="110.4" height="107.05"/></g></g></g></g></g></svg>