<svg id="Layer_1" data-name="Layer 1" xmlns="http://www.w3.org/2000/svg" xmlns:xlink="http://www.w3.org/1999/xlink" viewBox="0 0 103.82 98.26"><defs><style>.cls-1,.cls-2{fill:none;}.cls-2{clip-rule:evenodd;}.cls-3{clip-path:url(#clip-path);}.cls-4{clip-path:url(#clip-path-2);}.cls-5{clip-path:url(#clip-path-3);}.cls-6{clip-path:url(#clip-path-4);}.cls-7{clip-path:url(#clip-path-5);}.cls-8{fill:#ea132a;}.cls-9{clip-path:url(#clip-path-6);}.cls-10{clip-path:url(#clip-path-7);}.cls-11{clip-path:url(#clip-path-8);}.cls-12{clip-path:url(#clip-path-9);}.cls-13{clip-path:url(#clip-path-10);}.cls-14{clip-path:url(#clip-path-11);}.cls-15{clip-path:url(#clip-path-12);}.cls-16{clip-path:url(#clip-path-13);}.cls-17{clip-path:url(#clip-path-14);}.cls-18{clip-path:url(#clip-path-15);}.cls-19{clip-path:url(#clip-path-16);}.cls-20{clip-path:url(#clip-path-17);}.cls-21{clip-path:url(#clip-path-18);}.cls-22{clip-path:url(#clip-path-19);}.cls-23{clip-path:url(#clip-path-20);}.cls-24{clip-path:url(#clip-path-21);}.cls-25{clip-path:url(#clip-path-22);}.cls-26{clip-path:url(#clip-path-23);}.cls-27{clip-path:url(#clip-path-24);}.cls-28{clip-path:url(#clip-path-25);}.cls-29{clip-path:url(#clip-path-26);}.cls-30{clip-path:url(#clip-path-27);}.cls-31{clip-path:url(#clip-path-28);}.cls-32{clip-path:url(#clip-path-29);}.cls-33{clip-path:url(#clip-path-30);}.cls-34{clip-path:url(#clip-path-31);}.cls-35{clip-path:url(#clip-path-32);}.cls-36{clip-path:url(#clip-path-33);}.cls-37{clip-path:url(#clip-path-34);}.cls-38{clip-path:url(#clip-path-35);}.cls-39{clip-path:url(#clip-path-36);}.cls-40{clip-path:url(#clip-path-37);}.cls-41{clip-path:url(#clip-path-38);}.cls-42{clip-path:url(#clip-path-39);}.cls-43{clip-path:url(#clip-path-40);}.cls-44{clip-path:url(#clip-path-41);}</style><clipPath id="clip-path"><rect class="cls-1" x="-856.38" y="-364.5" width="186" height="276" rx="8"/></clipPath><clipPath id="clip-path-2"><rect class="cls-1" x="-1265.38" y="-431.82" width="428" height="927"/></clipPath><clipPath id="clip-path-3"><rect class="cls-1" x="-856.38" y="-364.5" width="900" height="600"/></clipPath><clipPath id="clip-path-4"><path class="cls-2" d="M55.14,82.33,46.28,54,17.93,47,81.73,18.5ZM85.48,14.74a5.31,5.31,0,0,0-5.88-1L15.8,42.22a5.31,5.31,0,0,0,.91,10L42.1,58.49l8,25.44a5.32,5.32,0,0,0,4.83,3.72h.25a5.33,5.33,0,0,0,4.91-3.26L86.65,20.61A5.32,5.32,0,0,0,85.48,14.74Z"/></clipPath><clipPath id="clip-path-5"><rect class="cls-1" x="-126.86" y="-1874.95" width="1990.5" height="4311.19"/></clipPath><clipPath id="clip-path-6"><path class="cls-1" d="M-596.6,18.05A10.79,10.79,0,0,1-607.38,7.27,10.8,10.8,0,0,1-596.6-3.51,10.8,10.8,0,0,1-585.82,7.27,10.79,10.79,0,0,1-596.6,18.05Zm0-25.87A15.11,15.11,0,0,0-611.69,7.27,15.11,15.11,0,0,0-596.6,22.36,15.11,15.11,0,0,0-581.51,7.27,15.11,15.11,0,0,0-596.6-7.82ZM-547,67.24a4.27,4.27,0,0,1-5.2.68c-.48-.29-7.53-4.76-12-7.24a30.5,30.5,0,0,1-7.74-6.1l-5.28-5.74v-17A4.32,4.32,0,0,1-576,33.09l10.77,17.81a2.15,2.15,0,0,0,.88.81c3.34,1.67,14.93,8.07,17.11,9.17A4.31,4.31,0,0,1-547,67.24Zm-13.29,19.14a6.2,6.2,0,0,1,3.19,3.79,6.23,6.23,0,0,1-.57,4.92,6.29,6.29,0,0,1-5.57,3.17h-35.54V89.64H-588a2.16,2.16,0,0,0,2.16-2.16A2.16,2.16,0,0,0-588,85.32h-23.71A8.64,8.64,0,0,0-620.32,94a8.63,8.63,0,0,0,1.16,4.31H-630A6.26,6.26,0,0,1-635.6,95a6.25,6.25,0,0,1-.51-4.88,6.29,6.29,0,0,1,3.18-3.73l19.58-9.68h33.5Zm-42.8,11.88h-8.62A4.32,4.32,0,0,1-616,94a4.32,4.32,0,0,1,4.32-4.31h8.62Zm-18.15-43.75,0,0A30.92,30.92,0,0,1-629,60.68c-4.41,2.45-11.54,7-12,7.24a4.3,4.3,0,0,1-5.22-.68,4.31,4.31,0,0,1,.28-6.36c2.19-1.11,13.75-7.49,17.11-9.17a2.15,2.15,0,0,0,.88-.81l10.77-17.81A4.49,4.49,0,0,1-616,31.81v17ZM-611.69,31h4.31v6.49A10.78,10.78,0,0,0-596.6,48.24a10.8,10.8,0,0,0,10.78-10.78V31h4.31V72.39h-30.18Zm8.62,0h12.94v6.48a6.48,6.48,0,0,1-6.47,6.47,6.47,6.47,0,0,1-6.47-6.47Zm58.3,26.38s-14.24-7.74-17.11-9.21l-10.45-17.29A8.68,8.68,0,0,0-579,26.72a2.26,2.26,0,0,0-.56,0h-34.57a8.69,8.69,0,0,0-6.78,4.16l-10.45,17.29c-4,2.06-15.43,8.35-16.72,9a2.55,2.55,0,0,0-.39.24,8.63,8.63,0,0,0-.84,12.94,8.61,8.61,0,0,0,10.46,1.34c.35-.21,7.49-4.75,11.87-7.18a35.55,35.55,0,0,0,8.9-7l2-2.22v18l-18.83,9.31a10.62,10.62,0,0,0-5.39,6.32,10.61,10.61,0,0,0,.86,8.27,10.61,10.61,0,0,0,9.39,5.47h66.76a10.65,10.65,0,0,0,9.3-5.32,10.53,10.53,0,0,0,1-8.32,10.53,10.53,0,0,0-5.41-6.42l-18.83-9.31v-18l2.1,2.29a35.18,35.18,0,0,0,8.83,7c4.4,2.44,11.5,7,11.88,7.18a8.6,8.6,0,0,0,10.45-1.34A8.63,8.63,0,0,0-544.77,57.35ZM-577.83,86a2.13,2.13,0,0,0-3,0,2.14,2.14,0,0,0,0,3.05,2.15,2.15,0,0,0,3,0A2.14,2.14,0,0,0-577.83,86Z"/></clipPath><clipPath id="clip-path-7"><path class="cls-2" d="M-560.36,348.07l-5.5-14.66h-78.2l-5.5,14.66a7.91,7.91,0,0,0-5.16,7.68v12.18c0,4.49,3.18,8.13,7.1,8.13h4.21l6.46,71.09h64l6.46-71.09h4.2c3.93,0,7.11-3.64,7.11-8.13V355.75A7.91,7.91,0,0,0-560.36,348.07Zm-80.15-7.56h71.09l2.37,7.11h-75.82ZM-580.08,440h-49.76l-1.58-14.22h52.92Zm2.37-21.32h-54.5l-2.37-21.33h59.24Zm3.16-28.44h-60.82l-1.58-14.22h64ZM-647.62,369h85.31V354.73h-85.31Z"/></clipPath><clipPath id="clip-path-8"><path class="cls-1" d="M-596.71-193.13a10.77,10.77,0,0,1,10.77,10.77,10.77,10.77,0,0,1-10.77,10.77,10.77,10.77,0,0,1-10.77-10.77A10.77,10.77,0,0,1-596.71-193.13Zm21.22,23.58h-5.77l5.14,5.89C-575.86-166.1-576-165-575.49-169.55Zm-36.63,0h-5.77c.26,2.42.36,3.44.62,5.89ZM-636-187a1.73,1.73,0,0,1,1.72,1.73v9.22h6a4.8,4.8,0,0,1,4.26-5.23,4.81,4.81,0,0,1,5.28,4.27l.1,1h8.28a15,15,0,0,0,13.59,8.7,15,15,0,0,0,13.6-8.7h8.31l.1-1a4.8,4.8,0,0,1,5.27-4.27,4.81,4.81,0,0,1,4.27,5.23h6v-9.22a1.73,1.73,0,0,1,1.72-1.73h4.72A1.73,1.73,0,0,1-551-185.3v9.22h2.76a3.26,3.26,0,0,1,3.26,3.26,3.26,3.26,0,0,1-3.26,3.27H-551v9.22a1.72,1.72,0,0,1-1.72,1.72h-4.72a1.72,1.72,0,0,1-1.72-1.72v-9.22h-6.72c-.2,2-1.67,15.78-1.88,17.82a4.8,4.8,0,0,1-8.38,2.65L-583-157v18.46l17.58,7.15a6.21,6.21,0,0,1,3.82,4.83l3.48,22.82a6.23,6.23,0,0,1-5.23,7.1,6.23,6.23,0,0,1-7.1-5.22l-2.95-19.31-16.13-6.56h-14.33L-620-121.13l-3,19.31A6.23,6.23,0,0,1-630-96.6a6.23,6.23,0,0,1-5.23-7.1l3.48-22.82a6.21,6.21,0,0,1,3.82-4.83l17.44-7.09v-18.35l-6.74,7.71a4.8,4.8,0,0,1-8.38-2.65c-.22-2.05-1.68-15.87-1.89-17.82h-6.73v9.22a1.72,1.72,0,0,1-1.72,1.72h-4.72a1.72,1.72,0,0,1-1.72-1.72v-9.22h-2.76a3.26,3.26,0,0,1-3.26-3.27,3.26,3.26,0,0,1,3.26-3.26h2.76v-9.22a1.73,1.73,0,0,1,1.72-1.73Z"/></clipPath><clipPath id="clip-path-9"><path class="cls-1" d="M-460.46-100.91A16.79,16.79,0,0,1-477-117.5a16.79,16.79,0,0,1,16.59-16.58,16.79,16.79,0,0,1,16.58,16.58A16.79,16.79,0,0,1-460.46-100.91Zm0-40.28a23.46,23.46,0,0,0-23.7,23.69,23.47,23.47,0,0,0,23.7,23.7,23.46,23.46,0,0,0,23.69-23.7A23.46,23.46,0,0,0-460.46-141.19Zm46.44-9.48h19.91v-8.53h-15.17l-9-15.64a7.8,7.8,0,0,0-7.11-3.79,7.86,7.86,0,0,0-5.69,2.37l-17.53,17.53A7.82,7.82,0,0,0-451-153a8.36,8.36,0,0,0,3.79,7.11l16.11,9.48v23.69h8.53v-30.8L-433-151.62l10.91-10.9Zm19.91,49.76A16.79,16.79,0,0,1-410.7-117.5a16.79,16.79,0,0,1,16.59-16.58,16.79,16.79,0,0,1,16.58,16.58A16.79,16.79,0,0,1-394.11-100.91Zm0-40.28a23.46,23.46,0,0,0-23.7,23.69,23.47,23.47,0,0,0,23.7,23.7,23.46,23.46,0,0,0,23.69-23.7A23.46,23.46,0,0,0-394.11-141.19Zm-14.22-34.12a8.5,8.5,0,0,0,8.53-8.54,8.5,8.5,0,0,0-8.53-8.53,8.5,8.5,0,0,0-8.53,8.53A8.5,8.5,0,0,0-408.33-175.31Z"/></clipPath><clipPath id="clip-path-10"><path class="cls-1" d="M-239.53-156.68A13.53,13.53,0,0,1-226-143.15a13.53,13.53,0,0,1-13.53,13.53,13.53,13.53,0,0,1-13.53-13.53A13.53,13.53,0,0,1-239.53-156.68ZM-298-168.17l.51,0L-273-165a5.73,5.73,0,0,1,5,3.9c1.4,3.19,6,12.86,10.62,22.31l1.14,2.36c3,6.25,5.92,12.16,7.67,15.75-.53-.11-1.05-.23-1.6-.38a76.48,76.48,0,0,1-11.89-4.61,88.44,88.44,0,0,0-14.67-5.57,33.4,33.4,0,0,0-8.16-1,34.86,34.86,0,0,0-6.37.58l18.15-9h0l-.12-.3c-.93-2.22-4.28-10.53-5-12.29l-20.88-2.68a6.18,6.18,0,0,1-5.35-6.92,6.19,6.19,0,0,1,6.92-5.34Zm13.11,38.83a30.28,30.28,0,0,1,7.45.91,86.68,86.68,0,0,1,14.2,5.41,79,79,0,0,0,12.35,4.77,27,27,0,0,0,12.29.41,18.48,18.48,0,0,0,10.31-5.86,14.87,14.87,0,0,0,1-1.31,3.83,3.83,0,0,1,3.2-1.71,3.8,3.8,0,0,1,2.11.63,3.84,3.84,0,0,1,1.08,5.31,21.77,21.77,0,0,1-2.23,2.84,26.37,26.37,0,0,1-13.8,7.58,31.24,31.24,0,0,1-6.85.76,40.67,40.67,0,0,1-14.69-3.07c-2-.74-3.9-1.62-5.84-2.52l-3.49-1.64c-5.45-2.53-11-4.84-17.06-4.84a25.21,25.21,0,0,0-7.89,1.28,21.72,21.72,0,0,0-10.81,7.69,3.85,3.85,0,0,1-2.62,1.56,2.67,2.67,0,0,1-.5,0,3.8,3.8,0,0,1-2.23-.72,3.87,3.87,0,0,1-1.19-4.86,3.15,3.15,0,0,1,.3-.5,27.52,27.52,0,0,1,6.53-6.43,31,31,0,0,1,8.07-4A32.72,32.72,0,0,1-284.93-129.34Z"/></clipPath><clipPath id="clip-path-11"><path class="cls-1" d="M-125.24-123.65l-7-7a2,2,0,0,0-2.87,0,2,2,0,0,0,0,2.87l7,7a10,10,0,0,1-5.59,1.68,10.13,10.13,0,0,1-10.12-10.13,10.13,10.13,0,0,1,10.12-10.12,10.13,10.13,0,0,1,10.13,10.12A10.05,10.05,0,0,1-125.24-123.65Zm13,4.54h-8.48l-1.64-1.63a14.09,14.09,0,0,0,2.82-8.5,14.19,14.19,0,0,0-14.18-14.17,14.19,14.19,0,0,0-14.17,14.17,14.19,14.19,0,0,0,14.17,14.18,14.09,14.09,0,0,0,8.5-2.82l2.23,2.23a2,2,0,0,0,1.43.59h9.32a2,2,0,0,0,2-2A2,2,0,0,0-112.22-119.11Zm28.35,4a6.07,6.07,0,0,1-6.07-6.07,6.08,6.08,0,0,1,6.07-6.08,6.09,6.09,0,0,1,6.08,6.08A6.08,6.08,0,0,1-83.87-115.06Zm0-16.2A10.14,10.14,0,0,0-94-121.13,10.14,10.14,0,0,0-83.87-111a10.13,10.13,0,0,0,10.13-10.12A10.14,10.14,0,0,0-83.87-131.26ZM-62.4-98.85h-91.55a2,2,0,0,1-2-2,2,2,0,0,1,2-2H-62.4a2,2,0,0,1,2,2A2,2,0,0,1-62.4-98.85ZM-156-129.24a22.29,22.29,0,0,1,16.56-21.53,22.4,22.4,0,0,1,13.19.53h0l57.77,19.67a12.17,12.17,0,0,1,8.07,11.45c0,6.36-6.37,12-13.36,12l-62.85,0A22.3,22.3,0,0,1-156-129.24Zm21.61-26.32a26.89,26.89,0,0,0-4.11.43l-3.6-13.81h4.22ZM-150.57-173a5.41,5.41,0,0,1-5.41-5.4,5.4,5.4,0,0,1,5.39-5.41c.83,0-.18-.08,24.13,3.94a3.45,3.45,0,0,1,2.89,3.42,3.43,3.43,0,0,1-1,2.44,3.44,3.44,0,0,1-2.45,1Zm64.24,0h4.13l-6.11,31.39-3.86-1.32Zm-1.59-8.1h12.15a2,2,0,0,0,2-2v-9.32a2,2,0,0,1,2-2,2,2,0,0,1,2,2v9.32A6.08,6.08,0,0,1-75.77-177H-87.83a1.34,1.34,0,0,0-.2,0,2,2,0,0,1-1.91-2A2,2,0,0,1-87.92-181.09ZM-62.4-107h-.09a15.86,15.86,0,0,0,6.17-12.15A16.23,16.23,0,0,0-67.1-134.38h0l-17.32-5.9,6.37-32.7h2.3a10.13,10.13,0,0,0,10.13-10.12v-9.32a6.08,6.08,0,0,0-6.07-6.08,6.08,6.08,0,0,0-6.08,6.08v7.29H-87.92A6.09,6.09,0,0,0-94-179.06a6.12,6.12,0,0,0,3.65,5.56L-96-144.24l-28.85-9.82a26,26,0,0,0-5.24-1.26l-3.54-13.62H-127a7.43,7.43,0,0,0,5.31-2.2,7.43,7.43,0,0,0,2.2-5.3,7.49,7.49,0,0,0-6.27-7.41c-24.69-4.07-23.4-4-24.8-4a9.46,9.46,0,0,0-9.44,9.46,9.47,9.47,0,0,0,9.46,9.45h4.3l3.88,14.84A26.36,26.36,0,0,0-160-129.24,26.37,26.37,0,0,0-147.73-107h-6.22a6.08,6.08,0,0,0-6.08,6.08,6.09,6.09,0,0,0,6.08,6.08H-62.4a6.08,6.08,0,0,0,6.08-6.08A6.09,6.09,0,0,0-62.4-107Zm-41.72-12.15a2,2,0,0,0-2,2,2,2,0,0,0,2,2,2,2,0,0,0,2-2A2,2,0,0,0-104.12-119.11Z"/></clipPath><clipPath id="clip-path-12"><path class="cls-1" d="M-452.19,332.29c1.47,7.64,4.46,23.92,4.46,31.22,0,17.85-13.38,22.31-13.38,22.31v58c0,1.47-3,4.46-4.46,4.46-5.92,0-8.92-3-8.92-4.46v-58s-13.38-4.46-13.38-22.31c0-7.3,3-23.58,4.46-31.22,3.36,0,4.46,1.09,4.46,4.46v22.3c0,3.17,1.29,4.46,4.46,4.46-.12,0,1.11-1.1,0-4.46q5.4-26.76,4.46-26.76,4.56.93,4.46,0h0l4.46,26.75c-1.05,3.16,0,4.33,0,4.45,3.16,0,4.45-1.28,4.45-4.45v-22.3C-456.65,333.38-455.56,332.29-452.19,332.29Zm49.07,0-.37,6.18.37-1.72V443.8c0,1.47-3,4.46-4.46,4.46-5.93,0-8.93-3-8.93-4.46V400l.14-.64-4.6-4.59c-3.39-3.71-4.46-6.63-4.46-8.92V376.9c0-23.56,14.25-40.15,13.55-40.15Q-412.58,336.75-403.12,332.29Z"/></clipPath><clipPath id="clip-path-13"><polygon class="cls-2" points="-313.77 410.35 -313.92 409.3 -289.33 406.56 -254.22 390.28 -253.7 391.22 -288.99 407.59 -289.09 407.61 -313.77 410.35"/></clipPath><clipPath id="clip-path-14"><polygon class="cls-2" points="-303.66 430.42 -303.88 429.19 -276.58 423.12 -247.66 400.31 -247.01 401.34 -276.12 424.3 -303.66 430.42"/></clipPath><clipPath id="clip-path-15"><polygon class="cls-2" points="-297.15 393.62 -297.24 393.62 -317.26 393.18 -317.23 392.11 -297.31 392.54 -254.03 380.24 -253.7 381.27 -297.15 393.62"/></clipPath><clipPath id="clip-path-16"><polygon class="cls-2" points="-315.23 360.17 -317.26 358.61 -315.95 356.82 -313.92 358.39 -315.23 360.17"/></clipPath><clipPath id="clip-path-17"><path class="cls-2" d="M-313.38,366.86l-.53-.51.69-1.19.21.2,1.94-.06,0,1.49Zm4.95-.16,0-1.48,2.61-.08,0,1.48Zm5.21-.16,0-1.48,2.61-.08,0,1.48Zm5.21-.16,0-1.48,2.61-.08,0,1.48Zm5.22-.16,0-1.49,2.6-.08,0,1.49Zm5.21-.17,0-1.48,2.61-.08,0,1.48Zm5.21-.16,0-1.48,2.61-.08,0,1.48Zm5.21-.16,0-1.48,2.6-.09,0,1.49Zm5.22-.16,0-1.49,2.61-.08,0,1.48Zm5.21-.17,0-1.48,2.61-.08,0,1.48Zm5.21-.16,0-1.48,2.61-.08,0,1.48Zm5.22-.16,0-1.48,2.6-.09,0,1.49Z"/></clipPath><clipPath id="clip-path-18"><polygon class="cls-2" points="-248.96 366.86 -249 365.54 -250.31 365.57 -250.35 363.59 -247.11 363.51 -247.01 366.8 -248.96 366.86"/></clipPath><clipPath id="clip-path-19"><path class="cls-2" d="M-237.92,407l-1.47-2.09.94-.65,1.48,2.1Zm-3-4.19-1.48-2.1.95-.65,1.48,2.1Zm-2.95-4.2-1.48-2.1,1-.64,1.48,2.1Zm-3-4.2-1.48-2.1.95-.64,1.47,2.1Zm-2.84-4.57-.08-2.55,1.15,0,.08,2.55Zm-.17-5.1-.08-2.55,1.15,0,.08,2.55Zm-.16-5.1-.08-2.55,1.15,0,.08,2.55Zm-.17-5.1-.08-2.55,1.15,0,.08,2.55Zm-.16-5.1-.08-2.54,1.15,0,.08,2.55Z"/></clipPath><clipPath id="clip-path-20"><polygon class="cls-2" points="-232.64 410.35 -233.63 409.16 -232.68 408.62 -233.33 407.82 -231.91 407 -230.28 408.98 -232.64 410.35"/></clipPath><clipPath id="clip-path-21"><path class="cls-2" d="M-286.94,440.46l-.21-1.19,2.6-.51.22,1.18Zm5.21-1-.21-1.19,2.6-.51.22,1.18Zm5.21-1-.21-1.18,2.61-.51.21,1.18Zm5.21-1-.21-1.18,2.51-.5.07.35.44.68-.18.13Zm5-2.23-.65-1,2.18-1.59.65,1ZM-262,432l-.65-1,2.18-1.58.65,1Zm4.36-3.17-.65-1,2.18-1.58.65,1Zm4.36-3.17-.65-1,2.18-1.58.65,1Zm4.36-3.17-.66-1,2.18-1.59.66,1Zm4.36-3.17-.66-1,2.18-1.59.66,1Zm4.36-3.17-.66-1,2.18-1.59.66,1Zm4.35-3.17-.65-1,2.18-1.58.65,1Z"/></clipPath><clipPath id="clip-path-22"><polygon class="cls-2" points="-293.38 440.63 -293.84 440.35 -290.96 440.29 -290.5 440.56 -293.38 440.63"/></clipPath><clipPath id="clip-path-23"><path class="cls-2" d="M-298.86,438.76h0a1.9,1.9,0,0,1,1.62-2.1l21.62-2.48a1.77,1.77,0,0,0,.82-.32L-246,413.5a2,2,0,0,0,.55-2.53l-9.35-16.76a2.08,2.08,0,0,1-.25-.8l-1.38-17.47a1.85,1.85,0,0,0-1.91-1.74l-53.49,2.86a1.78,1.78,0,0,1-1.15-.35l-3.52-2.6a2,2,0,0,1-.43-2.66h0a1.79,1.79,0,0,1,2.55-.45l2.48,1.84a1.78,1.78,0,0,0,1.15.35l55.76-3a1.86,1.86,0,0,1,1.92,1.74l1.6,20.29a1.91,1.91,0,0,0,.24.8l10.66,19.09a2,2,0,0,1-.56,2.53l-32.37,22.88a1.7,1.7,0,0,1-.83.32l-22.52,2.59a1.86,1.86,0,0,1-2-1.69"/></clipPath><clipPath id="clip-path-24"><polygon class="cls-2" points="-228.22 410.35 -229.95 409.55 -213.88 376.39 -195.62 366.31 -199.42 346.99 -215.78 342.16 -242.49 362.43 -243.66 360.96 -216.17 340.1 -197.76 345.53 -193.48 367.27 -212.41 377.73 -228.22 410.35"/></clipPath><clipPath id="clip-path-25"><path class="cls-2" d="M-265,353.48l-1.89-.18,1.16-11-7.4-7-18.24,2.56-24.84,15.59-1.06-1.5,24.11-15.12a6.1,6.1,0,0,1,2.38-.87l18.32-2.57,8.72,8.23Z"/></clipPath><clipPath id="clip-path-26"><path class="cls-2" d="M-196.78,368.52l-2.83-18.37a2,2,0,0,0-1.15-1.6l-11.61-4.39a2.19,2.19,0,0,1-1.11-2.59,1.62,1.62,0,0,1,2.07-1.38l13.54,5.11a2,2,0,0,1,1.15,1.6l3.21,20.83a2.12,2.12,0,0,1-1.32,2.44,1.73,1.73,0,0,1-1.95-1.65"/></clipPath><clipPath id="clip-path-27"><path class="cls-2" d="M-266.52,353.47l-1.18-.11a1.1,1.1,0,0,1-1-1.17l1.3-10.72a1,1,0,0,0-.34-.86l-5.65-5.09a1,1,0,0,1,0-1.49,2.55,2.55,0,0,1,3.34,0l6,5.41a1,1,0,0,1,.34.86l-1.48,12.24a1.15,1.15,0,0,1-1.3.93"/></clipPath><clipPath id="clip-path-28"><polygon class="cls-2" points="-76.44 362.81 -66.36 373.55 -82.06 356.82 -89.77 365.04 -81.39 368.09 -76.44 362.81"/></clipPath><clipPath id="clip-path-29"><path class="cls-2" d="M-115.17,411.76l-5.1-5.13,2.42-2.44a35,35,0,0,1-1-8.09v-3l-10.43,10.51a4.27,4.27,0,0,0,0,6l24,24.15a4.21,4.21,0,0,0,6,0l3.73-3.75-5.89-3.29a34.2,34.2,0,0,1-13.73-15"/></clipPath><clipPath id="clip-path-30"><polygon class="cls-2" points="-59.91 374.79 -56.28 378.45 -59.91 382.11 -59.91 394.18 -50.28 384.49 -59.91 374.79"/></clipPath><clipPath id="clip-path-31"><polygon class="cls-2" points="-75.63 385.84 -75.78 386 -75.63 386.14 -75.63 385.84"/></clipPath><clipPath id="clip-path-32"><polygon class="cls-2" points="-134.27 424.74 -130.28 428.76 -128.28 426.75 -122.27 432.79 -124.27 434.8 -120.28 438.82 -109.73 428.21 -123.73 414.12 -134.27 424.74"/></clipPath><clipPath id="clip-path-33"><polygon class="cls-2" points="-128.28 426.75 -130.27 428.76 -124.27 434.8 -122.27 432.79 -128.28 426.75"/></clipPath><clipPath id="clip-path-34"><polygon class="cls-2" points="-42.28 340.21 -62.28 360.34 -56.28 366.37 -36.28 346.25 -42.28 340.21"/></clipPath><clipPath id="clip-path-35"><polygon class="cls-2" points="-34.28 344.24 -40.28 338.2 -42.28 340.21 -36.28 346.25 -34.28 344.24"/></clipPath><clipPath id="clip-path-36"><path class="cls-2" d="M-71.28,351.28l-9-9.06-6,6,6,6,3-3a4.22,4.22,0,0,1,6,0"/></clipPath><clipPath id="clip-path-37"><path class="cls-2" d="M-47.28,381.47l-3,3,6,6,6-6-9-9.06a4.29,4.29,0,0,1,0,6"/></clipPath><clipPath id="clip-path-38"><path class="cls-2" d="M-47.28,375.43l-9-9.06-2,2-6-6,2-2-9-9.06a4.22,4.22,0,0,0-6,0l-3,3,20.37,20.49,0,.06.47.47,9.11,9.17,3-3a4.29,4.29,0,0,0,0-6"/></clipPath><clipPath id="clip-path-39"><polygon class="cls-2" points="-64.28 362.35 -58.28 368.39 -56.28 366.37 -62.28 360.34 -64.28 362.35"/></clipPath><clipPath id="clip-path-40"><polygon class="cls-2" points="-90.39 405.49 -100.18 394.46 -95.79 390.51 -90.39 396.58 -81.96 387.08 -77.56 391.03 -90.39 405.49"/></clipPath><clipPath id="clip-path-41"><path class="cls-2" d="M-89.37,427.85-99,422.43c-8.9-5-14.88-15.57-14.88-26.33V375.94l24.56-8.42,24.55,8.42V396.1c0,10.76-6,21.34-14.88,26.33ZM-108,380.18V396.1c0,8.54,4.87,17.24,11.85,21.15l6.81,3.81,6.8-3.81c7-3.91,11.86-12.61,11.86-21.15V380.18l-18.66-6.4Z"/></clipPath></defs><g class="cls-3"><g class="cls-4"><g class="cls-5"></g></g></g><g class="cls-6"><g class="cls-7"><rect class="cls-8" x="7.83" y="8.16" width="84.32" height="84.14"/></g></g></svg>