<svg id="Layer_1" data-name="Layer 1" xmlns="http://www.w3.org/2000/svg" xmlns:xlink="http://www.w3.org/1999/xlink" viewBox="0 0 82.02 90.99"><defs><style>.cls-1,.cls-2,.cls-44{fill:none;}.cls-2{clip-rule:evenodd;}.cls-3{clip-path:url(#clip-path);}.cls-4{clip-path:url(#clip-path-2);}.cls-5{clip-path:url(#clip-path-3);}.cls-6{clip-path:url(#clip-path-4);}.cls-7{clip-path:url(#clip-path-6);}.cls-8{clip-path:url(#clip-path-7);}.cls-9{clip-path:url(#clip-path-8);}.cls-10{clip-path:url(#clip-path-9);}.cls-11{clip-path:url(#clip-path-10);}.cls-12{clip-path:url(#clip-path-11);}.cls-13{clip-path:url(#clip-path-12);}.cls-14{clip-path:url(#clip-path-13);}.cls-15{clip-path:url(#clip-path-14);}.cls-16{clip-path:url(#clip-path-15);}.cls-17{clip-path:url(#clip-path-16);}.cls-18{clip-path:url(#clip-path-17);}.cls-19{clip-path:url(#clip-path-18);}.cls-20{clip-path:url(#clip-path-19);}.cls-21{clip-path:url(#clip-path-20);}.cls-22{clip-path:url(#clip-path-21);}.cls-23{clip-path:url(#clip-path-22);}.cls-24{clip-path:url(#clip-path-23);}.cls-25{clip-path:url(#clip-path-24);}.cls-26{clip-path:url(#clip-path-25);}.cls-27{clip-path:url(#clip-path-26);}.cls-28{clip-path:url(#clip-path-27);}.cls-29{clip-path:url(#clip-path-28);}.cls-30{clip-path:url(#clip-path-29);}.cls-31{clip-path:url(#clip-path-30);}.cls-32{clip-path:url(#clip-path-31);}.cls-33{clip-path:url(#clip-path-32);}.cls-34{clip-path:url(#clip-path-33);}.cls-35{clip-path:url(#clip-path-34);}.cls-36{clip-path:url(#clip-path-35);}.cls-37{clip-path:url(#clip-path-36);}.cls-38{clip-path:url(#clip-path-37);}.cls-39{clip-path:url(#clip-path-38);}.cls-40{clip-path:url(#clip-path-39);}.cls-41{clip-path:url(#clip-path-40);}.cls-42{clip-path:url(#clip-path-41);}.cls-43{clip-path:url(#clip-path-42);}.cls-44{stroke:#ffba69;stroke-linecap:round;stroke-linejoin:round;stroke-width:3.43px;}</style><clipPath id="clip-path"><rect class="cls-1" x="-586.58" y="-371.77" width="186" height="276" rx="8"/></clipPath><clipPath id="clip-path-2"><rect class="cls-1" x="-797.58" y="-439.09" width="428" height="927"/></clipPath><clipPath id="clip-path-3"><rect class="cls-1" x="-586.58" y="-371.77" width="900" height="600"/></clipPath><clipPath id="clip-path-4"><rect class="cls-1" x="-388.58" y="-371.77" width="186" height="276" rx="8"/></clipPath><clipPath id="clip-path-6"><rect class="cls-1" x="-388.58" y="-371.77" width="900" height="600"/></clipPath><clipPath id="clip-path-7"><path class="cls-1" d="M-128.8,10.78A10.8,10.8,0,0,1-139.58,0,10.8,10.8,0,0,1-128.8-10.78,10.79,10.79,0,0,1-118,0,10.79,10.79,0,0,1-128.8,10.78Zm0-25.87A15.11,15.11,0,0,0-143.89,0,15.11,15.11,0,0,0-128.8,15.09,15.11,15.11,0,0,0-113.71,0,15.11,15.11,0,0,0-128.8-15.09ZM-79.18,60a4.27,4.27,0,0,1-5.2.68c-.48-.29-7.53-4.76-12-7.24a30.68,30.68,0,0,1-7.74-6.1l-5.28-5.74v-17a4.27,4.27,0,0,1,1.17,1.26s8.69,14.39,10.77,17.82a2.15,2.15,0,0,0,.88.81c3.34,1.67,14.94,8.07,17.11,9.17A4.31,4.31,0,0,1-79.18,60ZM-92.47,79.11a6.25,6.25,0,0,1,3.2,3.79,6.25,6.25,0,0,1-.58,4.91A6.28,6.28,0,0,1-95.42,91h-35.53V82.37h10.78A2.16,2.16,0,0,0-118,80.21a2.16,2.16,0,0,0-2.15-2.16h-23.72a8.64,8.64,0,0,0-8.63,8.63A8.63,8.63,0,0,0-151.36,91h-10.81a6.27,6.27,0,0,1-5.63-3.27,6.25,6.25,0,0,1-.51-4.88,6.27,6.27,0,0,1,3.19-3.73l19.58-9.68H-112ZM-135.27,91h-8.62a4.31,4.31,0,0,1-4.31-4.31,4.31,4.31,0,0,1,4.31-4.31h8.62Zm-18.15-43.75,0,0a30.92,30.92,0,0,1-7.79,6.15c-4.41,2.45-11.54,7-12,7.23a4.28,4.28,0,0,1-5.22-.67,4.31,4.31,0,0,1,.28-6.36c2.2-1.11,13.75-7.49,17.11-9.17a2.09,2.09,0,0,0,.88-.81l10.77-17.81a4.38,4.38,0,0,1,1.18-1.28v17Zm9.53-23.54h4.31v6.49A10.78,10.78,0,0,0-128.8,41,10.79,10.79,0,0,0-118,30.19V23.71h4.31V65.12h-30.18Zm8.62,0h12.94v6.48a6.48,6.48,0,0,1-6.47,6.47,6.47,6.47,0,0,1-6.47-6.47ZM-77,50.08s-14.24-7.74-17.11-9.21l-10.45-17.29a8.68,8.68,0,0,0-6.63-4.13,2.26,2.26,0,0,0-.56,0H-146a.56.56,0,0,0-.13,0h-.11a8.66,8.66,0,0,0-6.78,4.16l-10.45,17.29c-4,2.06-15.43,8.35-16.72,9a2.55,2.55,0,0,0-.39.24A8.63,8.63,0,0,0-181.47,63,8.61,8.61,0,0,0-171,64.36c.36-.21,7.49-4.75,11.87-7.18a35.37,35.37,0,0,0,8.9-7c1.1-1.21,1.46-1.59,2-2.22v18L-167,75.24a10.53,10.53,0,0,0-5.39,6.32,10.56,10.56,0,0,0,.85,8.27,10.62,10.62,0,0,0,9.4,5.47h66.75A10.64,10.64,0,0,0-86.12,90a10.58,10.58,0,0,0,1-8.32,10.58,10.58,0,0,0-5.42-6.42l-18.83-9.31v-18l2.1,2.29a35.18,35.18,0,0,0,8.83,7c4.4,2.44,11.51,7,11.88,7.18A8.6,8.6,0,0,0-76.13,63,8.63,8.63,0,0,0-77,50.08Zm-33,28.61a2.14,2.14,0,0,0-3,0,2.14,2.14,0,0,0,0,3,2.16,2.16,0,0,0,3,0A2.16,2.16,0,0,0-110,78.69Z"/></clipPath><clipPath id="clip-path-8"><path class="cls-2" d="M-92.56,340.8l-5.5-14.67h-78.2l-5.5,14.67a7.91,7.91,0,0,0-5.16,7.68v12.18c0,4.49,3.18,8.13,7.11,8.13h4.2l6.46,71.09h64l6.46-71.09h4.2c3.93,0,7.11-3.64,7.11-8.13V348.48A7.91,7.91,0,0,0-92.56,340.8Zm-80.14-7.56h71.09l2.36,7.11h-75.82Zm60.42,99.53H-162l-1.58-14.22h52.92Zm2.37-21.32h-54.5l-2.37-21.34h59.24Zm3.16-28.44h-60.82l-1.58-14.22h64Zm-73.06-21.33h85.3V347.46h-85.3Z"/></clipPath><clipPath id="clip-path-9"><path class="cls-1" d="M-128.91-200.4a10.78,10.78,0,0,1,10.78,10.77,10.78,10.78,0,0,1-10.78,10.77,10.77,10.77,0,0,1-10.77-10.77A10.77,10.77,0,0,1-128.91-200.4Zm21.22,23.58h-5.77l5.14,5.89C-108.06-173.38-108.18-172.25-107.69-176.82Zm-36.63,0h-5.77c.26,2.42.37,3.44.62,5.89Zm-23.87-17.48a1.73,1.73,0,0,1,1.73,1.73v9.22h6a4.8,4.8,0,0,1,4.27-5.23,4.81,4.81,0,0,1,5.27,4.27l.1,1h8.28a15,15,0,0,0,13.59,8.7,15,15,0,0,0,13.6-8.7H-107l.1-1a4.8,4.8,0,0,1,5.27-4.27,4.81,4.81,0,0,1,4.27,5.23h6v-9.22a1.72,1.72,0,0,1,1.72-1.73h4.72a1.72,1.72,0,0,1,1.72,1.73v9.22h2.76a3.26,3.26,0,0,1,3.26,3.26,3.26,3.26,0,0,1-3.26,3.27h-2.75v9.22a1.73,1.73,0,0,1-1.73,1.72h-4.72a1.72,1.72,0,0,1-1.72-1.72v-9.22H-98c-.2,1.95-1.67,15.78-1.88,17.82a4.8,4.8,0,0,1-8.38,2.65l-6.89-7.88v18.46l17.58,7.14a6.24,6.24,0,0,1,3.82,4.84L-90.32-111a6.23,6.23,0,0,1-5.22,7.1,6.24,6.24,0,0,1-7.11-5.22l-2.95-19.31L-121.73-135H-136l-16.14,6.56-2.95,19.31a6.23,6.23,0,0,1-7.1,5.22,6.23,6.23,0,0,1-5.23-7.1l3.48-22.82a6.24,6.24,0,0,1,3.82-4.84l17.44-7.08v-18.35l-6.74,7.71a4.8,4.8,0,0,1-8.38-2.65c-.22-2.05-1.68-15.87-1.88-17.82h-6.73v9.22a1.73,1.73,0,0,1-1.73,1.72h-4.72a1.72,1.72,0,0,1-1.72-1.72v-9.22h-2.75a3.26,3.26,0,0,1-3.27-3.27,3.26,3.26,0,0,1,3.27-3.26h2.75v-9.22a1.72,1.72,0,0,1,1.72-1.73Z"/></clipPath><clipPath id="clip-path-10"><path class="cls-1" d="M7.34-108.18A16.79,16.79,0,0,1-9.25-124.77,16.79,16.79,0,0,1,7.34-141.35a16.79,16.79,0,0,1,16.59,16.58A16.8,16.8,0,0,1,7.34-108.18Zm0-40.28a23.46,23.46,0,0,0-23.7,23.69,23.47,23.47,0,0,0,23.7,23.7A23.47,23.47,0,0,0,31-124.77,23.46,23.46,0,0,0,7.34-148.46Zm46.44-9.48H73.69v-8.53H58.52l-9-15.64a7.79,7.79,0,0,0-7.11-3.79,7.86,7.86,0,0,0-5.69,2.37L19.19-166a7.86,7.86,0,0,0-2.37,5.69,8.36,8.36,0,0,0,3.79,7.11l16.11,9.48V-120h8.53v-30.8l-10.42-8.06,10.9-10.9Zm19.91,49.76A16.79,16.79,0,0,1,57.1-124.77a16.79,16.79,0,0,1,16.59-16.58,16.79,16.79,0,0,1,16.59,16.58A16.8,16.8,0,0,1,73.69-108.18Zm0-40.28A23.46,23.46,0,0,0,50-124.77a23.47,23.47,0,0,0,23.7,23.7,23.47,23.47,0,0,0,23.7-23.7A23.46,23.46,0,0,0,73.69-148.46ZM59.47-182.59A8.49,8.49,0,0,0,68-191.12a8.49,8.49,0,0,0-8.53-8.53,8.49,8.49,0,0,0-8.53,8.53A8.49,8.49,0,0,0,59.47-182.59Z"/></clipPath><clipPath id="clip-path-11"><path class="cls-1" d="M228.27-163.95a13.53,13.53,0,0,1,13.53,13.53,13.53,13.53,0,0,1-13.53,13.53,13.53,13.53,0,0,1-13.53-13.53A13.53,13.53,0,0,1,228.27-163.95Zm-58.5-11.49.5,0,24.53,3.16c2.24.28,3.82,1.26,5,3.9,1.4,3.19,6,12.86,10.62,22.31l1.14,2.36,7.67,15.75c-.53-.11-1-.23-1.6-.38a77.49,77.49,0,0,1-11.89-4.61A88.44,88.44,0,0,0,191-138.48a33.4,33.4,0,0,0-8.16-1,34.86,34.86,0,0,0-6.37.58l18.15-9h0l-.12-.3c-.93-2.22-4.28-10.53-5-12.29l-20.88-2.68a6.2,6.2,0,0,1-5.35-6.92,6.19,6.19,0,0,1,6.92-5.34Zm13.1,38.83a30.28,30.28,0,0,1,7.45.91,86.68,86.68,0,0,1,14.2,5.41,79,79,0,0,0,12.35,4.77,26.87,26.87,0,0,0,12.29.4A18.41,18.41,0,0,0,239.47-131a14.87,14.87,0,0,0,1-1.31,3.84,3.84,0,0,1,3.2-1.71,3.8,3.8,0,0,1,2.11.63,3.83,3.83,0,0,1,1.09,5.31,21.85,21.85,0,0,1-2.24,2.84,26.37,26.37,0,0,1-13.8,7.58,31.24,31.24,0,0,1-6.85.76,40.67,40.67,0,0,1-14.69-3.07c-2-.74-3.9-1.62-5.84-2.52l-3.49-1.64c-5.44-2.53-11-4.84-17.06-4.84a25.21,25.21,0,0,0-7.89,1.28A21.81,21.81,0,0,0,164.18-120a3.83,3.83,0,0,1-2.62,1.57,2.63,2.63,0,0,1-.49,0,3.8,3.8,0,0,1-2.24-.72,3.87,3.87,0,0,1-1.19-4.86,3.15,3.15,0,0,1,.3-.5,27.33,27.33,0,0,1,6.53-6.43,31.16,31.16,0,0,1,8.07-4.05A32.72,32.72,0,0,1,182.87-136.61Z"/></clipPath><clipPath id="clip-path-12"><path class="cls-1" d="M342.56-130.92l-7-7a2,2,0,0,0-2.87,0,2,2,0,0,0,0,2.87l7,7a10.06,10.06,0,0,1-5.58,1.68A10.14,10.14,0,0,1,324-136.51a10.13,10.13,0,0,1,10.13-10.12,10.13,10.13,0,0,1,10.12,10.12A10.05,10.05,0,0,1,342.56-130.92Zm13,4.54H347.1L345.46-128a14,14,0,0,0,2.82-8.49,14.19,14.19,0,0,0-14.17-14.18,14.19,14.19,0,0,0-14.18,14.18,14.19,14.19,0,0,0,14.18,14.18,14.08,14.08,0,0,0,8.49-2.82l2.23,2.23a2,2,0,0,0,1.43.59h9.32a2,2,0,0,0,2-2A2,2,0,0,0,355.58-126.38Zm28.35,4a6.07,6.07,0,0,1-6.07-6.07,6.08,6.08,0,0,1,6.07-6.08A6.08,6.08,0,0,1,390-128.4,6.08,6.08,0,0,1,383.93-122.33Zm0-16.2a10.13,10.13,0,0,0-10.12,10.13,10.13,10.13,0,0,0,10.12,10.12,10.13,10.13,0,0,0,10.13-10.12A10.14,10.14,0,0,0,383.93-138.53Zm21.47,32.41H313.85a2,2,0,0,1-2-2,2,2,0,0,1,2-2H405.4a2,2,0,0,1,2,2A2,2,0,0,1,405.4-106.12Zm-93.57-30.39A22.28,22.28,0,0,1,328.38-158a22.4,22.4,0,0,1,13.19.53h0l57.76,19.67a12.17,12.17,0,0,1,8.07,11.45c0,6.36-6.37,11.95-13.36,11.95l-62.85,0A22.29,22.29,0,0,1,311.83-136.51Zm21.6-26.32a26.76,26.76,0,0,0-4.1.43l-3.61-13.81H330Zm-16.2-17.43a5.4,5.4,0,0,1-5.4-5.4,5.4,5.4,0,0,1,5.39-5.41c.82,0-.19-.08,24.12,3.94a3.45,3.45,0,0,1,2.89,3.41,3.44,3.44,0,0,1-1,2.45,3.43,3.43,0,0,1-2.44,1Zm64.24,0h4.14l-6.11,31.39-3.87-1.32Zm-1.59-8.1H392a2,2,0,0,0,2-2v-9.31a2,2,0,0,1,2-2,2,2,0,0,1,2,2v9.31a6.08,6.08,0,0,1-6.07,6.08H379.77a2,2,0,0,1-1.91-2A2,2,0,0,1,379.88-188.36Zm25.52,74.13h-.09a15.86,15.86,0,0,0,6.17-12.15,16.24,16.24,0,0,0-10.77-15.27h0l-17.31-5.9,6.36-32.7H392a10.13,10.13,0,0,0,10.12-10.13v-9.31a6.08,6.08,0,0,0-6.07-6.08A6.08,6.08,0,0,0,390-199.7v7.29H379.88a6.08,6.08,0,0,0-6.07,6.08,6.11,6.11,0,0,0,3.64,5.56l-5.69,29.26-28.85-9.82a26.79,26.79,0,0,0-5.23-1.27l-3.55-13.61h6.65a7.47,7.47,0,0,0,5.31-2.2,7.46,7.46,0,0,0,2.19-5.31,7.48,7.48,0,0,0-6.27-7.4c-24.69-4.07-23.4-4-24.79-4a9.46,9.46,0,0,0-9.45,9.46,9.47,9.47,0,0,0,9.46,9.45h4.3l3.88,14.84a26.36,26.36,0,0,0-17.64,24.86,26.37,26.37,0,0,0,12.3,22.28h-6.22a6.08,6.08,0,0,0-6.08,6.08,6.09,6.09,0,0,0,6.08,6.08H405.4a6.08,6.08,0,0,0,6.08-6.08A6.08,6.08,0,0,0,405.4-114.23Zm-41.72-12.15a2,2,0,0,0-2,2,2,2,0,0,0,2,2,2,2,0,0,0,2-2A2,2,0,0,0,363.68-126.38Z"/></clipPath><clipPath id="clip-path-13"><path class="cls-1" d="M15.61,325c1.47,7.64,4.46,23.92,4.46,31.22,0,17.84-13.38,22.31-13.38,22.31v58c0,1.46-3,4.46-4.46,4.46-5.92,0-8.92-3-8.92-4.46v-58s-13.38-4.47-13.38-22.31c0-7.3,3-23.58,4.46-31.22,3.37,0,4.46,1.09,4.46,4.46v22.3c0,3.17,1.29,4.46,4.46,4.46-.12,0,1.11-1.1,0-4.46Q-1.29,325-2.23,325q4.56.93,4.46,0h0l4.46,26.75c-1.05,3.16,0,4.33,0,4.45,3.16,0,4.45-1.28,4.45-4.45v-22.3C11.15,326.11,12.24,325,15.61,325Zm49.07,0-.37,6.18.37-1.72v107c0,1.46-3,4.46-4.46,4.46-5.93,0-8.92-3-8.92-4.46V392.7l.13-.64-4.59-4.59c-3.4-3.71-4.47-6.63-4.47-8.92v-8.93c0-23.55,14.25-40.14,13.55-40.14Q55.22,329.48,64.68,325Z"/></clipPath><clipPath id="clip-path-14"><polygon class="cls-2" points="154.03 403.08 153.89 402.02 178.47 399.29 213.58 383.01 214.1 383.95 178.81 400.32 178.71 400.33 154.03 403.08"/></clipPath><clipPath id="clip-path-15"><polygon class="cls-2" points="164.14 423.15 163.92 421.92 191.23 415.85 220.14 393.04 220.79 394.07 191.68 417.03 164.14 423.15"/></clipPath><clipPath id="clip-path-16"><polygon class="cls-2" points="170.65 386.35 170.56 386.35 150.54 385.91 150.57 384.84 170.49 385.27 213.77 372.97 214.1 374 170.65 386.35"/></clipPath><clipPath id="clip-path-17"><polygon class="cls-2" points="152.58 352.9 150.54 351.33 151.85 349.55 153.89 351.12 152.58 352.9"/></clipPath><clipPath id="clip-path-18"><path class="cls-2" d="M154.42,359.59l-.53-.51.69-1.19.21.2,1.94-.06,0,1.48Zm5-.16,0-1.48,2.61-.08,0,1.48Zm5.21-.16,0-1.48,2.61-.08,0,1.48Zm5.22-.16,0-1.48,2.6-.09,0,1.49ZM175,359l0-1.49,2.61-.08,0,1.48Zm5.21-.17,0-1.48,2.61-.08,0,1.48Zm5.21-.16,0-1.48,2.6-.08,0,1.48Zm5.22-.16,0-1.48,2.6-.09,0,1.49Zm5.21-.17,0-1.48,2.61-.08,0,1.48Zm5.21-.16,0-1.48,2.61-.08,0,1.48Zm5.22-.16,0-1.48,2.6-.08,0,1.48Zm5.21-.16,0-1.49,2.61-.08,0,1.49Z"/></clipPath><clipPath id="clip-path-19"><polygon class="cls-2" points="218.85 359.59 218.8 358.26 217.5 358.3 217.45 356.32 220.69 356.24 220.79 359.52 218.85 359.59"/></clipPath><clipPath id="clip-path-20"><path class="cls-2" d="M229.88,399.73l-1.47-2.1.94-.64,1.48,2.1Zm-2.95-4.19-1.47-2.1.94-.65,1.48,2.1Zm-3-4.2-1.48-2.1.95-.64,1.48,2.1Zm-2.95-4.2-1.48-2.1.95-.64,1.48,2.1Zm-2.84-4.57-.08-2.55,1.15,0,.08,2.55Zm-.16-5.1-.09-2.55,1.15,0,.09,2.55Zm-.17-5.1-.08-2.55,1.15,0,.08,2.55Zm-.16-5.1-.09-2.55,1.15,0,.09,2.55Zm-.17-5.1-.08-2.55,1.15,0,.08,2.55Z"/></clipPath><clipPath id="clip-path-21"><polygon class="cls-2" points="235.16 403.08 234.18 401.89 235.12 401.34 234.47 400.55 235.89 399.73 237.52 401.71 235.16 403.08"/></clipPath><clipPath id="clip-path-22"><path class="cls-2" d="M180.86,433.19l-.21-1.19,2.61-.51.21,1.18Zm5.21-1-.21-1.19,2.61-.51.21,1.18Zm5.21-1-.21-1.18,2.61-.52.21,1.19Zm5.21-1-.21-1.18,2.51-.5.07.35.44.68-.17.13Zm5-2.23-.65-1,2.18-1.59.65,1Zm4.36-3.18-.65-1,2.18-1.58.65,1Zm4.36-3.17-.65-1,2.18-1.58.65,1Zm4.36-3.17-.65-1,2.18-1.59.65,1Zm4.36-3.17-.65-1,2.18-1.59.65,1Zm4.36-3.17-.65-1,2.18-1.59.65,1Zm4.36-3.17-.66-1,2.18-1.59.66,1Zm4.36-3.18-.66-1,2.18-1.58.66,1Z"/></clipPath><clipPath id="clip-path-23"><polygon class="cls-2" points="174.42 433.35 173.96 433.08 176.84 433.02 177.31 433.29 174.42 433.35"/></clipPath><clipPath id="clip-path-24"><path class="cls-2" d="M168.94,431.49h0a1.9,1.9,0,0,1,1.62-2.1l21.62-2.48a1.8,1.8,0,0,0,.83-.32l28.8-20.36a1.94,1.94,0,0,0,.55-2.53L213,386.94a1.91,1.91,0,0,1-.24-.81l-1.38-17.46a1.86,1.86,0,0,0-1.92-1.74L156,369.79a1.81,1.81,0,0,1-1.16-.35l-3.52-2.6a2,2,0,0,1-.43-2.66h0a1.79,1.79,0,0,1,2.55-.45l2.48,1.84a1.81,1.81,0,0,0,1.16.35l55.75-3a1.85,1.85,0,0,1,1.92,1.74l1.6,20.29a2.06,2.06,0,0,0,.24.8l10.66,19.09a2,2,0,0,1-.56,2.53l-32.37,22.88a1.7,1.7,0,0,1-.83.32L171,433.17a1.84,1.84,0,0,1-2-1.68"/></clipPath><clipPath id="clip-path-25"><polygon class="cls-2" points="239.58 403.08 237.85 402.28 253.92 369.12 272.18 359.04 268.38 339.72 252.02 334.89 225.31 355.16 224.14 353.69 251.63 332.82 270.04 338.26 274.32 360 255.39 370.45 239.58 403.08"/></clipPath><clipPath id="clip-path-26"><path class="cls-2" d="M202.81,346.21l-1.89-.18,1.16-11-7.39-7-18.25,2.56L151.6,346.2l-1.06-1.5,24.11-15.12a6.1,6.1,0,0,1,2.38-.87l18.32-2.58,8.72,8.24Z"/></clipPath><clipPath id="clip-path-27"><path class="cls-2" d="M271,361.25l-2.82-18.37a2,2,0,0,0-1.16-1.6l-11.61-4.39a2.19,2.19,0,0,1-1.11-2.59,1.63,1.63,0,0,1,2.08-1.38L269.93,338a2,2,0,0,1,1.16,1.6l3.2,20.83A2.12,2.12,0,0,1,273,362.9a1.73,1.73,0,0,1-2-1.65"/></clipPath><clipPath id="clip-path-28"><path class="cls-2" d="M201.29,346.2l-1.18-.11a1.1,1.1,0,0,1-1.05-1.17l1.3-10.72a1,1,0,0,0-.33-.86l-5.66-5.09a1,1,0,0,1,0-1.49,2.55,2.55,0,0,1,3.34,0l6,5.41a1,1,0,0,1,.34.86l-1.48,12.24a1.16,1.16,0,0,1-1.29.93"/></clipPath><clipPath id="clip-path-29"><polygon class="cls-2" points="391.36 355.54 401.44 366.28 385.74 349.55 378.03 357.77 386.41 360.82 391.36 355.54"/></clipPath><clipPath id="clip-path-30"><path class="cls-2" d="M352.63,404.49l-5.1-5.14,2.42-2.43a35,35,0,0,1-1-8.09v-3l-10.43,10.51a4.27,4.27,0,0,0,0,6l24,24.15a4.22,4.22,0,0,0,6,0l3.72-3.75-5.88-3.3a34.14,34.14,0,0,1-13.74-15"/></clipPath><clipPath id="clip-path-31"><polygon class="cls-2" points="407.89 367.52 411.52 371.18 407.89 374.83 407.89 386.91 417.52 377.22 407.89 367.52"/></clipPath><clipPath id="clip-path-32"><polygon class="cls-2" points="392.18 378.57 392.02 378.73 392.18 378.87 392.18 378.57"/></clipPath><clipPath id="clip-path-33"><polygon class="cls-2" points="333.53 417.47 337.53 421.49 339.53 419.48 345.53 425.52 343.53 427.53 347.53 431.55 358.08 420.94 344.08 406.85 333.53 417.47"/></clipPath><clipPath id="clip-path-34"><polygon class="cls-2" points="339.53 419.48 337.53 421.49 343.53 427.53 345.53 425.52 339.53 419.48"/></clipPath><clipPath id="clip-path-35"><polygon class="cls-2" points="425.52 332.94 405.52 353.07 411.52 359.1 431.52 338.98 425.52 332.94"/></clipPath><clipPath id="clip-path-36"><polygon class="cls-2" points="433.52 336.97 427.52 330.93 425.52 332.94 431.52 338.98 433.52 336.97"/></clipPath><clipPath id="clip-path-37"><path class="cls-2" d="M396.52,344l-9-9.06-6,6,6,6,3-3a4.22,4.22,0,0,1,6,0"/></clipPath><clipPath id="clip-path-38"><path class="cls-2" d="M420.52,374.2l-3,3,6,6,6-6-9-9.06a4.29,4.29,0,0,1,0,6"/></clipPath><clipPath id="clip-path-39"><path class="cls-2" d="M420.52,368.16l-9-9.06-2,2-6-6,2-2-9-9.06a4.21,4.21,0,0,0-6,0l-3,3,20.37,20.49.06.06.46.47,9.11,9.17,3-3a4.29,4.29,0,0,0,0-6"/></clipPath><clipPath id="clip-path-40"><polygon class="cls-2" points="403.52 355.08 409.52 361.12 411.52 359.1 405.52 353.07 403.52 355.08"/></clipPath><clipPath id="clip-path-41"><polygon class="cls-2" points="377.41 398.22 367.62 387.19 372.01 383.24 377.41 389.31 385.85 379.81 390.24 383.76 377.41 398.22"/></clipPath><clipPath id="clip-path-42"><path class="cls-2" d="M378.43,420.58l-9.68-5.42c-8.89-5-14.87-15.57-14.87-26.33V368.67l24.55-8.42L403,368.67v20.16c0,10.76-6,21.34-14.88,26.33Zm-18.66-47.67v15.92c0,8.54,4.87,17.24,11.85,21.15l6.81,3.81,6.81-3.81c7-3.91,11.85-12.61,11.85-21.15V372.91l-18.66-6.4Z"/></clipPath></defs><g class="cls-3"><g class="cls-4"><g class="cls-5"><use transform="translate(-586.58 -371.77)" xlink:href="#image"/></g></g></g><g class="cls-6"><g class="cls-4"><g class="cls-7"><use transform="translate(-388.58 -371.77)" xlink:href="#image"/></g></g></g><polygon class="cls-44" points="42.38 15.44 51.34 33.51 71.38 36.42 56.88 50.48 60.3 70.34 42.38 60.96 24.45 70.34 27.87 50.48 13.37 36.42 33.41 33.51 42.38 15.44"/></svg>