<svg xmlns="http://www.w3.org/2000/svg" xmlns:xlink="http://www.w3.org/1999/xlink" width="30" height="30" viewBox="-1 -1 30 30">
<g id="house" transform="translate(0 0)">
        <path id="Path" d="M23.175,24.975H1.053a1.811,1.811,0,0,1-1.8-1.8V9.69q0-.021,0-.042A2.012,2.012,0,0,1-.1,8.278.747.747,0,0,1-.046,8.23L11.661-.6a.75.75,0,0,1,.9,0L24.271,8.23a.748.748,0,0,1,.058.048,2.012,2.012,0,0,1,.645,1.369q0,.021,0,.042V23.172A1.811,1.811,0,0,1,23.175,24.975ZM.75,9.716V23.172a.307.307,0,0,0,.305.3H23.17a.307.307,0,0,0,.305-.305V9.716a.519.519,0,0,0-.144-.316L12.113.939.894,9.4A.519.519,0,0,0,.75,9.716Z"  fill="#1b1c20"/>
      </g>
</svg>
