<svg width="82" height="109" viewBox="0 0 82 109" fill="none" xmlns="http://www.w3.org/2000/svg">
<path d="M81.757 45.295L73.434 14.03C73.2724 13.4234 72.9676 12.8644 72.545 12.4001C72.1225 11.9358 71.5947 11.5798 71.006 11.362L42.9419 0.531007C41.6973 0.0508215 40.3186 0.0508215 39.074 0.531007L10.9829 11.331C10.399 11.5569 9.87562 11.9156 9.45422 12.3786C9.03281 12.8417 8.72496 13.3964 8.55492 13.999L0.231925 45.321C0.0944144 45.8391 0.0684732 46.3806 0.155875 46.9095C0.243278 47.4384 0.441989 47.9427 0.738883 48.389L39.4469 107.478C39.6153 107.73 39.8435 107.937 40.1111 108.081C40.3787 108.224 40.6775 108.299 40.9809 108.299C41.2844 108.299 41.5832 108.224 41.8508 108.081C42.1184 107.937 42.3465 107.73 42.5149 107.478L81.224 48.421C81.5376 47.9714 81.7478 47.458 81.84 46.9176C81.9321 46.3772 81.9038 45.8232 81.757 45.295ZM79.303 44.868C79.303 44.895 79.3299 44.948 79.3299 44.975L58.948 59.621L58.1739 57.007L71.6999 16.321L79.303 44.868ZM17.333 69.597L3.30089 48.202L28.3509 35.744L52.734 64.075L42.09 71.731L17.333 69.597ZM39.9549 73.278L26.2429 83.148L18.5869 71.464L39.9549 73.278ZM56.361 56.978L54.387 62.927L54.1999 63.06L30.0039 34.921L47.371 26.278L56.361 56.978ZM48.9449 25.499L70.3669 14.855L57.3219 54.07L48.9449 25.499ZM53.453 65.728L51.2119 72.504L44.8119 71.944L53.453 65.728ZM55 66.635L60.762 73.335L52.9989 72.668L55 66.635ZM61.0559 75.092L43.0489 102.569L52.439 74.345L61.0559 75.092ZM55.641 64.692L55.881 63.998L57.9879 62.477L60.1759 69.977L55.641 64.692ZM56.788 61.171L57.215 59.917L57.4549 60.717L56.788 61.171ZM42.943 2.98901L69.1429 13.073C69.2989 13.133 69.4503 13.2042 69.5959 13.286L48.4409 23.797L42.2739 2.77201C42.5149 2.85201 42.7289 2.90501 42.9419 2.98501L42.943 2.98901ZM39.0749 2.98901C39.5196 2.81674 39.9867 2.70898 40.4619 2.66901L46.891 24.597L28.8579 33.56L11.7849 13.712C12.1195 13.437 12.4981 13.2207 12.9049 13.072L39.0749 2.98901ZM2.68798 44.898L10.4509 15.74C10.5061 15.5301 10.5776 15.3248 10.6649 15.126L27.2049 34.36L2.60497 46.578C2.51249 46.0175 2.54036 45.4438 2.68688 44.895L2.68798 44.898ZM27.177 84.598L42.6229 73.498L50.6229 74.192L40.459 104.792C40.3992 104.735 40.3455 104.673 40.2989 104.605L27.177 84.598ZM62.7369 72.513L59.4819 61.389L79.1959 47.224C79.0875 47.4895 78.9625 47.748 78.8219 47.998L62.7369 72.513Z" fill="url(#paint0_linear_1_43)"/>
<defs>
<linearGradient id="paint0_linear_1_43" x1="60.8735" y1="11.7405" x2="19.0014" y2="75.7443" gradientUnits="userSpaceOnUse">
<stop stop-color="#E7D0AA"/>
<stop offset="0.179" stop-color="#E1CAA5"/>
<stop offset="0.368" stop-color="#D3BA96"/>
<stop offset="0.562" stop-color="#BFA280"/>
<stop offset="0.759" stop-color="#A68364"/>
<stop offset="0.957" stop-color="#886246"/>
<stop offset="1" stop-color="#825B40"/>
</linearGradient>
</defs>
</svg>
