<?xml version="1.0" encoding="utf-8"?>
<!-- Generator: Adobe Illustrator 25.2.3, SVG Export Plug-In . SVG Version: 6.00 Build 0)  -->
<svg version="1.1" id="Layer_1" xmlns="http://www.w3.org/2000/svg" xmlns:xlink="http://www.w3.org/1999/xlink" x="0px" y="0px"
	 viewBox="0 0 370 367" style="enable-background:new 0 0 370 367;" xml:space="preserve">
<g>
	<path fill="#1D2453" d="M185,13.6C89.2,13.6,11.6,91.2,11.6,187c0,42.7,15.5,81.8,41,112c1.6-13.7,4.2-27.7,8.7-37.6
		c1.3-11.8,8.9-23.9,19.6-27.6c8.9-3.2,27.2-10.8,41.8-17l9.1-5.3c0.1-0.1,0.2-0.1,0.3-0.1c1.9-2,4.5-3.8,7-5.2
		c0.4,0.4,0.9,0.8,1.3,1.2l8.7-5.3l1.2-0.7l0.6-3.9l0.3-1.6l2.1-13.6c-3.6-2.6-6.7-5.8-8.9-10.1c-0.5-1-1-2.1-1.5-3.1
		c-3.6-5.9-6.4-12.9-8.3-21.1c0-0.1,0-0.2-0.1-0.3c-2.4,0.1-9.7-0.8-12.8-16.1c-3.7-18.5,7.4-17.2,7.4-17.2h0.8v-0.1
		c0,0,0-0.1,0-0.2V114c0-0.2,0-0.4-0.1-0.7c0-0.1,0-0.1,0-0.2c0-0.3-0.1-0.7-0.1-1.1c0-0.1,0-0.2,0-0.2c0-0.5-0.1-1-0.1-1.6
		c0-0.1,0-0.1,0-0.1c-0.1-1.3-0.2-2.9-0.3-4.7c-0.1-1.8-0.2-3.8-0.2-6l0,0c0-1.1,0-2.2,0-3.4l0,0c0-5.8,0.4-12.4,1.5-19
		c0-0.1,0-0.2,0.1-0.3c0.2-1.2,0.4-2.4,0.7-3.6c0-0.1,0-0.2,0.1-0.3c0.3-1.3,0.6-2.5,0.9-3.8l0,0c3.9-14.5,12.2-27,29-27.5
		c44.5-9.1,63.7,5.9,71.5,24.7l0,0c0,0.1,0,0.1,0.1,0.2c0.5,1.3,1,2.6,1.4,3.9v0.1c4.5,13.9,3.6,28.8,2.4,37.3v0.1
		c-0.1,0.8-0.2,1.5-0.3,2.2v0.1c-0.1,0.7-0.2,1.4-0.3,1.9c0,0.8,0,1.7,0,2.5h1.9c0,0,11.1-1.2,7.4,17.2
		c-3.1,15.3-10.4,16.2-12.8,16.1c0,0.1,0,0.2-0.1,0.3c-2.2,9.5-5.6,17.4-10,23.8c-0.1,0.1-0.1,0.2-0.2,0.4c-1.8,3.5-4.2,6.3-7,8.6
		l2.4,15l0.3,1.6l0.6,3.9l1.2,0.7l8.8,5.4c0.4-0.4,0.9-0.7,1.2-1.1c0.7,0.5,1.4,1.1,2.1,1.7c1.1,1,2,2,2.8,3
		c0.3,0.1,0.6,0.2,0.8,0.3l9.1,5.3c14.6,6.2,32.9,13.8,41.8,17c8.6,3,15.1,11.4,18.1,20.7c0.3,0.4,0.6,0.8,0.9,1.2
		c6.4,9.7,9.9,26.6,11.8,43.3c25.6-30.2,41-69.3,41-112C358.4,91.2,280.8,13.6,185,13.6z"/>
	<path fill="#CC962B" d="M236,113.5c-0.1,0.2-0.1,0.5-0.1,0.6s0,0.1,0,0.2s0,0.2,0,0.2s-0.6,14.9-2,17.2c-0.7,1.1-1.3,1.7-1.8,2.1
		c-0.5,4.2-1.1,8.1-1.9,11.8c0.4,0.4,0.7,0.9,0.6,1.6c-0.6,4.2-2.4,13.4-8,24.6c4.5-6.4,7.8-14.3,10-23.8c0-0.1,0-0.2,0.1-0.3
		c2.4,0.1,9.7-0.8,12.8-16.1c3.7-18.5-7.4-17.2-7.4-17.2h-1.9c0-0.9,0-1.7,0-2.5c-0.1,0.5-0.2,0.9-0.2,1.3
		C236,113.4,236,113.4,236,113.5z"/>
	<path fill="#CC962B" d="M137.4,145.4c-0.8-3.8-1.4-7.8-1.9-12.1c-0.5-0.4-1.2-1.1-2-2.3c-1.5-2-3.2-15.6-3.4-16.5h-0.8
		c0,0-11.1-1.2-7.4,17.2c3.1,15.3,10.4,16.2,12.8,16.1c0,0.1,0,0.2,0.1,0.3c1.9,8.2,4.7,15.2,8.3,21.1c-4.6-10-6.2-18.1-6.7-21.9
		C136.2,146.4,136.7,145.7,137.4,145.4z"/>
	<path fill="#CC962B" d="M218.1,197.5l-0.3-1.6l-2.4-15c-9.8,8.1-24.2,10-32,10c-7.3,0-20.4-1.6-30.1-8.5l-2.1,13.6l-0.3,1.6
		c10.2,4.1,21.6,6.3,33.5,6.3C196.5,203.8,207.8,201.6,218.1,197.5z"/>
	<path fill="#4D461F" d="M236.9,107.7c-0.1,0.8-0.2,1.5-0.3,2.2C236.7,109.3,236.8,108.5,236.9,107.7z"/>
	<path fill="#4D461F" d="M233,66.3c0.5,1.3,1,2.6,1.4,3.9C234,68.9,233.6,67.6,233,66.3z"/>
	<path fill="#4D461F" d="M235.8,114.1c0-0.2,0.1-0.4,0.1-0.6C235.9,113.7,235.9,114,235.8,114.1z"/>
	<path fill="#876427" d="M156.5,57.2c17.9-5.3,29.5,3.6,37.8,3.6s6.7-1,11.8-3.6s26.7,8.9,26.9,9c-7.8-18.8-27-33.8-71.5-24.7
		c-16.9,0.5-25.1,13-29,27.5C132.4,68.9,138.5,62.4,156.5,57.2z"/>
	<path fill="#4D461F" d="M236.9,107.6c1.1-8.5,2-23.5-2.4-37.3C239,84.1,238.1,99.1,236.9,107.6z"/>
	<path fill="#4D461F" d="M236.3,112c0.1-0.6,0.2-1.2,0.3-1.9c-0.2,1.4-0.4,2.4-0.6,3.2C236.1,112.9,236.2,112.5,236.3,112z"/>
	<path fill="#4D461F" d="M129.2,96c0-5.8,0.4-12.4,1.5-19C129.6,83.6,129.2,90.2,129.2,96z"/>
	<path fill="#4D461F" d="M129.7,110.2c-0.1-1.3-0.2-2.9-0.3-4.7C129.5,107.3,129.6,108.9,129.7,110.2z"/>
	<path fill="#4D461F" d="M135.1,109.9c0-3.5,0-7,0.2-10.3C135.1,102.9,135,106.4,135.1,109.9z"/>
	<path fill="#A2762B" d="M215.5,180.9c2.8-2.3,5.2-5.2,7-8.6c0.1-0.1,0.1-0.2,0.2-0.4c5.6-11.2,7.5-20.4,8-24.6
		c0.1-0.6-0.2-1.2-0.6-1.6c-0.4-0.3-0.9-0.5-1.5-0.4c-7.6,1.5-30.9,6.3-30.7,8.2c0.3,2.3,6.7,1.3,9,2.3s4.8,9.8,2.2,13.7
		c-2.6,3.8-10.7,10.5-25.5,10.5c-14.9,0-23-6.7-25.5-10.5c-2.6-3.8-0.1-12.6,2.2-13.7c2.3-1,8.7,0,9-2.3c0.2-1.9-23.1-6.7-30.7-8.2
		c-0.4-0.1-0.7,0-1.1,0.2c-0.7,0.3-1.2,1-1.1,1.8c0.5,3.9,2.1,11.9,6.7,21.9c0.5,1,0.9,2,1.5,3.1c2.1,4.2,5.3,7.5,8.9,10.1
		c9.7,6.9,22.8,8.5,30.1,8.5C191.3,190.8,205.7,189,215.5,180.9z"/>
	<path fill="#A2762B" d="M135.5,133.3c0.4,0.4,0.6,0.5,0.6,0.5s-0.1-1.3-0.3-3.5c0-0.6-0.1-1.3-0.1-2.1c-0.1-1.1-0.1-2.4-0.2-3.8
		c-0.1-2.3-0.2-4.9-0.3-7.7c0-0.6,0-1.1,0-1.7c0-1.7-0.1-3.4-0.1-5.2c0-3.5,0-7,0.2-10.3c0.1-2.7,0.3-5.3,0.6-7.6
		c0.2-1.6,0.5-3.4,0.9-5.1c1.6-2.2,3.5-4.6,5.3-6.3c-1,3.1-2,5.6-2,5.6s10.6-7.8,13.4-15c0.3-0.4,0.6-0.7,0.9-1.1
		c5.6,4,20.1,5.8,20.1,5.8l-4-6.1c0,0,13.5,11,20.5,5.8c-5.4-1.4-10-6.5-10-6.5s1.5,0.8,4.1,1.8c10.3,4.8,28.1,9.4,28.1,9.4
		s-1.7-1.5-3.2-3.6c2.1,0.4,4.3,1.1,6.4,2.1c2.6,1.2,5.2,2.8,7.3,4.5c3,2.3,5.4,4.8,6.3,6.8c0.1,0.1,0.1,0.3,0.2,0.5
		c0.1,0.4,0.2,1,0.3,1.6c0,0.3,0.1,0.7,0.1,1.1c0.1,1.1,0.2,2.5,0.3,4c0.2,4.1,0.3,9.4,0.3,14.6c0,6.6-0.1,13.2-0.2,17.5
		c0,1.3-0.1,2.4-0.1,3.2c0,0.5,0,1,0,1.3c0,0.3,0,0.4,0,0.4s0.4-0.1,0.9-0.6c0.5-0.4,1.2-1.1,1.8-2.1c1.4-2.3,2-17.2,2-17.2
		s0-0.1,0-0.2s0-0.1,0-0.2c0-0.2,0.1-0.4,0.1-0.6c0-0.1,0-0.2,0.1-0.3c0.1-0.8,0.3-1.8,0.6-3.2v-0.1c0.1-0.7,0.2-1.4,0.3-2.2v-0.1
		c1.1-8.5,2-23.5-2.4-37.3V70c-0.4-1.3-0.9-2.6-1.4-3.9c0-0.1,0-0.1-0.1-0.2l0,0c-0.1-0.1-21.7-11.6-26.9-9
		c-5.1,2.6-3.6,3.6-11.8,3.6s-19.8-8.8-37.8-3.6s-24.1,11.8-24.1,11.8l0,0c-0.3,1.3-0.6,2.5-0.9,3.8c0,0.1,0,0.2-0.1,0.3
		c-0.3,1.2-0.5,2.4-0.7,3.6c0,0.1,0,0.2-0.1,0.3c-1.1,6.6-1.5,13.2-1.5,19l0,0c0,1.2,0,2.3,0,3.4l0,0c0,2.2,0.1,4.2,0.2,6
		s0.2,3.4,0.3,4.7c0,0.1,0,0.1,0,0.1c0,0.6,0.1,1.1,0.1,1.6c0,0.1,0,0.2,0,0.2c0,0.4,0.1,0.8,0.1,1.1c0,0.1,0,0.1,0,0.2
		c0,0.3,0.1,0.5,0.1,0.7v0.1c0,0.1,0,0.2,0,0.2v0.1c0.1,0.9,1.8,14.6,3.4,16.5C134.3,132.2,135,132.9,135.5,133.3z"/>
	<path fill="#717477" d="M304.7,254.5c-3-9.3-9.5-17.7-18.1-20.7c-8.9-3.2-27.2-10.8-41.8-17l-9.1-5.3c-0.3-0.2-0.5-0.3-0.8-0.3
		c-0.7-1.1-1.7-2.1-2.8-3c-5.6,11.4-24.7,19.8-47.4,19.8c-23.1,0-42.5-8.7-47.7-20.4c0.7-0.5,1.5-0.9,2.2-1.4
		c-2.5,1.5-5.1,3.3-7,5.2c-0.1,0.1-0.2,0.1-0.3,0.1l-9.1,5.3c-14.6,6.2-32.9,13.8-41.8,17c-10.7,3.8-18.2,15.9-19.6,27.6
		c-4.5,9.9-7.1,23.8-8.7,37.6c11.3,13.4,24.7,25,39.6,34.5l-1.5-10.8l-10.6-32.6l-0.9-2.8c-0.4-1.2,0.3-2.5,1.5-2.9s2.5,0.3,2.9,1.5
		l1.9,5.9l9,27.8l0.6,2c0,0.1,0.1,0.3,0.1,0.4l2,14.7c25.7,15.1,55.7,23.8,87.6,23.8c31.6,0,61.2-8.5,86.7-23.2l2.2-15.3
		c0-0.1,0-0.3,0.1-0.4l0.8-2.4l9-27.8l1.8-5.4c0.4-1.2,1.7-1.9,2.9-1.5c1.2,0.4,1.9,1.7,1.5,2.9l-0.7,2l-10.8,33.5l-1.7,11.4
		c15.3-9.6,29-21.4,40.6-35.1c-1.9-16.7-5.4-33.6-11.8-43.3C305.3,255.2,305,254.9,304.7,254.5z"/>
	<path fill="#FFFFFF" d="M184.7,228c22.7,0,41.8-8.4,47.4-19.8c-0.7-0.6-1.4-1.2-2.1-1.7c-0.4,0.4-0.8,0.7-1.2,1.1
		c-10.6,9.9-26.4,16.2-44,16.2c-17.7,0-33.5-6.3-44.2-16.2c-0.4-0.4-0.9-0.8-1.3-1.2c-0.7,0.4-1.5,0.9-2.2,1.4
		C142.2,219.3,161.6,228,184.7,228z"/>
	<path fill="#FFFFFF" d="M95.2,321.5l-0.6-2l-9-27.8l-1.9-5.9c-0.4-1.2-1.7-1.9-2.9-1.5c-1.2,0.4-1.9,1.7-1.5,2.9l0.9,2.8l10.6,32.6
		l1.5,10.8c1.7,1.1,3.4,2.1,5.1,3.1l-2-14.7C95.3,321.7,95.3,321.6,95.2,321.5z"/>
	<path fill="#FFFFFF" d="M289.3,289.3l0.7-2c0.4-1.2-0.3-2.5-1.5-2.9s-2.5,0.3-2.9,1.5l-1.8,5.4l-9,27.8l-0.8,2.4
		c0,0.1-0.1,0.3-0.1,0.4l-2.2,15.3c1.7-1,3.4-2,5.1-3.1l1.7-11.4L289.3,289.3z"/>
	<path fill="#FDB515" d="M228.7,207.5l-8.8-5.4l-1.2-0.7l-0.6-3.9c-10.2,4.1-21.6,6.3-33.5,6.3c-12,0-23.3-2.3-33.5-6.3l-0.6,3.9
		l-1.2,0.7l-8.7,5.3c10.6,9.9,26.5,16.2,44.2,16.2C202.3,223.7,218.1,217.4,228.7,207.5z"/>
	<path fill="#FDB515" d="M231,134.4c0,0,0-0.2,0-0.4c0-0.3,0-0.7,0-1.3c0-0.8,0-1.9,0.1-3.2c0.1-4.3,0.2-10.9,0.2-17.5
		c0-5.3-0.1-10.5-0.3-14.6c-0.1-1.5-0.2-2.9-0.3-4c0-0.4-0.1-0.7-0.1-1.1c-0.1-0.7-0.2-1.2-0.3-1.6c-0.1-0.2-0.1-0.4-0.2-0.5
		c-0.9-1.9-3.3-4.4-6.3-6.8c-2.2-1.7-4.7-3.2-7.3-4.5c-2.1-1-4.3-1.7-6.4-2.1c1.5,2.1,3.2,3.6,3.2,3.6s-17.9-4.7-28.1-9.4
		c-2.5-1-4.1-1.8-4.1-1.8s4.6,5.1,10,6.5c-7,5.3-20.5-5.8-20.5-5.8l4,6.1c0,0-14.5-1.8-20.1-5.8c-0.3,0.4-0.6,0.8-0.9,1.1
		c-2.9,7.2-13.4,15-13.4,15s1-2.5,2-5.6c-1.8,1.7-3.7,4-5.3,6.3c-0.4,1.8-0.7,3.5-0.9,5.1c-0.3,2.3-0.5,4.8-0.6,7.6
		c-0.1,3.3-0.2,6.8-0.2,10.3c0,1.7,0,3.5,0.1,5.2c0,0.6,0,1.1,0,1.7c0.1,2.8,0.2,5.4,0.3,7.7c0.1,1.4,0.1,2.7,0.2,3.8
		c0,0.8,0.1,1.5,0.1,2.1c0.1,2.2,0.3,3.5,0.3,3.5s-0.2-0.2-0.6-0.5c0.5,4.3,1.1,8.3,1.9,12.1c0.3-0.1,0.7-0.2,1.1-0.2
		c7.6,1.5,30.9,6.3,30.7,8.2c-0.3,2.3-6.7,1.3-9,2.3s-4.8,9.8-2.2,13.7c2.6,3.8,10.7,10.5,25.5,10.5c14.9,0,23-6.7,25.5-10.5
		c2.6-3.8,0.1-12.6-2.2-13.7c-2.3-1-8.7,0-9-2.3c-0.2-1.9,23.1-6.7,30.7-8.2c0.6-0.1,1.1,0.1,1.5,0.4c0.8-3.7,1.4-7.6,1.9-11.8
		C231.4,134.3,231,134.4,231,134.4z"/>
</g>
</svg>
