<svg width="172" height="174" xmlns="http://www.w3.org/2000/svg" xmlns:xlink="http://www.w3.org/1999/xlink" xml:space="preserve" version="1.0">
 <g>
  <title>Layer 1</title>
  <g id="svg_1" transform="matrix(1 0 0 1 -120 -113)" xmlns="http://www.w3.org/2000/svg">
   <g id="svg_2">
    <defs transform="translate(0 -1)">
     <rect height="400" width="400" id="SVGID_1114_"/>
    </defs>
    <clipPath transform="translate(0 -1)" id="SVGID_26_">
     <use x="0" y="-1" id="svg_3" xlink:href="#SVGID_1114_" xmlns:xlink="http://www.w3.org/1999/xlink"/>
    </clipPath>
    <g id="svg_4" clip-path="url(#SVGID_26_)" class="st11">
     <defs transform="translate(0 -1)">
      <rect height="400" width="400" id="SVGID_1116_"/>
     </defs>
     <clipPath transform="translate(0 -1)" id="SVGID_28_">
      <use x="0" y="-1" id="svg_5" xlink:href="#SVGID_1116_" xmlns:xlink="http://www.w3.org/1999/xlink"/>
     </clipPath>
     <g id="svg_6" clip-path="url(#SVGID_28_)">
      <g id="svg_7">
       <defs transform="translate(0 -1)">
        <rect height="400" width="400" id="SVGID_1118_"/>
       </defs>
       <clipPath transform="translate(0 -1)" id="SVGID_30_">
        <use x="0" y="-1" id="svg_8" xlink:href="#SVGID_1118_" xmlns:xlink="http://www.w3.org/1999/xlink"/>
       </clipPath>
       <g id="svg_9" clip-path="url(#SVGID_30_)" class="st13">
        <defs transform="translate(0 -1)">
         <circle r="85" cy="200" cx="206" id="SVGID_1150_"/>
        </defs>
        <clipPath transform="translate(0 -1)" id="SVGID_62_">
         <use x="0" y="-1" id="svg_10" xlink:href="#SVGID_1150_" xmlns:xlink="http://www.w3.org/1999/xlink"/>
        </clipPath>
        <g id="svg_11" clip-path="url(#SVGID_62_)" class="st28">
         <defs transform="translate(0 -1)">
          <rect height="400" width="400" id="SVGID_1152_"/>
         </defs>
         <clipPath transform="translate(0 -1)" id="SVGID_64_">
          <use x="0" y="-1" id="svg_12" xlink:href="#SVGID_1152_" xmlns:xlink="http://www.w3.org/1999/xlink"/>
         </clipPath>
         <rect id="svg_13" clip-path="url(#SVGID_64_)" fill="#FCC40F" height="172" width="172" y="113" x="120"/>
        </g>
       </g>
       <g id="svg_14" clip-path="url(#SVGID_30_)" class="st13">
        <defs transform="translate(0 -1)">
         <circle r="80.5" cy="199.5" cx="206.5" id="SVGID_1156_"/>
        </defs>
        <clipPath transform="translate(0 -1)" id="SVGID_68_">
         <use x="0" y="-1" id="svg_15" xlink:href="#SVGID_1156_" xmlns:xlink="http://www.w3.org/1999/xlink"/>
        </clipPath>
        <g id="svg_16" clip-path="url(#SVGID_68_)">
         <defs transform="translate(0 -1)">
          <rect height="400" width="400" id="SVGID_1158_"/>
         </defs>
         <clipPath transform="translate(0 -1)" id="SVGID_70_">
          <use x="0" y="-1" id="svg_17" xlink:href="#SVGID_1158_" xmlns:xlink="http://www.w3.org/1999/xlink"/>
         </clipPath>
         <rect id="svg_18" clip-path="url(#SVGID_70_)" fill="#FCC40F" height="163" width="163" y="117" x="125"/>
        </g>
       </g>
       <g id="svg_19" clip-path="url(#SVGID_30_)" class="st13">
        <defs transform="translate(0 -1)">
         <rect height="400" width="400" id="SVGID_1160_"/>
        </defs>
        <clipPath transform="translate(0 -1)" id="SVGID_72_">
         <use x="0" y="-1" id="svg_20" xlink:href="#SVGID_1160_" xmlns:xlink="http://www.w3.org/1999/xlink"/>
        </clipPath>
        <path id="svg_21" clip-path="url(#SVGID_72_)" fill="none" stroke="#1B1C20" stroke-width="3" stroke-linecap="round" stroke-linejoin="round" stroke-miterlimit="10" d="m258.8,195.8c-2,2 -5.3,2 -7.3,0l-39.3,-39.3c-2,-2 -2,-5.3 0,-7.3c2,-2 5.3,-2 7.3,0l39.3,39.3c2.1,2 2.1,5.3 0,7.3z"/>
        <path id="svg_22" clip-path="url(#SVGID_72_)" fill="none" stroke="#1B1C20" stroke-width="3" stroke-linecap="round" stroke-linejoin="round" stroke-miterlimit="10" d="m261.2,183.6c-2,2 -5.3,2 -7.3,0l-29.4,-29.4c-2,-2 -2,-5.3 0,-7.3c2,-2 5.3,-2 7.3,0l29.4,29.4c2,2 2,5.3 0,7.3z"/>
        <path id="svg_23" clip-path="url(#SVGID_72_)" fill="none" stroke="#1B1C20" stroke-width="3" stroke-linecap="round" stroke-linejoin="round" stroke-miterlimit="10" d="m262.3,171.5c-1.5,1.5 -4,1.5 -5.5,0l-20,-20c-1.5,-1.5 -1.5,-4 0,-5.5c1.5,-1.5 4,-1.5 5.5,0l20,20c1.5,1.5 1.5,4 0,5.5z"/>
        <line id="svg_24" clip-path="url(#SVGID_72_)" fill="none" stroke="#1B1C20" stroke-width="3" stroke-linecap="round" stroke-linejoin="round" stroke-miterlimit="10" y2="172.7" x2="228.5" y1="192.3" x1="208.9"/>
        <line id="svg_25" clip-path="url(#SVGID_72_)" fill="none" stroke="#1B1C20" stroke-width="3" stroke-linecap="round" stroke-linejoin="round" stroke-miterlimit="10" y2="179.6" x2="235.3" y1="199.1" x1="215.7"/>
        <path id="svg_26" clip-path="url(#SVGID_72_)" fill="none" stroke="#1B1C20" stroke-width="3" stroke-linecap="round" stroke-linejoin="round" stroke-miterlimit="10" d="m249.1,151.1l5.1,-5.1c1.3,-1.3 3.3,-1.3 4.6,0l2.3,2.3c0.6,0.6 0.9,1.4 0.9,2.3c0,0.9 -0.3,1.7 -0.9,2.3l-5.1,5.1"/>
        <path id="svg_27" clip-path="url(#SVGID_72_)" fill="none" stroke="#1B1C20" stroke-width="3" stroke-linecap="round" stroke-linejoin="round" stroke-miterlimit="10" d="m223.8,228.9c-2.6,21 -21.1,36.4 -42.2,35s-37.6,-18.8 -37.6,-40s16.5,-38.7 37.6,-40s39.6,14 42.2,35c0.5,3.4 0.5,6.7 0,10z"/>
        <ellipse id="svg_28" clip-path="url(#SVGID_72_)" fill="none" stroke="#1B1C20" stroke-width="3" stroke-linecap="round" stroke-linejoin="round" stroke-miterlimit="10" ry="14.5" rx="14.5" cy="224.90146" cx="184.99517" transform="matrix(0.0985377 -0.9951 0.9951 0.0985377 -58.008 385.924)"/>
        <ellipse id="svg_29" clip-path="url(#SVGID_72_)" fill="none" stroke="#1B1C20" stroke-width="3" stroke-linecap="round" stroke-linejoin="round" stroke-miterlimit="10" ry="4.2" rx="4.2" cy="225.70146" cx="184.99517" transform="matrix(0.0985378 -0.9951 0.9951 0.0985378 -58.8082 386.651)"/>
       </g>
       <g id="svg_30" clip-path="url(#SVGID_30_)" class="st13">
        <defs transform="translate(0 -1)">
         <polygon points="178.9,195 178.8,195 177,196 176.7,194.9 179,193.7 180.3,193.7 180.3,204.4 178.9,204.4                 " id="SVGID_1162_"/>
        </defs>
        <clipPath transform="translate(0 -1)" id="SVGID_74_">
         <use x="0" y="-1" id="svg_31" xlink:href="#SVGID_1162_" xmlns:xlink="http://www.w3.org/1999/xlink"/>
        </clipPath>
        <g id="svg_32" clip-path="url(#SVGID_74_)" class="st35">
         <defs transform="translate(0 -1)">
          <rect height="400" width="400" id="SVGID_1164_"/>
         </defs>
         <clipPath transform="translate(0 -1)" id="SVGID_76_">
          <use x="0" y="-1" id="svg_33" xlink:href="#SVGID_1164_" xmlns:xlink="http://www.w3.org/1999/xlink"/>
         </clipPath>
         <rect id="svg_34" clip-path="url(#SVGID_76_)" fill="#1B1C20" height="12.8" width="5.6" y="191.7" x="175.7"/>
        </g>
       </g>
       <g id="svg_35" clip-path="url(#SVGID_30_)" class="st13">
        <defs transform="translate(0 -1)">
         <path d="m185.5,199.1c0,2.8 0.9,4.4 2.2,4.4c1.5,0 2.2,-1.7 2.2,-4.5c0,-2.6 -0.7,-4.4 -2.2,-4.4c-1.3,0 -2.2,1.6 -2.2,4.5l0,0zm5.8,-0.2c0,3.7 -1.4,5.7 -3.7,5.7c-2.1,0 -3.5,-2 -3.6,-5.5c0,-3.6 1.6,-5.6 3.7,-5.6c2.4,0 3.6,2 3.6,5.4z" id="SVGID_1166_"/>
        </defs>
        <clipPath transform="translate(0 -1)" id="SVGID_78_">
         <use x="0" y="-1" id="svg_36" xlink:href="#SVGID_1166_" xmlns:xlink="http://www.w3.org/1999/xlink"/>
        </clipPath>
        <g id="svg_37" clip-path="url(#SVGID_78_)" class="st38">
         <defs transform="translate(0 -1)">
          <rect height="400" width="400" id="SVGID_1168_"/>
         </defs>
         <clipPath transform="translate(0 -1)" id="SVGID_80_">
          <use x="0" y="-1" id="svg_38" xlink:href="#SVGID_1168_" xmlns:xlink="http://www.w3.org/1999/xlink"/>
         </clipPath>
         <rect id="svg_39" clip-path="url(#SVGID_80_)" fill="#1B1C20" height="13.1" width="9.3" y="191.5" x="183"/>
        </g>
       </g>
       <g id="svg_40" clip-path="url(#SVGID_30_)" class="st13">
        <defs transform="translate(0 -1)">
         <polygon points="178.9,248 178.8,248 177,249 176.7,247.9 179,246.6 180.3,246.6 180.3,257.4 178.9,257.4                 " id="SVGID_1170_"/>
        </defs>
        <clipPath transform="translate(0 -1)" id="SVGID_82_">
         <use x="0" y="-1" id="svg_41" xlink:href="#SVGID_1170_" xmlns:xlink="http://www.w3.org/1999/xlink"/>
        </clipPath>
        <g id="svg_42" clip-path="url(#SVGID_82_)">
         <defs transform="translate(0 -1)">
          <rect height="400" width="400" id="SVGID_1172_"/>
         </defs>
         <clipPath transform="translate(0 -1)" id="SVGID_84_">
          <use x="0" y="-1" id="svg_43" xlink:href="#SVGID_1172_" xmlns:xlink="http://www.w3.org/1999/xlink"/>
         </clipPath>
         <rect id="svg_44" clip-path="url(#SVGID_84_)" fill="#1B1C20" height="12.8" width="5.6" y="244.6" x="175.7"/>
        </g>
       </g>
       <g id="svg_45" clip-path="url(#SVGID_30_)" class="st13">
        <defs transform="translate(0 -1)">
         <path d="m185.5,252.1c0,2.8 0.9,4.4 2.2,4.4c1.5,0 2.2,-1.7 2.2,-4.5c0,-2.6 -0.7,-4.4 -2.2,-4.4c-1.3,0 -2.2,1.5 -2.2,4.5zm5.8,-0.2c0,3.7 -1.4,5.7 -3.7,5.7c-2.1,0 -3.5,-2 -3.6,-5.5c0,-3.6 1.6,-5.6 3.7,-5.6c2.4,0 3.6,2 3.6,5.4z" id="SVGID_1174_"/>
        </defs>
        <clipPath transform="translate(0 -1)" id="SVGID_86_">
         <use x="0" y="-1" id="svg_46" xlink:href="#SVGID_1174_" xmlns:xlink="http://www.w3.org/1999/xlink"/>
        </clipPath>
        <g id="svg_47" clip-path="url(#SVGID_86_)">
         <defs transform="translate(0 -1)">
          <rect height="400" width="400" id="SVGID_1176_"/>
         </defs>
         <clipPath transform="translate(0 -1)" id="SVGID_88_">
          <use x="0" y="-1" id="svg_48" xlink:href="#SVGID_1176_" xmlns:xlink="http://www.w3.org/1999/xlink"/>
         </clipPath>
         <rect id="svg_49" clip-path="url(#SVGID_88_)" fill="#1B1C20" height="13.1" width="9.3" y="244.5" x="183"/>
        </g>
       </g>
      </g>
     </g>
    </g>
   </g>
  </g>
 </g>
</svg>