<?xml version="1.0" encoding="UTF-8"?>
<svg version="1.1" viewBox="0 0 232.82 46.74" xmlns="http://www.w3.org/2000/svg"
    xmlns:cc="http://creativecommons.org/ns#" xmlns:dc="http://purl.org/dc/elements/1.1/"
    xmlns:rdf="http://www.w3.org/1999/02/22-rdf-syntax-ns#">
    <defs>
        <clipPath id="clipPath26">
            <path
                d="m298.24 553.76c-8.438 0-15.959-2.441-22.351-7.256-1.207-0.909-2.322-1.879-3.389-2.878-1.265 1.442-2.733 2.753-4.396 3.913-4.696 3.275-10.482 4.934-17.195 4.934h-65.07c-0.248 0-0.495-8e-3 -0.741-0.025h-10.522c-2.044 0-3.989-0.584-5.652-1.612-2.99 0.999-6.545 1.637-10.765 1.637h-46.137c-8.438 0-15.959-2.441-22.352-7.256-6.242-4.7-10.613-10.627-12.994-17.622l-4.05-11.932c-2.027-5.715-2.08-11.26-0.239-16.193-3.594-0.807-6.591-3.424-7.819-7.012l-2.327-6.798c-3.061-8.623-1.633-16.858 4.019-23.191 3.534-3.965 10.167-8.691 21.692-8.691h46.799c5.998 0 11.461 1.237 16.322 3.677 2.03-2.319 4.966-3.677 8.084-3.677h25.91c4.595 0 8.684 2.921 10.174 7.268l5.078 14.816h34.091c4.427 0 8.597 0.683 12.487 2.026 0.08-5.227 1.957-10.072 5.583-14.135 3.535-3.964 10.168-8.689 21.692-8.689h48.781c8.458 0 15.97 2.452 22.326 7.286 6.128 4.659 10.489 10.522 12.96 17.425l0.045 0.124 1.722 5.004h14.782l-5.83-16.852c-1.138-3.287-0.615-6.922 1.403-9.757 2.017-2.833 5.282-4.516 8.761-4.516h25.911c4.586 0 8.665 2.906 10.165 7.24l8.265 23.885h17.711l-5.831-16.853c-1.137-3.287-0.615-6.921 1.403-9.756 2.018-2.833 5.283-4.516 8.761-4.516h25.91c4.586 0 8.666 2.906 10.166 7.24l8.264 23.885h16.945l-0.884-2.553c-2.236-6.459-1.222-13.386 2.78-19.007 4.264-5.989 11.36-9.566 18.98-9.566h62.773c1.549 0 3.038 0.339 4.392 0.946 1.357-0.604 2.835-0.945 4.363-0.945h25.911c4.589 0 8.674 2.913 10.169 7.253l5.74 16.661 29.836-51.092c1.928-3.301 5.465-5.332 9.288-5.332h29.745c3.913 0 7.518 2.125 9.412 5.551 1.895 3.424 1.779 7.608-0.301 10.922l-27.851 44.39c2.76 1.124 5.305 2.556 7.624 4.293 6.326 4.74 10.76 10.589 13.179 17.383 0.013 0.036 0.027 0.073 0.039 0.111l5.735 16.684c2.958 8.504 1.538 16.685-3.998 23.036-3.513 4.031-10.132 8.835-21.717 8.835h-66.098c-1.548 0-3.037-0.337-4.392-0.944-1.357 0.603-2.834 0.944-4.362 0.944h-70.391c-3.593 0-7.03-0.786-10.101-2.217-1.854 1.422-4.148 2.217-6.541 2.217h-156.28c-3.432 0-6.581-1.628-8.577-4.264-3.881 2.961-9.715 5.551-18.245 5.551z" />
        </clipPath>
        <radialGradient id="radialGradient36" cx="0" cy="0" r="1"
            gradientTransform="matrix(237.99 0 0 -237.99 390.65 487.51)" gradientUnits="userSpaceOnUse">
            <stop stop-color="#eab808" offset="0" />
            <stop stop-color="#d6a315" offset="1" />
        </radialGradient>
    </defs>
    <metadata>
        <rdf:RDF>
            <cc:Work rdf:about="">
                <dc:format>image/svg+xml</dc:format>
                <dc:type rdf:resource="http://purl.org/dc/dcmitype/StillImage" />
                <dc:title />
            </cc:Work>
        </rdf:RDF>
    </metadata>
    <g transform="translate(-8.9736 -24.983)">
        <g transform="matrix(.35278 0 0 -.35278 -12.428 220.34)">
            <g clip-path="url(#clipPath26)">
                <path
                    d="m298.24 553.76c-8.438 0-15.959-2.441-22.351-7.256-1.207-0.909-2.322-1.879-3.389-2.878-1.265 1.442-2.733 2.753-4.396 3.913-4.696 3.275-10.482 4.934-17.195 4.934h-65.07c-0.248 0-0.495-8e-3 -0.741-0.025h-10.522c-2.044 0-3.989-0.584-5.652-1.612-2.99 0.999-6.545 1.637-10.765 1.637h-46.137c-8.438 0-15.959-2.441-22.352-7.256-6.242-4.7-10.613-10.627-12.994-17.622l-4.05-11.932c-2.027-5.715-2.08-11.26-0.239-16.193-3.594-0.807-6.591-3.424-7.819-7.012l-2.327-6.798c-3.061-8.623-1.633-16.858 4.019-23.191 3.534-3.965 10.167-8.691 21.692-8.691h46.799c5.998 0 11.461 1.237 16.322 3.677 2.03-2.319 4.966-3.677 8.084-3.677h25.91c4.595 0 8.684 2.921 10.174 7.268l5.078 14.816h34.091c4.427 0 8.597 0.683 12.487 2.026 0.08-5.227 1.957-10.072 5.583-14.135 3.535-3.964 10.168-8.689 21.692-8.689h48.781c8.458 0 15.97 2.452 22.326 7.286 6.128 4.659 10.489 10.522 12.96 17.425l0.045 0.124 1.722 5.004h14.782l-5.83-16.852c-1.138-3.287-0.615-6.922 1.403-9.757 2.017-2.833 5.282-4.516 8.761-4.516h25.911c4.586 0 8.665 2.906 10.165 7.24l8.265 23.885h17.711l-5.831-16.853c-1.137-3.287-0.615-6.921 1.403-9.756 2.018-2.833 5.283-4.516 8.761-4.516h25.91c4.586 0 8.666 2.906 10.166 7.24l8.264 23.885h16.945l-0.884-2.553c-2.236-6.459-1.222-13.386 2.78-19.007 4.264-5.989 11.36-9.566 18.98-9.566h62.773c1.549 0 3.038 0.339 4.392 0.946 1.357-0.604 2.835-0.945 4.363-0.945h25.911c4.589 0 8.674 2.913 10.169 7.253l5.74 16.661 29.836-51.092c1.928-3.301 5.465-5.332 9.288-5.332h29.745c3.913 0 7.518 2.125 9.412 5.551 1.895 3.424 1.779 7.608-0.301 10.922l-27.851 44.39c2.76 1.124 5.305 2.556 7.624 4.293 6.326 4.74 10.76 10.589 13.179 17.383 0.013 0.036 0.027 0.073 0.039 0.111l5.735 16.684c2.958 8.504 1.538 16.685-3.998 23.036-3.513 4.031-10.132 8.835-21.717 8.835h-66.098c-1.548 0-3.037-0.337-4.392-0.944-1.357 0.603-2.834 0.944-4.362 0.944h-70.391c-3.593 0-7.03-0.786-10.101-2.217-1.854 1.422-4.148 2.217-6.541 2.217h-156.28c-3.432 0-6.581-1.628-8.577-4.264-3.881 2.961-9.715 5.551-18.245 5.551z"
                    fill="url(#radialGradient36)" />
            </g>
        </g>
        <g transform="matrix(.35278 0 0 -.35278 227.73 36.303)">
            <path
                d="m0 0-4.358-12.65c-0.277-0.93-0.987-1.393-2.132-1.393h-34.239l2.617 7.598-8.627 7.813h11.318l9e-3 0.025h34.239c1.144 0 1.536-0.465 1.173-1.393m24.845 14.9c-2.991 3.431-7.526 5.146-13.608 5.146h-66.097l-26.714-77.183h25.911l8.716 25.299h12.558l33.76-57.809h29.744l-36.271 57.809h0.529c7.489 0 13.55 1.732 18.177 5.199 4.626 3.465 7.791 7.593 9.496 12.382l5.747 16.722c1.691 4.859 1.041 9.005-1.948 12.435"
                fill="#231f20" />
        </g>
        <g transform="matrix(.35278 0 0 -.35278 121.32 56.46)">
            <path d="m0 0h25.911l9.566 27.521h-25.911z" fill="#231f20" />
        </g>
        <g transform="matrix(.35278 0 0 -.35278 136.59 38.745)">
            <path
                d="m0 0 2.878 8.29h-9e-3l9e-3 0.025h31.991l6.462 18.653h-89.894l-6.461-18.653h31.991l-3.111-8.691h25.911z"
                fill="#231f20" />
        </g>
        <g transform="matrix(.35278 0 0 -.35278 142.88 29.231)">
            <path
                d="m0 0-6.462-18.653h31.991l-20.251-58.531h25.91l17.375 50.216 2.876 8.289h-8e-3l8e-3 0.026h31.993l6.462 18.653z"
                fill="#231f20" />
        </g>
        <g transform="matrix(.35278 0 0 -.35278 48.164 31.028)">
            <path
                d="m0 0c-2.984 3.394-7.517 5.093-13.598 5.093h-46.136c-6.081 0-11.376-1.699-15.882-5.093-4.509-3.395-7.601-7.557-9.279-12.488l-4.076-12.007c-1.766-4.931-1.136-9.095 1.893-12.488 3.027-3.395 7.582-5.092 13.663-5.092h37.544c1.144 0 1.537-0.466 1.174-1.394l-2.968-8.575c-0.277-0.93-0.988-1.394-2.132-1.394h-31.595c-1.147 0-1.583 0.464-1.305 1.394l1.596 4.395h-25.911l-2.347-6.861c-1.766-4.931-1.137-9.095 1.892-12.489 3.028-3.395 7.582-5.092 13.663-5.092h46.798c6.081 0 11.242 1.697 15.486 5.092 4.242 3.394 7.248 7.558 9.013 12.489l4.077 12.007c1.767 4.93 1.135 9.092-1.892 12.488-3.03 3.393-7.583 5.092-13.664 5.092h-37.544c-1.146 0-1.581 0.464-1.306 1.394l0.93 2.686-8.015 7.257h12.088c0.08 5e-3 0.146 0.025 0.229 0.025h31.595c1.145 0 1.537-0.465 1.174-1.393l-1.465-4.395h25.911l2.348 6.861c1.677 4.931 1.024 9.093-1.959 12.488"
                fill="#231f20" />
        </g>
        <g transform="matrix(.35278 0 0 -.35278 72.123 36.303)">
            <path
                d="m0 0-5.504-15.866c-0.363-0.929-1.073-1.393-2.131-1.393h-33.181l3.765 10.869 2.689 7.758 8e-3 0.025h33.181c0.705 0 1.109-0.286 1.211-0.857 0.038-0.215 0.024-0.394-0.038-0.536m27.443 9.219c-0.573 3.216-2.293 5.824-5.161 7.825-2.868 2-6.549 3.002-11.044 3.002h-65.069l-0.01-0.025h-11.255l8.568-7.758-3.766-10.869 0.043 0.02-20.265-58.551h25.912l7.57 22.083h41.773c6.081 0 11.372 1.715 15.873 5.145 4.5 3.431 7.596 7.575 9.287 12.436l6.895 19.938c0.826 2.286 1.044 4.537 0.649 6.754"
                fill="#231f20" />
        </g>
        <g transform="matrix(.35278 0 0 -.35278 82.359 40.209)">
            <path d="m0 0h8.089l-2e-3 -6e-3h44.448l-5.176-14.938h-52.537z" fill="#4f4c4d" />
        </g>
        <g transform="matrix(.35278 0 0 -.35278 175.19 40.21)">
            <path
                d="m0 0h-39.912l-5.168-14.938h35.646l-2e-3 -6e-3h9.436c1.946 0 3.68 2.017 4.316 5.026 1.029 4.854-1.175 9.918-4.316 9.918"
                fill="#4f4c4d" />
        </g>
        <g transform="matrix(.35278 0 0 -.35278 110.74 40.21)">
            <path d="m0 0-3.165-14.938h105.76l5.169 14.938z" fill="#4f4c4d" />
        </g>
        <g transform="matrix(.35278 0 0 -.35278 205.29 29.231)">
            <path
                d="m0 0h-70.392c-5.311 0-10.008-3.124-11.596-7.714l-19.096-55.173c-2.453-7.088 3.394-14.297 11.597-14.297h62.773l6.462 18.653h-53.407l2.178 6.299 2.24 5.817h7.963l-1e-3 -2e-3h39.267l5.411 15.651h-47.459l1.578 4.561-8.311 7.526h10.914l9e-3 0.026h53.407z"
                fill="#231f20" />
        </g>
        <g transform="matrix(.35278 0 0 -.35278 101.81 38.033)">
            <path
                d="m0 0h-10.504c-0.804 0-1.518-0.511-1.779-1.271l-0.974-2.837c-0.124-0.361 0.145-0.736 0.526-0.736l5.566-0.016c0.383 0 0.651-0.378 0.525-0.739l-5.74-16.489c-0.078-0.223-0.288-0.373-0.525-0.373h-4.549c-0.236 0-0.447-0.15-0.525-0.373l-1.209-3.491c-0.19-0.636 0.108-0.953 0.892-0.953h8.863c0.784 0 1.269 0.317 1.458 0.953l8.777 25.372c0.249 0.635-0.02 0.953-0.802 0.953"
                fill="#231f20" />
        </g>
        <g transform="matrix(.35278 0 0 -.35278 114.79 30.574)">
            <path
                d="m0 0c-2.982 3.394-7.516 5.093-13.597 5.093h-48.78c-6.082 0-11.377-1.699-15.883-5.093-4.508-3.395-7.6-7.557-9.277-12.488l-3.763-10.947 26.153-4e-3 3.046 8.544c0.281 0.785 1.023 1.31 1.857 1.31l34.237 0.024c1.144 0 1.536-0.465 1.173-1.393l-12.831-37.09c-0.276-0.93-0.987-1.394-2.131-1.394h-34.239c-1.147 0-1.582 0.464-1.306 1.394l2.22 6.188h-25.918l-2.964-8.654c-1.766-4.931-1.137-9.095 1.894-12.489 3.026-3.395 7.582-5.092 13.663-5.092h48.78c6.081 0 11.353 1.697 15.816 5.092 4.463 3.394 7.579 7.558 9.345 12.489l14.464 42.022c1.678 4.931 1.025 9.093-1.959 12.488"
                fill="#231f20" />
        </g>
    </g>
</svg>