<?xml version="1.0" encoding="UTF-8" standalone="no"?>
<svg
   xmlns:dc="http://purl.org/dc/elements/1.1/"
   xmlns:cc="http://creativecommons.org/ns#"
   xmlns:rdf="http://www.w3.org/1999/02/22-rdf-syntax-ns#"
   xmlns:svg="http://www.w3.org/2000/svg"
   xmlns="http://www.w3.org/2000/svg"
   xmlns:sodipodi="http://sodipodi.sourceforge.net/DTD/sodipodi-0.dtd"
   xmlns:inkscape="http://www.inkscape.org/namespaces/inkscape"
   viewBox="0 0 63.66898 63.66898"
   version="1.1"
   id="svg418"
   inkscape:version="1.0.1 (3bc2e813f5, 2020-09-07)"
   sodipodi:docname="spotter_logo_icon.svg">
  <defs
     id="defs412">
    <clipPath
       clipPathUnits="userSpaceOnUse"
       id="clipPath128">
      <path
         d="m 329.492,223.549 c -22.427,0 -40.608,-18.181 -40.608,-40.608 v 0 -99.263 c 0,-22.428 18.181,-40.608 40.608,-40.608 v 0 h 99.263 c 22.427,0 40.608,18.18 40.608,40.608 v 0 99.263 c 0,22.427 -18.181,40.608 -40.608,40.608 v 0 z"
         id="path126" />
    </clipPath>
    <radialGradient
       fx="0"
       fy="0"
       cx="0"
       cy="0"
       r="1"
       gradientUnits="userSpaceOnUse"
       gradientTransform="matrix(90.239548,0,0,-90.239548,379.12335,133.30925)"
       spreadMethod="pad"
       id="radialGradient138">
      <stop
         style="stop-opacity:0;stop-color:transparent"
         offset="0"
         id="stop134" />
      <stop
         style="stop-opacity:0;stop-color:transparent"
         offset="1"
         id="stop136" />
    </radialGradient>
    <clipPath
       clipPathUnits="userSpaceOnUse"
       id="clipPath148">
      <path
         d="M 0,612 H 792 V 0 H 0 Z"
         id="path146" />
    </clipPath>
  </defs>
  <sodipodi:namedview
     id="base"
     pagecolor="#ffffff"
     bordercolor="#666666"
     borderopacity="1.0"
     inkscape:pageopacity="0.0"
     inkscape:pageshadow="2"
     inkscape:zoom="1.4"
     inkscape:cx="128.89221"
     inkscape:cy="228.86871"
     inkscape:document-units="mm"
     inkscape:current-layer="layer1"
     inkscape:document-rotation="0"
     showgrid="false"
     fit-margin-top="0"
     fit-margin-left="0"
     fit-margin-right="0"
     fit-margin-bottom="0"
     inkscape:window-width="1267"
     inkscape:window-height="1040"
     inkscape:window-x="234"
     inkscape:window-y="0"
     inkscape:window-maximized="0" />
  <metadata
     id="metadata415">
    <rdf:RDF>
      <cc:Work
         rdf:about="">
        <dc:format>image/svg+xml</dc:format>
        <dc:type
           rdf:resource="http://purl.org/dc/dcmitype/StillImage" />
        <dc:title></dc:title>
      </cc:Work>
    </rdf:RDF>
  </metadata>
  <g
     inkscape:label="Layer 1"
     inkscape:groupmode="layer"
     id="layer1"
     transform="translate(-55.855989,-58.123842)">
    <g
       id="g122"
       transform="matrix(0.35277777,0,0,-0.35277777,-46.055864,136.98696)">
      <g
         id="g124"
         clip-path="url(#clipPath128)">
        <g
           id="g130">
          <g
             id="g132">
            <path
               d="m 329.492,223.549 c -22.427,0 -40.608,-18.181 -40.608,-40.608 v 0 -99.263 c 0,-22.428 18.181,-40.608 40.608,-40.608 v 0 h 99.263 c 22.427,0 40.608,18.18 40.608,40.608 v 0 99.263 c 0,22.427 -18.181,40.608 -40.608,40.608 v 0 z"
               style="fill:url(#radialGradient138);stroke:none"
               id="path140" />
          </g>
        </g>
      </g>
    </g>
    <g
       id="g142"
       transform="matrix(0.35277777,0,0,-0.35277777,-46.055864,136.98696)">
      <g
         id="g144"
         clip-path="url(#clipPath148)">
        <g
           id="g150"
           transform="translate(321.2787,147.0684)">
          <path
             d="M 0,0 H 11.381 L 11.377,-0.009 H 73.912 L 66.63,-21.026 H -7.285 Z"
             style="fill:#4f4c4d;fill-opacity:1;fill-rule:nonzero;stroke:none"
             id="path152" />
        </g>
        <g
           id="g154"
           transform="translate(434.4593,147.0635)">
          <path
             d="M 0,0 -4.452,-21.017 H 34.604 L 34.903,0 Z"
             style="fill:#4f4c4d;fill-opacity:1;fill-rule:nonzero;stroke:none"
             id="path156" />
        </g>
        <g
           id="g158"
           transform="translate(398.8607,155.7441)">
          <path
             d="m 0,0 h -14.778 c -1.131,-0.001 -2.136,-0.719 -2.503,-1.788 l -1.37,-3.991 c -0.174,-0.507 0.203,-1.035 0.74,-1.035 l 7.831,-0.024 c 0.538,0 0.915,-0.531 0.738,-1.039 l -8.075,-23.198 c -0.109,-0.315 -0.406,-0.526 -0.739,-0.526 h -6.401 c -0.333,0 -0.629,-0.211 -0.738,-0.525 l -1.702,-4.911 c -0.266,-0.895 0.153,-1.341 1.257,-1.341 h 12.469 c 1.101,0 1.785,0.446 2.051,1.341 L 1.129,-1.341 C 1.479,-0.447 1.101,0 0,0"
             style="fill:#231f20;fill-opacity:1;fill-rule:nonzero;stroke:none"
             id="path160" />
        </g>
        <g
           id="g162"
           transform="translate(450.6195,185.4922)">
          <path
             d="m 0,0 c -4.196,4.774 -10.574,7.164 -19.13,7.164 h -68.631 c -8.555,0 -16.006,-2.39 -22.344,-7.164 -6.343,-4.777 -10.694,-10.633 -13.054,-17.57 l -5.294,-15.402 36.795,-0.007 4.287,12.023 c 0.393,1.104 1.438,1.842 2.611,1.843 l 48.169,0.034 c 1.61,0 2.162,-0.654 1.651,-1.96 l -18.052,-52.184 c -0.39,-1.307 -1.389,-1.961 -2.999,-1.961 h -48.171 c -1.613,0 -2.227,0.654 -1.837,1.961 l 3.123,8.706 h -36.465 l -4.17,-12.175 c -2.484,-6.938 -1.598,-12.796 2.663,-17.571 4.26,-4.776 10.668,-7.164 19.224,-7.164 h 68.631 c 8.555,0 15.971,2.388 22.252,7.164 6.279,4.775 10.662,10.633 13.146,17.571 L 2.756,-17.57 C 5.116,-10.633 4.199,-4.777 0,0"
             style="fill:#231f20;fill-opacity:1;fill-rule:nonzero;stroke:none"
             id="path164" />
        </g>
      </g>
    </g>
  </g>
</svg>
