<svg xmlns="http://www.w3.org/2000/svg" width="28.222" height="22.93" viewBox="0 0 28.222 22.93">
    <path fill="#03a9f4" d="M28.222 50.715a12.063 12.063 0 0 1-3.334.914 5.753 5.753 0 0 0 2.545-3.2 11.562 11.562 0 0 1-3.669 1.4 5.785 5.785 0 0 0-10.008 3.956 5.957 5.957 0 0 0 .134 1.319 16.376 16.376 0 0 1-11.925-6.049 5.787 5.787 0 0 0 1.778 7.733 5.714 5.714 0 0 1-2.614-.713v.064a5.812 5.812 0 0 0 4.635 5.685 5.774 5.774 0 0 1-1.517.191 5.116 5.116 0 0 1-1.1-.1 5.841 5.841 0 0 0 5.406 4.03 11.625 11.625 0 0 1-7.174 2.468A10.836 10.836 0 0 1 0 68.334a16.288 16.288 0 0 0 8.876 2.6c10.647 0 16.467-8.819 16.467-16.464 0-.256-.009-.5-.021-.748a11.542 11.542 0 0 0 2.9-3.007z" transform="translate(0 -48)"/>
</svg>
